<mxfile host="app.diagrams.net" modified="2024-02-28T01:43:40.525Z" agent="Mozilla/5.0 (Macintosh; Intel Mac OS X 10_15_7) AppleWebKit/605.1.15 (KHTML, like Gecko) Version/17.3.1 Safari/605.1.15" etag="A7sNRbBg-PX_bfkqZrI6" version="23.1.7" type="github">
  <diagram name="Page-1" id="50nOWfDZ1inQ7PiF_voR">
    <mxGraphModel dx="1194" dy="797" grid="1" gridSize="10" guides="1" tooltips="1" connect="1" arrows="1" fold="1" page="1" pageScale="1" pageWidth="850" pageHeight="1100" math="0" shadow="0">
      <root>
        <mxCell id="0" />
        <mxCell id="1" parent="0" />
        <mxCell id="G56Gs_buEpBoTpwi1JfI-2" value="" style="html=1;verticalLabelPosition=bottom;align=center;labelBackgroundColor=#ffffff;verticalAlign=top;strokeWidth=2;strokeColor=#0080F0;shadow=0;dashed=0;shape=mxgraph.ios7.icons.documents;" vertex="1" parent="1">
          <mxGeometry x="563.5" y="202" width="50" height="60" as="geometry" />
        </mxCell>
        <mxCell id="G56Gs_buEpBoTpwi1JfI-40" value="" style="endArrow=classic;html=1;rounded=0;exitX=0.967;exitY=0.081;exitDx=0;exitDy=0;exitPerimeter=0;startArrow=classic;startFill=1;" edge="1" parent="1">
          <mxGeometry width="50" height="50" relative="1" as="geometry">
            <mxPoint x="189.5" y="541.29" as="sourcePoint" />
            <mxPoint x="233.5" y="540.71" as="targetPoint" />
          </mxGeometry>
        </mxCell>
        <mxCell id="G56Gs_buEpBoTpwi1JfI-3" value="" style="html=1;verticalLabelPosition=bottom;align=center;labelBackgroundColor=#ffffff;verticalAlign=top;strokeWidth=2;strokeColor=#0080F0;shadow=0;dashed=0;shape=mxgraph.ios7.icons.documents;" vertex="1" parent="1">
          <mxGeometry x="543.5" y="212" width="50" height="60" as="geometry" />
        </mxCell>
        <mxCell id="G56Gs_buEpBoTpwi1JfI-12" value="Chunks of text" style="text;html=1;align=center;verticalAlign=middle;resizable=0;points=[];autosize=1;strokeColor=none;fillColor=none;" vertex="1" parent="1">
          <mxGeometry x="528.5" y="288" width="100" height="30" as="geometry" />
        </mxCell>
        <mxCell id="G56Gs_buEpBoTpwi1JfI-13" value="" style="shape=image;html=1;verticalAlign=top;verticalLabelPosition=bottom;labelBackgroundColor=#ffffff;imageAspect=0;aspect=fixed;image=https://cdn0.iconfinder.com/data/icons/evericons-24px-vol-2/24/database-128.png" vertex="1" parent="1">
          <mxGeometry x="700.5" y="474" width="98" height="98" as="geometry" />
        </mxCell>
        <mxCell id="G56Gs_buEpBoTpwi1JfI-14" value="Pinecone as Vector Store" style="text;html=1;align=center;verticalAlign=middle;resizable=0;points=[];autosize=1;strokeColor=none;fillColor=none;" vertex="1" parent="1">
          <mxGeometry x="657" y="572" width="160" height="30" as="geometry" />
        </mxCell>
        <mxCell id="G56Gs_buEpBoTpwi1JfI-20" value="Embeddings" style="rounded=1;whiteSpace=wrap;html=1;" vertex="1" parent="1">
          <mxGeometry x="701" y="222" width="97.5" height="38" as="geometry" />
        </mxCell>
        <mxCell id="G56Gs_buEpBoTpwi1JfI-22" value="" style="endArrow=classic;html=1;rounded=0;entryX=0;entryY=0;entryDx=0;entryDy=0;exitX=0.967;exitY=0.081;exitDx=0;exitDy=0;exitPerimeter=0;" edge="1" parent="1" source="G56Gs_buEpBoTpwi1JfI-2" target="G56Gs_buEpBoTpwi1JfI-20">
          <mxGeometry width="50" height="50" relative="1" as="geometry">
            <mxPoint x="613.5" y="202" as="sourcePoint" />
            <mxPoint x="663.5" y="152" as="targetPoint" />
          </mxGeometry>
        </mxCell>
        <mxCell id="G56Gs_buEpBoTpwi1JfI-23" value="" style="endArrow=classic;html=1;rounded=0;entryX=0;entryY=0.5;entryDx=0;entryDy=0;" edge="1" parent="1" target="G56Gs_buEpBoTpwi1JfI-20">
          <mxGeometry width="50" height="50" relative="1" as="geometry">
            <mxPoint x="613.5" y="230" as="sourcePoint" />
            <mxPoint x="701" y="250" as="targetPoint" />
          </mxGeometry>
        </mxCell>
        <mxCell id="G56Gs_buEpBoTpwi1JfI-24" value="" style="endArrow=classic;html=1;rounded=0;entryX=0;entryY=1;entryDx=0;entryDy=0;" edge="1" parent="1" target="G56Gs_buEpBoTpwi1JfI-20">
          <mxGeometry width="50" height="50" relative="1" as="geometry">
            <mxPoint x="601" y="262" as="sourcePoint" />
            <mxPoint x="688.5" y="273" as="targetPoint" />
          </mxGeometry>
        </mxCell>
        <mxCell id="G56Gs_buEpBoTpwi1JfI-26" value="" style="curved=1;endArrow=classic;html=1;rounded=0;entryX=0.5;entryY=0;entryDx=0;entryDy=0;" edge="1" parent="1">
          <mxGeometry width="50" height="50" relative="1" as="geometry">
            <mxPoint x="747" y="260" as="sourcePoint" />
            <mxPoint x="745.25" y="480" as="targetPoint" />
            <Array as="points">
              <mxPoint x="753.75" y="246" />
            </Array>
          </mxGeometry>
        </mxCell>
        <mxCell id="G56Gs_buEpBoTpwi1JfI-28" value="User" style="text;html=1;align=center;verticalAlign=middle;resizable=0;points=[];autosize=1;strokeColor=none;fillColor=none;" vertex="1" parent="1">
          <mxGeometry x="23" y="560" width="50" height="30" as="geometry" />
        </mxCell>
        <mxCell id="G56Gs_buEpBoTpwi1JfI-29" value="" style="verticalLabelPosition=bottom;html=1;verticalAlign=top;align=center;strokeColor=none;fillColor=#00BEF2;shape=mxgraph.azure.user;" vertex="1" parent="1">
          <mxGeometry x="23" y="510" width="47.5" height="50" as="geometry" />
        </mxCell>
        <mxCell id="G56Gs_buEpBoTpwi1JfI-31" value="Embeddings" style="rounded=1;whiteSpace=wrap;html=1;" vertex="1" parent="1">
          <mxGeometry x="393" y="460" width="97.5" height="38" as="geometry" />
        </mxCell>
        <mxCell id="G56Gs_buEpBoTpwi1JfI-34" value="" style="endArrow=classic;html=1;rounded=0;exitX=1;exitY=0.5;exitDx=0;exitDy=0;entryX=0;entryY=0.25;entryDx=0;entryDy=0;" edge="1" parent="1" source="G56Gs_buEpBoTpwi1JfI-31" target="G56Gs_buEpBoTpwi1JfI-13">
          <mxGeometry width="50" height="50" relative="1" as="geometry">
            <mxPoint x="509.5" y="478" as="sourcePoint" />
            <mxPoint x="659.5" y="498" as="targetPoint" />
          </mxGeometry>
        </mxCell>
        <mxCell id="G56Gs_buEpBoTpwi1JfI-35" value="Search" style="text;html=1;align=center;verticalAlign=middle;resizable=0;points=[];autosize=1;strokeColor=none;fillColor=none;rotation=5;" vertex="1" parent="1">
          <mxGeometry x="548.5" y="460" width="60" height="30" as="geometry" />
        </mxCell>
        <mxCell id="G56Gs_buEpBoTpwi1JfI-36" value="" style="fontColor=#0066CC;verticalAlign=top;verticalLabelPosition=bottom;labelPosition=center;align=center;html=1;outlineConnect=0;fillColor=#CCCCCC;strokeColor=#6881B3;gradientColor=none;gradientDirection=north;strokeWidth=2;shape=mxgraph.networks.user_male;" vertex="1" parent="1">
          <mxGeometry x="147" y="501" width="35" height="80" as="geometry" />
        </mxCell>
        <mxCell id="G56Gs_buEpBoTpwi1JfI-37" value="Agent" style="text;html=1;align=center;verticalAlign=middle;resizable=0;points=[];autosize=1;strokeColor=none;fillColor=none;" vertex="1" parent="1">
          <mxGeometry x="139.5" y="580" width="50" height="30" as="geometry" />
        </mxCell>
        <mxCell id="G56Gs_buEpBoTpwi1JfI-51" style="edgeStyle=orthogonalEdgeStyle;rounded=0;orthogonalLoop=1;jettySize=auto;html=1;entryX=0;entryY=0.5;entryDx=0;entryDy=0;" edge="1" parent="1" source="G56Gs_buEpBoTpwi1JfI-38" target="G56Gs_buEpBoTpwi1JfI-31">
          <mxGeometry relative="1" as="geometry" />
        </mxCell>
        <mxCell id="G56Gs_buEpBoTpwi1JfI-38" value="" style="sketch=0;pointerEvents=1;shadow=0;dashed=0;html=1;strokeColor=none;labelPosition=center;verticalLabelPosition=bottom;verticalAlign=top;align=center;fillColor=#505050;shape=mxgraph.mscae.enterprise.settings" vertex="1" parent="1">
          <mxGeometry x="237" y="516" width="50" height="50" as="geometry" />
        </mxCell>
        <mxCell id="G56Gs_buEpBoTpwi1JfI-39" value="Tools" style="text;html=1;align=center;verticalAlign=middle;resizable=0;points=[];autosize=1;strokeColor=none;fillColor=none;" vertex="1" parent="1">
          <mxGeometry x="240.5" y="568" width="50" height="30" as="geometry" />
        </mxCell>
        <mxCell id="G56Gs_buEpBoTpwi1JfI-41" value="" style="endArrow=classic;html=1;rounded=0;startArrow=classic;startFill=1;" edge="1" parent="1">
          <mxGeometry width="50" height="50" relative="1" as="geometry">
            <mxPoint x="77" y="540" as="sourcePoint" />
            <mxPoint x="131" y="540.71" as="targetPoint" />
          </mxGeometry>
        </mxCell>
        <mxCell id="G56Gs_buEpBoTpwi1JfI-47" value="" style="rounded=0;orthogonalLoop=1;jettySize=auto;html=1;verticalAlign=middle;endArrow=classic;endFill=1;" edge="1" parent="1" source="G56Gs_buEpBoTpwi1JfI-44" target="G56Gs_buEpBoTpwi1JfI-42">
          <mxGeometry relative="1" as="geometry" />
        </mxCell>
        <mxCell id="G56Gs_buEpBoTpwi1JfI-42" value="Retrieval" style="rounded=1;whiteSpace=wrap;html=1;" vertex="1" parent="1">
          <mxGeometry x="393" y="576" width="97.5" height="38" as="geometry" />
        </mxCell>
        <mxCell id="G56Gs_buEpBoTpwi1JfI-44" value="" style="html=1;verticalLabelPosition=bottom;align=center;labelBackgroundColor=#ffffff;verticalAlign=top;strokeWidth=2;strokeColor=#0080F0;shadow=0;dashed=0;shape=mxgraph.ios7.icons.documents;" vertex="1" parent="1">
          <mxGeometry x="553" y="566" width="50" height="60" as="geometry" />
        </mxCell>
        <mxCell id="G56Gs_buEpBoTpwi1JfI-48" value="Top k documents" style="text;html=1;align=center;verticalAlign=middle;resizable=0;points=[];autosize=1;strokeColor=none;fillColor=none;rotation=0;" vertex="1" parent="1">
          <mxGeometry x="523" y="630" width="110" height="30" as="geometry" />
        </mxCell>
        <mxCell id="G56Gs_buEpBoTpwi1JfI-49" style="edgeStyle=orthogonalEdgeStyle;rounded=0;orthogonalLoop=1;jettySize=auto;html=1;entryX=0.98;entryY=0.611;entryDx=0;entryDy=0;entryPerimeter=0;" edge="1" parent="1" source="G56Gs_buEpBoTpwi1JfI-13" target="G56Gs_buEpBoTpwi1JfI-44">
          <mxGeometry relative="1" as="geometry" />
        </mxCell>
        <mxCell id="G56Gs_buEpBoTpwi1JfI-50" style="edgeStyle=orthogonalEdgeStyle;rounded=0;orthogonalLoop=1;jettySize=auto;html=1;entryX=1.017;entryY=0.893;entryDx=0;entryDy=0;entryPerimeter=0;" edge="1" parent="1" source="G56Gs_buEpBoTpwi1JfI-42" target="G56Gs_buEpBoTpwi1JfI-38">
          <mxGeometry relative="1" as="geometry" />
        </mxCell>
        <mxCell id="G56Gs_buEpBoTpwi1JfI-52" value="&lt;span style=&quot;caret-color: rgb(0, 0, 0); color: rgb(0, 0, 0); font-family: Helvetica; font-size: 12px; font-style: normal; font-variant-caps: normal; font-weight: 400; letter-spacing: normal; text-align: center; text-indent: 0px; text-transform: none; word-spacing: 0px; -webkit-text-stroke-width: 0px; background-color: rgb(251, 251, 251); text-decoration: none; float: none; display: inline !important;&quot;&gt;Query&lt;/span&gt;" style="text;whiteSpace=wrap;html=1;" vertex="1" parent="1">
          <mxGeometry x="299.5" y="510" width="70" height="40" as="geometry" />
        </mxCell>
        <mxCell id="G56Gs_buEpBoTpwi1JfI-53" value="" style="swimlane;startSize=0;" vertex="1" parent="1">
          <mxGeometry x="97" y="150" width="730" height="550" as="geometry" />
        </mxCell>
        <mxCell id="G56Gs_buEpBoTpwi1JfI-16" value="" style="shape=flexArrow;endArrow=classic;html=1;rounded=0;width=10.344827586206897;endSize=5.158620689655173;" edge="1" parent="G56Gs_buEpBoTpwi1JfI-53">
          <mxGeometry width="50" height="50" relative="1" as="geometry">
            <mxPoint x="388" y="89.84" as="sourcePoint" />
            <mxPoint x="431.5" y="89.50000000000003" as="targetPoint" />
          </mxGeometry>
        </mxCell>
        <mxCell id="G56Gs_buEpBoTpwi1JfI-9" value="" style="sketch=0;outlineConnect=0;fontColor=#232F3E;gradientColor=none;fillColor=#232F3D;strokeColor=none;dashed=0;verticalLabelPosition=bottom;verticalAlign=top;align=center;html=1;fontSize=12;fontStyle=0;aspect=fixed;pointerEvents=1;shape=mxgraph.aws4.document;" vertex="1" parent="G56Gs_buEpBoTpwi1JfI-53">
          <mxGeometry x="323" y="52" width="57" height="78" as="geometry" />
        </mxCell>
        <mxCell id="G56Gs_buEpBoTpwi1JfI-11" value="Text content" style="text;html=1;align=center;verticalAlign=middle;resizable=0;points=[];autosize=1;strokeColor=none;fillColor=none;" vertex="1" parent="G56Gs_buEpBoTpwi1JfI-53">
          <mxGeometry x="306.5" y="138" width="90" height="30" as="geometry" />
        </mxCell>
        <mxCell id="G56Gs_buEpBoTpwi1JfI-15" value="" style="shape=flexArrow;endArrow=classic;html=1;rounded=0;width=10.344827586206897;endSize=5.158620689655173;" edge="1" parent="G56Gs_buEpBoTpwi1JfI-53">
          <mxGeometry width="50" height="50" relative="1" as="geometry">
            <mxPoint x="263" y="92" as="sourcePoint" />
            <mxPoint x="306.5" y="91.66000000000003" as="targetPoint" />
          </mxGeometry>
        </mxCell>
        <mxCell id="G56Gs_buEpBoTpwi1JfI-4" value="" style="verticalLabelPosition=bottom;html=1;verticalAlign=top;align=center;strokeColor=none;fillColor=#00BEF2;shape=mxgraph.azure.azure_website;pointerEvents=1;" vertex="1" parent="G56Gs_buEpBoTpwi1JfI-53">
          <mxGeometry x="38" y="50" width="80" height="80" as="geometry" />
        </mxCell>
        <mxCell id="G56Gs_buEpBoTpwi1JfI-8" value="promptior.ai" style="text;html=1;align=center;verticalAlign=middle;resizable=0;points=[];autosize=1;strokeColor=none;fillColor=none;" vertex="1" parent="G56Gs_buEpBoTpwi1JfI-53">
          <mxGeometry x="33" y="138" width="90" height="30" as="geometry" />
        </mxCell>
        <mxCell id="G56Gs_buEpBoTpwi1JfI-17" value="" style="shape=flexArrow;endArrow=classic;html=1;rounded=0;width=10.344827586206897;endSize=5.158620689655173;" edge="1" parent="G56Gs_buEpBoTpwi1JfI-53">
          <mxGeometry width="50" height="50" relative="1" as="geometry">
            <mxPoint x="128" y="90" as="sourcePoint" />
            <mxPoint x="171.5" y="89.66000000000003" as="targetPoint" />
          </mxGeometry>
        </mxCell>
        <mxCell id="G56Gs_buEpBoTpwi1JfI-18" value="" style="shape=image;html=1;verticalAlign=top;verticalLabelPosition=bottom;labelBackgroundColor=#ffffff;imageAspect=0;aspect=fixed;image=https://cdn1.iconfinder.com/data/icons/bootstrap-vol-3/16/filetype-html-128.png" vertex="1" parent="G56Gs_buEpBoTpwi1JfI-53">
          <mxGeometry x="178" y="52" width="78" height="78" as="geometry" />
        </mxCell>
        <mxCell id="G56Gs_buEpBoTpwi1JfI-19" value="Extract HTML" style="text;html=1;align=center;verticalAlign=middle;resizable=0;points=[];autosize=1;strokeColor=none;fillColor=none;" vertex="1" parent="G56Gs_buEpBoTpwi1JfI-53">
          <mxGeometry x="167" y="138" width="100" height="30" as="geometry" />
        </mxCell>
        <mxCell id="G56Gs_buEpBoTpwi1JfI-59" value="" style="shape=image;imageAspect=0;aspect=fixed;verticalLabelPosition=bottom;verticalAlign=top;image=data:image/webp,UklGRn4PAABXRUJQVlA4IHIPAAAwygCdASpiA4oCPpFIokwoJqUioNKYoQASCWlu/C45xHYnfuQ/O9S06J+MuDfbIcgeDd7ANsr5gP2e/VX3Y/6B+qvua9AD/AfyXrAPQA6W/yYNV68tf3LtV/y/nPYFxI+v/9b+UPxy/n+9XgEerf9PvbYAPqv50U25Wk8z9B/oW6DnqjpqvY3+5ARP/n7RTujcq9op3RuVe0U7o3KvaKd0blXtFO6Nyr2indG5V7RTujcq9op3RuVe0U7o3KvaKd0blXtFO6Nyr2indG5V7RTujcq9op3RuVe0U7o3KvaKd0blXtFO6Nyr2indG5V7RTujcq9op3RuVe0U7o3KvaKd0blXtFO6Nyr2indG5V7RTujcq9op3RuVe0U7o3KvaKd0blXtFO6Nyr2indG5V7RTujcq9op3RuVe0U7o3KvaKd0blXtFO6Nyr2indG5V7RTujcq9op3RuVe0U7o3KvaKd0blXtFO6Nyr2indG5V7RTujcq9op3RuVe0U7o3KvaKd0blXtFO6Nyr2indG5V7RTujcq9op3RuVe0U7o3KvaKd0blXtFO6Nyr2indG5V7RTujcq9op3RuVe0U7o3KvaKd0blXtFO6Nyr2indG5V7RTujcq9op3RuVe0U7o3KvaKd0blTDPTZ9ydO8myfsLtFO6Nyr2indG5V7RTujcq9op3RuVdQXVIw0UhdAfGFvAqTz9op3RuVe0U7oKy/Y+o+NNbAPQeT974j+LRTujcq9YhT/CFXtLAFuVe0U7o3KvWaXbiZ6wMlhHHuwa0KTfrcJyXo9u34JtojPWkH/8/aIsKf4Qq9pYAigNaPLOqsweA+Are07NStzaPfDkqIPmtTbMBLscBwiLYlfyTwSU+nCIH8v0RY+yO5h/ExFM4dZ1SRFAKIc2HN+uiLSkzMjr+4CDnkVuVMD4MZJU/EdO8p7gTWKZWu8p7k6YMt9u9FkzCTbNam+/qT+wGwLPTSqUZO/wi4ayOEm8ycX8Ed9CB13VxM51auMDqm1igvy71IFBpel9AeMRYZGi5bvey6RY7/ren6OuVApmrsVv6I5G+2+qfs2Qf1PTujdQfS1RVFHgNDXYMqMGqSGTCFZvGZwrtewT0HP2DB5j8wwVyAXZ/U4RwGjSXC9b0A6HyxIVqpm37f6iZEveVe0U7gQqAA+FkZjgDKG4vtDpAqMWup4vio1vCU0uEiAeyDKBSKekwGUNtA+iJOKbCgFuVdTVFO1Ymm70sUJpCsAuIfFqrRIarXG6WrAHij6grlG0UXOjb+XVbfirXIXfBDRNS5ec8Ocqojc159mdxGEqE5FxkBQZGFAkLVsr1KKePpQIEtJfSCTzQeA7Nm7R/oORZ4VQd+cFzjFQER7tNyr1gL+hMDFD7k6d5MPQgd2F3lPcnTak4hbJvicig557/h7eBSyL0zBImzIaa5VR0e2PL3f1RUCmlTRZh/7xCM5QlogrfYbFIYP3w5uWxCehHHuAjrv1/3URu6B+pIM03dPwzqU2H2sscZ1IZwVNa7w3ffMyMuoNX8ZGra7WApkEjoTuLq1CAJhJaOesXqwJgVRr9uHQBblXU1RTrVtdrAUnn7RTujNsII8e/7eb/iZGXXRuVe0U7o3KuoGHf1gvjBn3J07yZHEW9ithsVMdop3RuVe0U7o3KvaKd0blXtFO6RrUVEAJfl5GXXRuVe0U7o3KvaKd0blXtFO6Nyr2indG5V7RTujcq9op3RuVe0U7o3KvaKd0blXtFO6Nyr2indG5V7RTujcq9op3RuVe0U7o3KvaKd0blXtFO6Nyr2indG5V7RTujcq9op3RuVe0U7o3KvaKd0blXtFO6Nyr2indG5V7RTujcq9op3RuVe0U7o3KvaKd0blXtFO6Nyr2indG5V7RTujcq9op3RuVe0U7o3KvaKd0blXtFO6Nyr2indG5V7RTujcq9op3RuVe0U7o3KvaKd0blXtFO6Nyr2indG5V7RTujcq9op3RuVe0U7o3KvaKd0blXtFO6Nyr2indG5V7RTujcq9op3RuVe0U7o3KvaKd0blXtFO6Nyr2indG5V7RTujcq9op3RuVe0U7o3KvaKd0blXtFO6Nyr2indG5V7RTujcq9op3RuVe0U7o3KvaKd0blXtFO6Nyr2indG5V7RTujcq9op3RuVe0UoAAA/v+cuAAAAAAAAAAAAAAAAAAAAAAAAAADEUrHPkBCgbueb2qww3pw5UI5m7PZz/8P6nGgqhLv07x3uFKhma0dZiqBatgYdFkr+YZANlD7IU0+D8gnN19PGYobco0br+7YgHT5F2G83L2eo5mJDdcS59LmlCibf/uKuix83v3Kq50wADK+ufmkE8GN5OblJtZVSwRG48WYu6E3Iudfgrq0NSCvle8BlzwQmzbwTYIzPpyWOJAFxwKWbMP/VVRNZesM3ekS8Fpt8y0h3wGJwEo0gad2+deZDOJBZJquycxR3jbdRKSvg6WnXtY/asJ7NSzP67H1oP9AFg+O/nr2z/Umj2h4RhvivOLRceDeD8aaEDvdRovJRQLycNTR+vxMgQxY+2RoEqLZbFbEdTDJ4SxMakxfnd8E2x6AVrTMd8QHNa/8SGzISgTGYW5txYglXquW/W6RZQB5ihrBMwWv5nz9bSWH9Y3H+/RvqXUkver5Jj9CNlHuaudhwoV9B/l7POMKtnH4T6gICBEGGa+23RJ9MS5YfnkWfKhmFo4FfAcpLwKWHCcw1nQqOnKAHrv6m/pzF2wTvY8dklWvDMZ/ZI/44YuT9sA55ENRS7fhzkjiWGBnZQwVNnwuAQGQfJ+Uj9SLi1V+EqEAItXCGJ6SigXztrpnoZjnwkE9kWN/Plvc8KLML9Nz3kxF/xb78ikuZKkY273yDWPWoRl64Z8cTikdyzSvswGe7VQDeIgKlAn5qTZNkXRbAXWRDzfX5ydNUKW1wW+Cfkb4wloksZ4EOic82roWSQVBR/wZqZLld4sN/yJB5VDNHerIKhJrtnTBfIU0WkTm3x+dIlediCZFJxjt+KLfSBpkBMymK7HOdbnuPRyHxmqJpCpreI/m3SmStXu2ZO5mcDN3om1+Z+lKzotNxt0OOLJjwEP7SGSBejeZvcyRU1ABIjMvYN5hDad0iSkoWv2avVs2JBzN/7q2rtT52Hr+1wsJl64uftbi+8cb2j23YrrdAsP425rPg1oIbyDZKbcLcORqv7e0avmHocBfzz8vTBOUOh/LEzQrD5orvqirX2KYe2vF2xoRbyI0OliPOKTkOHeWeIOXzTMHSMwnHJLM3EV83cgUvPzjw2UeR/o83B2m1eH9DJWpeFW97DdflEBEfYyEgjmHF8uUyinmTUYeY7fcF49OU2qJf/N69AD632n0d3F+KNNAV29aq59ClAUJoyEwn61BWO9XKKPsRDeF1Wu5NThaHL127+kHnahtxxp0c8x4O001V8ei9vnMsLlHvRFi1fHt/RJs5hRvi6+uptHAC6JZuRYP/B9cDOhlIlQlH0h8w6hbPV62bVEIrFrwO1UvzBnep3lBj5tFn1GVykLYHKDSJ0aCi5WZFhgJfoVwv21s2DLK+xF1hLP1nE5+HnKizCjKBhknf4YBYo3Rn9c6PYtrjw9+PAVrpcHGuFZ+3/mftCkbsVBeV294ZFuD+noH6IZPu0MRoLwALTSPzx/RTJ5NSmkY4awafAOBM5szAf78vg/U2WMKjOITz6xz9uSOMfcU6McPtxtdN8osy1scipeHlqGmRoOsInF5J6NC09bi08X4JzpQMhyIzDbUMzkeUyCw1Qj4FP9z17d+05ISpHBAiElRH4ZVi15Ak+pT8sAldNcS/IbIUAtU269VJAAWSpVkTRIWsFxBf3olamIHEIYmc+M+nB7VeTLmI9TqtFDsxQM3vjisSAWRHN/aFvU51GwYMhQQpEw8W1dK/+rljcD09qcuWLPPeRbmAmgeCq2OgYoHeB1mez1A09KYqrnZNBt8d2Ve2SFDucUNmX5oHtHwKNanXVZQPcj3OjqT7fE4IMhS3BVfMl7qpOe+53ZK1ZtFIwjcSsMAI2Tmu08w+8PEVb8nIK5s6+W4a6I9oZliT86zxyJwojHHwUz5mDBj7byb/yVCVafBZYEgIWM8Y52KDx0wFkq+3DWraFJohMrl9EAHxcpJNZ3Ky4bUcVcTu4m/L1yh2hDOrEmtQmzc6cPRIILKZlkKgooD6VyPJE/KmGjEm6IypRqikNlekw1/DKK7Fbd5e8vS2yybsYLEoJnbU/AZsqVI/wbRto1ujB+0zgZDS+6oYhVvdt6+1BYv35iVl/BHTthSVU6nmZ+k+QNxLxBSKBBxhb4p+Y4WhGRXEhSmB10l04SPvbHWHCdV9YAqdE1YFfRXNhXjUQ0JLH78s8npy+BBrRNhZwareeegqhVzyFl8gRM6LNr6Yl06hUTsTC7Jvj366LJIy5omVbtO+m9BwaTKhHR/rcXxfBBz6qCa2UH4F35qGPbfyY0fs/7blR+Hnz3881ztVUUSdtJsuh8tP0P7fK7vjarUFUrcF5Wd8vfm4/kOtk1u80XsMea3o7w7QXn8WBNDz0zwOwBNEApZqieysh9ZxtFKZvrsxaZDW7TooZku/PUkJ1ItsgVBA/aLg13l6wFoQZcUmeCe+c1XHEo3zVEpiYGNa5uNEqBrKdPkuUDQAd42nmsbsVvETwVPuzzLeONq5BrbJB7w6bcJtVF861Pq36kahlbI/tFSG5kv39RbPmS3Cz9nCCTfIoMK9D5kPYvgmYLlvOmf5XFMTxPFsAd8yh9JP/w2RonFONKHlM0H0Zelf7+lr7UkJvKSBE0LSBBlPL92teUPU2Lzrre6vThufyRsrWihFLRdcKhThyJvlioJOamBTNZFuwEcy+TK1A08Vx+3HnuKZI8vCWHDDpNand4R4d2qIpKuByqO15UXwyGlGzFNI6Yp+MWrspOr7k0wehtCAmmgQUQR1lD7tZhYUDxkPnUDhj38IaDrHRmbbaMJ+VSmw8Kv4nfXo5zyigBQ08GxQYyYf8e4RWDHwvtK1kyNtiviy7D8JSjKFj4ij8sMj6K2XNqjDkmUPVWiLMaKiFx5gbjlpzibABXx3yvpMCxnZCd1Rl/n8Q184fYxPexICYVXmAena97HfQ65HbAK/deilys8GRJMlfdw5yvS3mky8Hp70Wa8ywCaIBQmdcTMnHt401VIk4uj6/z3HViApQy+PWJ+TTFpegwB+AXpbnNTPspCGENOfaUAAAAAAAAAAAAAAAAAAAAAAAAAAAAAAAAAAAA=;clipPath=inset(27.78% 6.67% 27.78% 5.33%);" vertex="1" parent="1">
          <mxGeometry x="590" y="77.77" width="146.5" height="55.49" as="geometry" />
        </mxCell>
        <mxCell id="G56Gs_buEpBoTpwi1JfI-60" value="" style="shape=image;imageAspect=0;aspect=fixed;verticalLabelPosition=bottom;verticalAlign=top;image=data:image/png,iVBORw0KGgoAAAANSUhEUgAAAzkAAAEkCAYAAAAMxf91AAAACXBIWXMAAAsTAAALEwEAmpwYAAAgAElEQVR4nOzdeZhU5ZX48e97t6ruphvoptmUHQXZ3AFFjYhoUMS4xBgTTVyIicbMmMnPaGIkJmpMXDDGicmMGqMxM8ZRAZewCmETF8AFkdVmh6b3tZZ773t/f1TfS1UDQiIiNOfzPPU0XV1Vd6mi+z33vOe86v577w0QQgghhBBCiDbCArj1Rz/6ovdDCCGEEEIIIT6zyQ8+iPFF74QQQgghhBBCHEgS5AghhBBCCCHaFAlyhBBCCCGEEG2KBDlCCCGEEEKINkWCHCGEEEIIIUSbIkGOEEIIIYQQok2RIEcIIYQQQgjRpkiQI4QQQgghhGhTJMgRQgghhBBCtCkS5AghhBBCCCHaFAlyhBBCCCGEEG2KBDlCCCGEEEKINkWCHCGEEEIIIUSbIkGOEEIIIYQQok2RIEcIIYQQQgjRpkiQI4QQQgghhGhTJMgRQgghhBBCtCkS5AghhBBCCCHaFAlyhBBCCCGEEG2KBDlCCCGEEEKINkWCHCGEEEIIIUSbIkGOEEIIIYQQok2RIEcIIYQQQgjRpkiQI4QQQgghhGhTJMgRQgghhBBCtCkS5AghhBBCCCHaFAlyhBBCCCGEEG2KBDlCCCGEEEKINkWCHCGEEEIIIUSbIkGOEEIIIYQQok2RIEcIIYQQQgjRpkiQI4QQQgghhGhTJMgRQgghhBBCtCnWF70DQoiDLXNtwwg0AFrt3+NBf2579EUygtzv930+hBBCCHGok0yOEEIIIYQQok2RTI4QR4gwYxFmKnZlLAwCBeDlPF4FBrnXQQ7PjE7rTI0QQggh2j7J5AhxBAsULQEOaGXkBD7y60EIIYQQhyvJ5AhxhMiuNQmyszlhpiM7cxMY0d1qt8zN4ZXRiY5bZfZ3n5md1jU5gQR7QgghxOFG/noLcYQJlAZ0zuA/DG8MyBnU6yAgCNrWfK9dwZ6mdaAmTQeEEEKItkGCHCGOEIHSUYADmYxGeFOBRgUagwDbAstQEPgY6ExWRyuCKODZPTg41CmlcOw42gfLtPCDAE9npuj5QUBgKAJD4bku2gdT2ZjKliyOEEIIcZiS6WpCHIEUGqUUoDFIg6FRKgAM/ECBsgCDQJuonOyGZvf5XIc2rTW2ZeO6LrFYjOZkEsM0MAyFHwQYhkGAwteaQFkopfC1j2VZOJZDOp3+og9BCCGEEP8kCXKEOEKorKxEJkPjo1QSpepQQRLw0IFCk08QxFGqEMO0CbTBruyNBswv5gD2U+suco7j4LouGIrmZBrHyaO+rom6umqSySTJZJKSTp0oLm6PaVpkgjiF62u062MQtASEQgghhDhcSJAjxBHEoGVammpGGfVg1FOx/WOUasbAQ2OAVUA83pm8/O5AB3RQiMbhcJuiFgoMhWE5NCWamTXrDdasWkNNdTWe71JYWAhAorkZx3HoWFzMaaeN4Pjjh5GXl4/vp1GGBDhCCCHE4UaCHCGOKBpFE+htbCmbTcyuJD/PwzDclvyMAYFBc61iw2ZFu+LBFJeOQtEZUzn4/qFfo2I5Dm4qRQD4BKTSLnPm/oOZM2fT86ijGTpkEJ2KO2LHY3ieS1NTM67r0tTUSENDI6+//hrTp0/niiuuYODAAfhumlgsRhB4+Dor0NtLvY5pmHh+Zs0hy7TwfA+tNYZhZOqBtH8QzoL4vCi1qz4t/LdhGFiWRTqdju5TSmFZFslkEtu28byWz4RlEQQBlmVhGEYmy/gpDGXgem7UACQvL49UKoVSao8ZxkO9UUi4z+E5CHRA2k1jGAZaa0zz0M4UCyEOHxLkCHEEUXgYpsu782dwbP8EppUgnYb6hlq6FOdjqxSm4aFViqNK2rOxfBHrP9nESSO+ivY7YxvtD/lBuptKERiZBYAamxt59n+eZ+fOSiZcMIH+/XqjvRRl69dS9tFGtu/Yju/5aO2Tn19IUVERAwYMpLm5iWee+TOnjRjJ+PEXEOgATUCgg31mdlzPxTRNPM/Dw4uCGx1oXM/FMA79QFHsne/7OI6DUioKUDzPw1BG9N6GgUYY6GitM4GyDvC1j9aaVCpFLBbb5/Y838O2bHzt43mZgDkMlk3TxPcP7f+Prfl+5jhisVi077FYDM/zogBQCCEOBAlyhDiCGGjK16+iqWYnJkXsrNT88MdPUF2b4MIxA7ji0tMpLEgTtz0Mv4qjiwvZXPEu776nOfn4q/FVAUoZh/RAxLAV6bRPbWOCx37/B7p06cLXLr2MHl27svSdd3nzrcVs2PgJNTU1JBIJfD8zWLTtGI7jUFhYSL9+/Rg6aAjr1q1j6tSpXHDROEzTIiBABWAotdf2C0qpaMCmtUZrjaczwU44WBWHN8/zCIIA3/dZuXIl8+bNY+PGjWzcuJGmpiYSiQTxeJxOnTrRv39/TjrpJM444wy6du2Kl/KIx+Mkk0k8z9tnvVeYDVRKkZ+fTyqVAnZ9zsJ/Hy5M0yQWi0UNPZRSpNNpbMtGB4fnlFghxKFJghwhjiSBwcIFS3hr0SzqaztRm2hm9eoE23bA1k9WM3b0MGzDJ2ZpHDSB2ciggQW8+sZ0SrucSM8eJZg44B+6U0qUsqiurebhRx9j6LChTPjyRdTVVvHCX/+Xd959i52V5TSnksRiMYoKi9CBpra2FjfpoQoCatMe79ctZ/OGTZx00kmsX7+eFR+uYNCgQVi2TRAEn9p+wTIt3CAzvejLX/4yixcvzgzibJvS0lLKysoO5ukQB5jneaxevZpnn32WZ555htra2ijoNwwjZxpb9sUAwzAYN24cV111FZdffjmGYexXcNLQ2EDHjh2j17ZtmxUrVtCrV6/DKrgJaa3Rvubiiy9m5syZWJaF67r85Cc/4Ze//GUUuAkhxGclQY4QbVxYM6C15smn/sIrL86gW2mc6po0p592In17LsGxYfQog+OOOwrLbMAihU4naE40knZdevcqZNqsv3DDdUOx/A7EKMgZwH2Rg61w25lpPA71dQl++8jvGXL8ICZceAHJmipe+PMzvPXOOyTdNEf1OIqLL72EUaNGkZeXRywWY/PmzSx9exkvvvQi1VVV+L5i586dvP32Www/bThvzJ3LoMEDUUYAgYGhFOwlmeVrH8MwMA0TrXV0xdrzPBnAHYZsO9N+PAgCKioquOuuu3j++edpbm7O+dw7jpNTk9M626m1Zvr06bz22ms89NBDPPHEEwwZMiQTNLfUbGXXq4TCKXG6pR4snU7nBFKHu+yaJNd1D8vATQhxaJLJ4UK0cWHtwHPPPcfMOXPpecxxFHQ8ioLCDpR2KuKZJ3/G889cx6/u/T7xvBSW6YIVYFgK0zLA8rDz0tSmyli5cTG2ExwyAQ7sGvyF016e/etz9OnTm8smXEyysYGnn3iSd95agu04TJgwgYcffpgxY8ZQVFQUBSFdunTh4ksu5pHJkxkxYgS2bWFZJlU1NSxfvpz27QqZOX0GvgQpR5xkMkkQBMycOZOhQ4fy9NNPRwFOeAEBiILZMOMCmQApO3gJa1CWLVvGyJEjue+++/B9P7oIAYd+4wAhhDhcSCZHiDbONExqGmqYMmUKPXr0oF27Qjq2MzCsrRhGPYaqp08vUEETBAY6SGIQEGiNF3gktEeCNHkdE8xZ8ALH9zqLmFH4BRYKh+v2AEpjW05LYwB4bfo0KqsrmPjt6zBSPn976i8sfXc5VizO5Vd8lQsnXEg8Pw/PT+O6btTJSWuN5/sUdmjPv916K5MmTWLb9m14zQnKy8vZWFZGTVUFF4wbhylXmo8ohmHw2GOP8aMf/QjTNHfrqgYwePBghg8fzpAhQygtLSUvL4+KigpWr17N8uXLWbJkSc6isoZh4Ps+P//5z6OvrutiKAM/kJotIYQ4ECTIEeIIsHLlyijToUyDAItNW+tI+b0pcNK4iSpMTJR28FSmyDnt+dR5Hp5tUZWowG4XsH3TOjZs/YgB3TuCp77AQdmuQMf3fYIgYHt5BfPnL+Caa75Nh8Iipj7/PAv/MR8zP8Y3r7maL180Dtu2SaUSLQPVzHQypVRm8KoApchrl883rrmaRx95hFgsRl1NNds2b6Fk2BC2btlKrz59v4DjFV+UyZMnc8cdd+RMDwuCgPz8fK688kpuvfVWjht4XFQ0HwRBZqpikGk6Yds2ZWVlTJkyhcmTJ7N169bocwfwy1/+kuLiYm6++eZM5z6pvRdCiANCpqsJcQQo31GO7/s0NzdTVlbGlh211CaKeXtZJbXVAUHSBN+ksa6ZuupGahoSVLlpqgOXNTvLSRkB2kyS317zyow/EagaDMfPrG8RgBElcz6/XynhdlrfXDeJ6/v84b//yJe+9CUG9evHsiVvMvuNN/Btk3EXjuPCr4wnUNCcakYrg8DY1TZgVw2FTxD4oANOGDaMnj1606ljCXlOjGRzgvraOjZv2Jg51r2skSMOf2E9jeM4TJ8+nTvuuAPIfE7CKWWDBg1i8eLF/P73v+eYY46J1kIKf+5rP8r4pFIpevTowS233MLcuXMZPnx4NKUtbCE9adIk1q9fH02NC5/bFimlcD2Xe+65h9mzZzNv3jzmzp3LtddeK+3VhRAHlGRyhGjjTMvEiTkkEgm6du3Kzp07caw83FTAq7M+xjRKKS1J4ORlAhkVg1RaU+WmqEo2U+9rmgOFiwdWgq3lH/PG0pc57fiLcaxOaFTWoP9gXYbWoDLbsmybBYsW4TgWw08+hZ3bd/Dqq6+R9lwGDx3CZVd8FU/7+NrDC3xslRvgtBYOME888URWfrgCpTVbNm+ksaGJ5uZk5ljb5vhTQLSmzSeffMLNN98crUUTLlR5/PHH89prr1HaqTQKZvYmXCcn1KtXL2bNmsUVV1zBjBkzSKVSGIZBU1MTP/7xj3n++ecPxiF+4ZRSDBs2DNMwSaUz58A0TZmuJ4Q4oOSyiRBtnO/5DBs2DM/zePzxx/ne979H1+5H0764J30HnUWteQyvvFfFvM3VvFlVzduVO3m/vpKNySYqfE1DAGll4msT3/SIl3q8svA5djSsQ9mJliZjBoHSBOrzC3K0ytyyAymtwPV95syezXmjx9CuIM6016ZRtukT8gvzufHGG7BjDkoZGMokz87f6+uroOWmFKZhkh+PU1xSQq/evVHKoL62DjeZ+tyOTxwaLMsinU7zi1/8gu3bt+cEMb169eL111+npKQEyNS7fZogCKK6L9/3SafTFOQX8Oyzz9KnT5+o4YDv+7z66qusXr368zuwQ0B4Li0zE/j52ifmxKJaJ8+Xxh5CiANHghwh2jhf+/To0YPrr78e3/c566yz+MW9v+S+Xz3AD/79Z5x0+iW8+VE1b31SwfoGl81pj3LXpcbTNLouybSLl0oT+D6BnyIVVOEZ5Tzx3K/Z2bQGz2rEN9OgvEx25XMMdELKUAQ6k0F6+92lFHUs4dj+x7ByxUe8+eabBJbJ+IsncFTPni2Lcvr4WuN67j5fW/uZx3meT2FBAR2L2qO1TzKZaLNTiMQuvu+zevVq/vKXv0QZHIC8vDz+/ve/U1RUFLUC39fCrkEQ4LpuVDdmmplaneKOxdxxxx05tTlKKf73f/93v/Yx3KfDTTg1tKm5KbqYkHbT0RS9sDmDdJgTQhwIEuQI0caF06+uvPJKDMPACq8s6zRKmfQ56kT69hlOVZ1NXZNFMojhqjjasAm0SYETp0N+Pl2KCulaXEiHPBM73kS9t4pH//wTKpNr0WYDynRxDINAB9Gg5YAOVloCqKSXRJPJ4qRcj49WrmLEiOGYKObPfYPmVDP9junL6DHngKHQBOggs74NgbHPfQrb/tbW1tKpUyeSySTa1xiGGdVQHMpMw4wGi+FUqbBepKmpiZ07d7Jp0yZ27ty5x9oPpVQ0AN3buj7h/WEmIwiCaCAfDlbDAe3GjRtZsmQJixcvZs2aNdG+hLdwH7TWOVO7QuFrep4XDe4ty4q+b25u5sMPP2T+/PksXbqUurq66D3Oft3sxgHZwUtrjuPw0EMP5QQgpmlyyy230KdPH0zTzExhawlwwvMV3vZ0LsPpWGHGAuDqq6+me/fuUZc23/eZPn16VJcSns+9MU0T08iaSmeYpFIp1q1bx5IlS3jnnXfYsmVLdPzZ5zw8r633PTvgSqfTOY8N3yvP89ixYwcbNmygvLwcz/PwfT8nq6W1xnEcPM/b7RiUUti2jed5uJ5LPB6P1pQqKCiIPgPZNVDZwo6O4WuEbbmbmppYs2YN8+fPj44diF7btm1s297r+RRCtD1SkyNEG7d79sFABWCg0Rj4gWLUaefz/otvE69NYxc4mSJ8U1OUl0+3Th2J2wam8vF8n+7dikmlDRoaNXVVSZ78n7u55rJ/p2f7wXguoJzPtTDfcZyWxRMtHMdk87ZtfHncODZ88gkbyzZQUJDPeeMuIL9dO9yW6S+GUuiWQe6+sjE60NTV1dHY2MiA/sewZNFCEskkBXkxevbs+bkd14Gig8wAMxyoTps2jZdffpnFixezdevWaFAImc9GcXExQ4YM4corr+TSSy+lpLgEX/uYtkmM2B6zFb/73e/44IMPSKfTWJbFOeecw7e+9a1o4Dlnzhwef/xx3nzzTRoaGoDcq/MjR47k8ssv5+qrr6akuAQdZOpdwoUhs9+j8DUNw8BxMu3C161bx3/9138xZcoU1q9fn/P4IAjo168fF110EbfeeivdunUDYPny5fzmN78hFouRTqcpLS3lt7/97W6D8IqKCqZNm5Zzv2mafPe73z0gQXsQBOggE0CNGTOGZ599NvrZe++9R3V1NQUFBVFAbRhGFPiEAV9YJxQ2E3nyySf529/+xgcffJCzuCZAu3btGD16NN/5zncYO3YshmFg2zbJZDJ6nWxht8EwmEgmk0ybNo1XXnmFuXPnUlVVlRN82LZNx44dGThwIN/4xjcYP348nTp1yjRWcGJ4vpfz/y58/QceeIAVK1ZEr3XppZdy+WWX5xxnOp3mpptuytm/O++8k379+hEEAalUij/+8Y9MmzaNZcuWkUrlTifNy8vj7LPP5oYbbuDCCy+MzqdkioQ4MkiQI8QRxtQABigDIzAggDFnjuVPr/8njfU1JNq7OIDCpUtBITY+juVjWRo7cHEChWMr8uIORfmKaquc12ZM5srxd9De6Y/Sn/5rJWgZj6r9HGcE0fg1M9AzLQPX9TGAuoYmOpR0pLBdO5atWUuisYmOXTtzyvBToy5q2m+5Im9ApoDo0zdsGiarV63mmP79qa+vZ9PmzQRBQF5+HgMHDtzHs794tm2TTqeZMmUKd9xxB+vXr49+ZppmdMU+HEhWV1fzj3/8g4ULF/KrX/2Kf/u3f+OWW26Jplm17nhlGiYLFy7k9ddfj66Q5+Xl8e1vf5u1a9cyceJEFi1a1BKI7npumM0AePvtt1myZAmPPvooTz/9NGeccUb0mNYD0OxsUn19Pb/61a+YPHlyTkCUnbkBWL9+PY888ghPPfUUt912Gz/5yU+oqqpi2rRp0fOOPvpoHnrooWifQrNmzaKxsTFaxNP3fb7yla9w9NFH7/F8/LMcx8lkBk2Dhx9+mF/+8pf4vh8FFcXFxVGWKhaL5WREw6+GYeC6Li+99BI33XQTTU1Ne81MNTY28sorr/DKK69w/vnn89///d906dIF27Iza/O0Op4wM6S15sUXX+QHP/gBtbW1Oec5PDfhdLyamhrmz5/P/Pnz6d69O7fddhs33nhj9HnL7hgXBAGWZbFw4UJmzpwZ/axv37589atfjc5xGGA999xzOfv3ve99j759+/Lcc89x6623UlNTEx17eCzh96lUihkzZvD3v/+d888/nyeffJKuXbpKcwMhjhAyXU2II46Rc7NUjPZ5neh51DGkkopUwiCdCKivSZBOe3i+i++nCHBRhodppIjHAwryNHGniZJSF+Vs48VXJ9PkrUNbtaDSwK7pPp+lTqf1NKBAK8yWQVD59h2UdCgmnUqwddNmbDtGIpHg/t88yH/98Y+8/tp0qqpq8AnQatcg2Ah2DRhzi8cNKisrWbduHd2POopl7y+lpq6KQGmGnTiMwAgOSs3RZ9HY2MgvfvELvvGNb7Bp06acn4VTjsKv2dOntNZs3ryZH/3oR/z85z/fLUgJpd10zlQi13WxLIuVK1cycuRI5s+fH021yp5ypZTC87xoCpNSis2bNzN+/HgWLlyIoYw9DtTDgfHmzZsZMWIEDz74IK7r5gRr2YPp8DlKKerr67nzzjv5+c9/HgUsIdu2c6Yfhs99+aWXo4F+2Ob5+uuvj9pKf1au6+JrH9dzad++PSUlJfTu3Ztu3brRrVu3nGxEIpHY49RPrTV33303V199NQ0NDdF7Zdt2lClpfQ4BZsyYwZgxY6iursbXew7YbCszXfM3v/kN3/rWt6itrY0eZ9t2pq6opVlCGORmv2/btm3jhz/8IQ8//HB0LNnvFewKXFtPV8ye3hYGUK1prbnvvvu49tprd8sqhZ+D8Gv4+oZhMGPGDM455xxS6VROVkkI0XZJJkeII4xWLevaBC1z3w0TcBg24CTWbn6fRDIgL88m0QRax/C0j2EbKFPh+eC6GkgAKeyYBYFPx84GqYbN/M/UX3DN5XfjGH1wVDHaA5RGo0ERdWLLFnzKOCN7EKK1wjQNtIL62jo+/mgVC+YvoP+AY/EaE9RWV9OxqD3lySYqKipwXZ9PNmxhztx/0LtfLy6//FK6demKoy0MP8D1U7jaxbFMfKVRho3naZYvf59evfpQXrGDDz/6iKZEgpJOxZx34QUYlokXAOhDaq2csL1xEAQ89thj3HvvvQDRYLdXr15885vf5Nxzz+WYY46hsLAwWjPprbfeYvLkyWzatCkaiD7wwAOcccYZjB49OmcgHF6Fh9wMSllZGWPGjKGmpiaqQRk3bhxjxoyhe/fumKbJ6tWrWbBgAXPmzMnJIDQ3N3PFFVewZs0a2rdvv1sdkNaanTt3Mm7cuJysVLgg55gxY6LtOI7DqlWreOedd5g5c2Y0Ve6ee+5hwoQJOYGC7/t4npdzHI7jsHTZ0qjrmdYa13U5/fTTo+lTB2otlzBbEdauhLLrRva2rXvuuYdnnnkmekznzp0ZN24cZ555JiUlJSQSCd58801ef/111q5dm/PctWvXcv/99/PAAw/scbqa53s88sgj3HPPPdF9Wmt69uzJddddx4UXXkhpaSklJSUkk0lWrlzJ22+/zSOPPEJFRUVUy3PXXXdx4oknMmbMmEx9V1bntDDQzv4+DIL3VJeV7d5772XGjBnRuenevTtjx45l9OjRdOrUiaamJhYvXszLL7/Mpk2bcrJIa9as4c477+TBBx8E2O3YhRBti7r/3nuDW3/0oy96P4QQB02mAN9At2Q3TFJWEws+msGkh/6NTr0VHTuZpBtqObZvZ3p0Nygq0OTFTAxT4QW7rq4aAWhtkmpyaWr0cJsKMRP9+folt5GneqG9wkxgEgU2xm7Bwf4GOYZh4/se7yx7hw3rP2HIoKEsW7YMz0sz9uxzeOqxx2lOJKhykxzVtzdnjDoTw7DZtm0b6zeso7qumgvP+zJjzzwHG4UO/ExWxghIexpPGaz48CM2fFLGsMFDePGlF5g5cyb5+XFGj/4St/7w31oCiZZ92keQYxom54w5h/nz50fHUlpayubNm/f/rdoP4fQ0pRSbNm3ipJNOigb3SimuuuoqHn/8cRzHiQbWYfYqXOelrq6OG2+8kSlTprSca4ORI0cyb968nMAgvCp+2WWX8eqrr+ZkTsKB5Ne//nUmT55M+/btowF7dkZnw4YNjB07lk2bNmHbdnS1/u677+bHP/7xblfXTcNk4ncm8qc//Snn/vHjx/OHP/yBzp07A0RZhTDDUF9fz29/+1seeOCBqBFDeGxaa/r06RO1bA4H3dXV1fTo0SNqOqCU4tRTT2XRwkX42t9rdutAaj1dr76+PjrG7P0HKCoq4u677+a73/1uZnqbE0MHuQ0GHn30USZNmrRbvcr27dspLi7e7Xxv3LiRwYMH5zR6mDhxIg8//HA0fQ5aCvoDHQVoVVVVTJw4kenTp0evde655zJt2rRon7MDmAkTJkSPVUpx++23c9ddd2FbLZ8Z7VNdXU337t33eH7y8/OZNGkS3/ve97Asi3g8Hu1LWMP1u9/9jp/+9Kc5jTDi8TgrV66ke/fukskRog2b/OCDMl1NiCONETYdaPn7rn0NvmJAn0HgWSRSAWkNnrKormmkodEn0RTQWOeRaHDxmgO8Zh8v4ZJOutBS82KaYNopGlIf8dK039CUXo8Ra0JnTe8yAo3xTywYGgQBvs50NnN1mpenvUxtVS1jxpxH166dCXyPyspKkslk5oq49ulQWMTmjZso376D3j2P5uzRZzH+wvEMGjSImbPnMOONf+AaikAZGKZDoE2ceB41NU2sXlvG4MGDWbV6JR+8/wG2bVPYrpCrrrqKeCy+awB6CGVxPM/DMi183+fxxx+noaEhmlY1cOBAnnnmmSjACYvVU+kUnu9FXceKior44x//SGlpaTQgXbx4MWVlZfu1D2GA87Of/Yw//elPFBUVRUFCOp3O6eTVs2dPZsyYQadOnXKmI02dOnWPrz1z1kyefvrpaAoSwHe/+12ef/55OnbsGJ2DMPgwVOZr+/btmTRpEn9++s9Rx7xwX2HXVKnsQG3t2rVRgBMGPv3798fzvZzMwxcpPJelpaXMmTOHW75/S6ZromVFQWs4ZcswDG699VZ+/etfR88P34e//vWvexzkP/roo7ium7P46e9+97tdHeJaBcjhdrp3786TTz5Ju3btotf6xz/+wfbt27Ft+4AV+zuOQ5cuXZg1axa33HILjuNE9UyGMjCUEWU1/+M//oOHH36YeDwePT+VSvHiiy9Ga/UIIdquQ+cvtRDiIMkdrCmlMAKDkoISHKOQtKvwfAuUTUOzS01NmsZ6RaJJ05V7klEAACAASURBVFSfxkvozK0l0NEpH1wfdIARJCjKT5BIrGP23KeALRiqORNYBRBlkf6J8Y5pGPi+x9SpU2lfWMTIkcOJOxZLFi9mwfz5bN++nS3btpL2PRKJBLFYjIodO/j7q6/xwgsvsKlsI7169uTCL49j8OAhzJw1h/fe/5jANGhKJtFY1FQ3MW/efPr3709dXV001akgv4DLLr+MLl26oTXR2jyHEsuySLtpHNth3rx5AFHm4gc/+EFOFiMcAIeDwubm5kxrXSvTIetrX/variv1psmSJUv2ax9M0+S0007jpz/9KWZLq+1wqhdkrvpblhUNPvv27cv3v//9nKlZy5Yt2+Og+957782pI+rTpw+TJ0+OalA8z4u2l0qlopoh08hs69LLLuWHP/whsPv0r9bb275te8798Xicnj17EovFcjIoX6TwPbzvvvs48YQTgdxaq/D9zW7vfeONN9KzZ8+cJgDLly/f4/G8/vrrOXUxd955Z5SFCXQQrWsTvqdhHY3v+3Tr1o2vfe1rUe2O67q8++67u30GW9cYZd+nA40OcmvHsm/pdJr77ruPU045JZqOGdbvpN00rudGx+66LjfccAO9e/fO2daKFSuizJwQou06tP5aCyEOkuxiXQMVGASeyZBjTyTZGJB2LSwnn52V9dTWutTU+jTWByQafNxmhU6A6ZtYrkmQTEPKxfE1eQHkoTG9aupr3uWtJc+h/ErMwMNSFgQWWhFlkfa6d0FmbZtMfYfJvHnz6Na5CyNGjMAyTKa8+BL/938vArBzZyWrVq3BtGN4Ggry8vnqZZdz3bXfYuvmTfzv/z7H6tUfE3diXHTBRQwaNISXpk6jtqEJJxanviHF66/N4aiuR1PgxJg1/e+sWrUSlOa4QQO4/PLLMQwDz9Mcir8yXdfFsR3Kd5ZHgUJ4GzduXE4nrOwC/XC9Esg0EwCiwWBYpP/PZHJ+//vfA0RTmLKLwMP7fN+Piv3HjRuXk8kxTZPy8vKoNkMpxfLly1m0aNGuaXamyaRJk3AcJyqADzuNwa52y0EQRK2LAf7f//t/lJSU7HVQGz4ukUxkjqHlcclkktLS0pz1eT5vrdetaZ0BUUrRr18/vvnNb2KYBp7v5RTSB0FmLRtf+yilogDt0ksvzcnwbNq0KcrOaK0xlEFdXV1O3ZPWmosuuijnnIbvq6/96H0O35tUKkX//v2jxgRhcwnbsqN93FOQ0/p49/SY0JAhQ7j66qujwKp1a2rDMHZrqvDlL385J2O3adMmtNbE4/E9rhMkhGgbDr2/2EKIz40RgGo9XUwHKB1gEadvj2PAtUk1+biewnLy2bqjgYqqBM3NAamEwm3y8ZMar9EjSPrQ5GE0JzETScxkEpVM0N72ifvllH08m48/mI4ya3C9JP5+NGC2bBvf8/FaBq5L3lqCaVqcOnw4eY7NlJf+j3n/eINOnUoYdcYZTJgwgTXr11FTV4vnuWzfvp1tm7dw3LEDeeDXv+bMUWfw0gv/R2X5TmK2yfBTTqKoXT4LFyyisrqO//mfv9G9azdK2rVj/pw5LFv+LrGYTd++fbnllluyzx5KmXve6S+Qbduk3TTbtm0jLy8vKvzv1KkTxcXF+3x+WGcT1rH8K3r37s1xxx23X4Xcgc4MTvv27ZszsPR9n/r6ekzTJOZkAqE33ngjJ4NSXFzMxRdfHD1+f6Yc+b5Ph/YduPLKK/+lY8vLy4v2IbcT3xdDKcV3vvMdINN9bV/C6YLZwUeY9fI8j2QymelEFmjWr19Pfn5+zm1fstfxMQyDLVu2RG2gDcPINCIIdE4w0jqgaB1ofFrQcdlll0X/bt1Fbk9c16VXr17RdoIgoKGhAcMwdqtTEkK0LRLkCHGkUDpqf5w9dDBthWnakFacOmwEOgXJJhfXDYjnFZFMKSprkuysbqIp4ZNOB+ikzkxVa3YhkcZMujjJNHmuRxEGcT9Nnt9M3Ktg5Xv/R1P9UoxYAmUae9yfzD5pFBrf87Bti1h+O+rqGti+bRsjhw8nCHxee/015s6dS9fOXRgx4lS+fuWVnHfeeTQ0NFBTX4enNVWVVfiux7N/eZqFC+czYcJ4TjrxeN5cvBDfTdG/dzeO7lrKovlL+MPjT9G3b29Ki4tYtmQRb86bh5tK07lzZ2655WaO6n5Uy95l/6o0OJR+dYYLcg4bNoyqqipc1yWRSGQGrHn7HqQ2NTVl2nGXl0fF/a3XndmX0047Ddi/TIfne+Tl5VFQUIBt21iWFWWUwhbTOshkFmbNmrXbdjp06BAFUzrY93QjwzBIu+loIcxwQG6aZlRjYhgGlmntcdCcSqWiaWD7s72D4dRTT43qcPZHGPiG5znMvoTnwzQy2Zzhw4dTVVWVc9uXMABNp9Ps3Lkzp5lAEGQW7MxuE/1ZnX322Tn1Wfti23a0uGp4zGFXO8ncCNG2HTp/qYUQB1lmwNHQmBnkmpgMPGYQyrXwEwG+p3BihTjxdiRSAZW1SeoaPRLNBolmcBMBQcLDSfvkpQMKXE1BWhN3fUrsGKWxfAp0gkJVybIFL2B45SjduMd1ZlRLzY4RgPYyU1Cam5qYOWcOp48cRSwWY+k7b/H6a6/SrVt3Rp1+OhMmTKBdYSGlpSWMHz8ey7EJDEUQaD7++GO06/PuW29zx49/TFlZGUvfXcrOHdvJz7Po3bM7jmNSkBcjwOX16VN5Y+4c6uprKMjP57rrrqNPnz45bW8PZWGxfTh1y/M8CgsL92tQHgQBzz33HGPGjPmXO79FGSS17z8p2R3V0ul0tOhouC/h8bieyyeffJIzMP7Sl76E7+3q1LandVRaC6dSDRgwIKfrWNiEIaz/8LWfk4kKB8AVFRVRY4PW7a3/Ff9MALm3x3Tp0gXY/xbI4TnIPl+u60ZTwjw/07wibJGdfdsfDQ0NPPPMM5x++unRdLcwYxRmksL92JeweUAYmLXO7ITZIaXUfmdisrM2YRt03/MlyBGijZP2IkIcKYJMX7PcYYsmFrMBjWkpCu0iTjvpTOa9Nx1lg0lAXixGbUM1tt2OLTuTeEmTDo6mtEARNwPy4zZOOkHcMAhSPkqbpBoa6VDYDnyTWNwnUVXGykVTGHz61/FUKb7Kj7JJqtW4Jxx4zJs3j+MGDqJrl66sWbWSv/3tb3To2IEBA45l7JcvIC8vLzNAcz0uvvgitm/ZytJ33sX3fFKJJEuXLqd33z707dsf13VprK+ntraW5uYUXbqUEotptm5fx+atq9m6eRP1NbUUtS/i2onXcsaXzsRPZy1m+k90hDvYtNa4gYvjOFGr5nBwalkWTU1NUZvptWvXsmLFCjZu3Mi6detYuXIly5YtA3YfgP4zA8AweAhav5l7kL0YaPZ6NGEtTvb2a2tro+9t26ZTp07RvoYF9vsS1he1b99+jz83lAEKXM+lb9++0f3h+di+fXvO/n5WYUG9Yzv4gb/beQ/XzQm7he3p+WEmJmwg8Wn21PY6ezpZdF9LDU9YqxUGJ2FQGr5XK1as4L333mPDhg2UlZVF34eyg9hwf7OnRO4p4GndeCD7PO3p+LLbQe/r+Fs3jMjezoHq+CaEODRJkCPEEebTiv5VYHDR2K+w6J35JBuS1Nk+eZ0LaNehI+WV1XQsKKCyziVleKRqEjRbLp2O7oyFQz4BdQ0N+KkE6VRA0jexMShfs4GS7jHWLZ3B4BPOwMxvh2/EszaqMfSuKWBKwdatO6ipqePss/tSW1fLq6++ilKKdgXtuPTSy6KBSziAVUpxzTXfwvU8Pnr/AwJfU11Xy+aNm9i6dRtdunclFotRXV2NaRiZqSqGTyrZwJZt20gmk7Qv7cidP/0pQ4YOIZ1O45ixg7IuyoHgOE7U9jcWi+F5Hg0NDSxdupRXXnmFN998k7fffjvK9IQBQjgYDQOasFvZFyksak8mkzQ3N0f3u65LLBbD1370uD0V5u+JYRjEYjHi8Xg0eDeMTMYgnBqnlKJbt267veaGDRuix2LsXzZib7LbO/vaj2p8sjNunudhKANPe3vMxP0r29/fgDXMxoXnyPd95s+fz8yZM5k7dy4rVqyI1s8JW5KHrx3+n8xeqyi8P8zIhF9b75MU/gshPg8S5AghIkZgMOLEURzXewjvb34HIy+goTlNPC+fwo5QXr4TXdAeZZnE7Xa4ymPj1jo65ysKSvJRmKS9AM9T1NY0YyqbfLuAik2bwGlk1aIpDDznaJRRSPjrxwjITGELDLQywFAsWbKEEaecSp4TY9acOaxdu5Z2HfKZ+J2JtCtqh5/V/cpyMnUG+fkxbrrpu7w69VVmzZpFUZBZq6U5maS2ppaAzIDMtCx8rdGu31KL4HPWmWdyw8Qb6Ny5M+mUj23FsMxMy9xwUH2oCoMay7TAhJqaGh577DGeeOIJtmzZknMlO+ymFbbcDVe8/9KXvsQ111xDKpXipptuAjhkB53Za+4cCL7vY1iZwXf37t0pKSmhsrISyLSQXr58eWbQHtazfYbthgFUGMRUVlXyyiuv5DxmwIABjBw58gs590EQ4PouTU1NTJ48mT/84Q9UV1dnpne1BDTZX8Og2HEcRo0axXXXXUddXV3UsCMM6EzDRBktwVDW1Mrwa1gfdThcUBBCHD4kyBFCRAxtgG/wHzf/mJt+ej21FeVYVoAy8zFj7bBiTeyorsON52HlO+Tnx2hnx0gHAZ5RjBEzSVXXEjdjKC9ABWAqkzw02k2x7t3F9Bk6AadLR7QqQAcmSvmAEfVd27hxE4Zl07NXLyorylmw8B/kF8QZMfw0unbtjut6mJZJOp3Gtix0SxFxYGgM7TNhwgRGjRrFlClTWLh4MU48hmEaJBIJCgoKAEgkmvF9j6J2hfzq3vsYMmxYSy2Lj2WZ+FpjqcyaIPvTwemLFOggWsdk1apVTJgwgbKysiiwyb7y77oueXl5DBs2jJEjR3LaaadxzjnnUNyxGM/3eOaZZ76ow4horbHMzAr2+fn51NXVAZksUyqV+qcDnHBAnkqlok5i4XbCTEnY/cs0TU444QRmz54NZIJorTXLly/nhBNOOCCfBaUUnp+p8fnkk0+YOHFizs9vu+02RowYEe3PwbZ69Wouv/xy1q1bl3Ous6d8xeNxTjnlFE4++WROPvlkxo4dS4cOHQiCgKeeeip6XJgN8rWPClTOlMbw9bJrpA6XzKkQ4vAgQY4QIotBTMU5rvcgvvGVb/HE8/9JXVUC12+iU0l7OnXpTqVZQXllNV7KI2Z2pNBQbG1oZsOmjZjJFL3at8MxLWJY4LqYhiZPmTTUJUk2VLFqyRyOv7A3puEQKBNDgUajDBOUYvmHKziqZw/yHJs33nmbxsYG8vPzuHD8hZkFHg1FoMGwTDSZQWNYRG0EmftLu3Tmhu9M5LobJ7JkyRI2bNrEBx+8T+fOXQkUbN2+nXQ6zQknnMDgwYPR2scMO7/5YKnMWhuHeoADmQG6bdmsW7eO888/P8reQObcOI7DWWedxaWXXsrYsWPp0aPHbq8Rrimzp0LuvdVOfNo6J59FOF1NKUVJSQn19fVR5ilscW1ZFqlUar/en7CGZefOndG0vtbby14A9dxzz2X27NlRBiydTjNt2jROPvnkz3Rc2cLpb1u2bMnZvmEYdOjQIdrvgzHgNw0T13Oj9WPOPvtsamtrcRwnmraWn5/Pueeey4QJEzj//PPp2rUrju1kFu7MCn7CKWlS6yKEOBTIJRMhREQF4Fg2uIqrL7mGMSPORyVjJOo0zfVpGhpTFHXsRPsuXWjCZO32StZXJtiZdKhKxqhudqio0dTWadJNoJMmTTVpjHQm6LETCVYvngl1W0B5WCgCHWCozNd02qWiuobu3buTSqUoW78WJ2YxcuRwjJZg5tOE9UbhgqMaGHn6aYwfP56hQ4fRpVtXPM9jw4YNuK5H167dPv+T+jkLB5m33HILW7Zsyblv9OjRLF26lKlTp/Ltb3+b3r167/b8sH2wUipq5gC7Apr9WcMk6ny1H93V9kc48D/xxBOjIAVgwYIFUcBjW/Z+vVZ4PMuWLdtjN7LWWaFLLrlkt3bHf/zjH6mvrz8gLZAdx8GyLNJumilTpuR0W7MsK2rHDZnuc5+37EL/G2+8McqchQt9nnfeebz33nu8Mu0Vrr/+erp06ZKp7fLc6PORLbvuRrIyQogvkvwGEkLsojSul8JSBjE/zl3/PokvnTCGuFtE1fZaaqvqSSd9CtuXECvuSK1h8X55A6urXarTFmkrn+0NATsboKbGp7HGI1VvoJtMrLRBPmmo2UDZ/FcyeWRfEwSKwDDxtUcymcBQig4dS6iq3JmppdGaESNHYjsOQbDvaUq7Ah1NoMC0LVavXUe/Y/pjx2Ps3LmTjz58H9dN079//8/3fB4ESilWfrwyWlMmHGCOHj2aKVOmMHDAQGKx2F6neOlAR1ffk8lkdH/Y3epg830/qgE56aSTMvvYEoS98cYbJBKJaM2a/emuFq6JMn/+/Kj7XHj/njIOvXv35swzz8y5r66ujoceeuiAnI90Oo32M4txzpw5E9gV1OXn53PiiSfm3Pd5C2u01q1bx9y5c6Ntaq0599xzmTp1apT98zwvWqg1fF7rc+K6bvS+hN3R9nYL7ek+IYT4rCTIEULkMFquypuYtLOL+cVtv+LCMZdhqyKa633Kt1bT1JiifcdiSnv2xuhYwie1daytqmF7KqBKxSj3THYkNDtqXaoqUuzYXEf1jjr8hhR5qSQrF82H6nKwIDAUPgEYJlu2bKGkYzGOZZNINOP5HqWlpXTr2nWPV433sPcABAqCln/XNjTx4cqPOLpXT3zPZ8GCBTQ3Jzj6qKM5uufuU7cON6Zh8v7772NZVs75ueuuuygsLMxccdd7n/oUNi3wPI+KioqcTE3Yynh/B6kHYrHMWCwWDZQvvvjiTL1VS7vkqqoqZs+ejdYa0zT3a52UIAiora3dbWHRvQ2qTcPk9ttvzzmXWmseffRRysvLP/PxQaZd81//+lcqKytz3pfzzjuPwsLCKMCxzM9/RrnnecTjcRYsWIDjODk/+9nPfgZkjt/zvagrXOt6mmybN2+OMq7hgqWWaWFZmcVWLdPKWXg1eoy158VYhRDiXyVBjhCiFZ1p62wYBJ4mX3Xg1utv46sXXU2+2REjZVC5pYKqihpMR9GxexHFfTvTXFDAqtomPm5Osqo5ybrGFPVmHonAobHBw/DjpOo8/CqXmg3b2fjmQvCbUYaPDhQom0CbxA0Hww/QvkaZBj169MC0rMz3xt6v9CpltgzOTUwzM+APDMVbb73F0CFD6FjUnjWrVrFo0SKCQHPS8FOi6UDZy7t82vSs/bntbR2OA32lOnshxw8//DAKSCBTpD948GB8L7Meiq/9aMHLvbEsK2rVHdaDhAPugzldLbuF9THHHMOoUaOi5gEAv/71rzN1OnrXWjlRTY2R6eQVBnxBEODYDpMnT2br1q37t33f44wzzoiySOHAO5FIcMUVV5BMJjENMwq+9kc4iA9t2rSJ+++/P5oWFzYZuPnmm3Pex4PR2c9q+b+1fv36aJFNyLyn2Vml1u/33i46ZGenopbS2s9ksL6AzKAQ4sglQY4QohWDQCsyi4JYxFQ+cQoYNfwMmuoTKGIQOFTsrKOxrplY3MYpjFPQpSNOl45UGQFliQSblcGKugaqnTySBUVsq24mlVB4TYp0VSNvzZwOfgpTa5QyAQPXbWl1jEYromJ4N53Gti3MT53jn3muZSpcN9Oxbf36Murq6ujdsxf19fXMn7+AhoYG2rfvwBmjzoja2h5MnzWIitZWaSmKN4xM57jsQadpmhQVFe1XZsWyLBLJBEuWLGH58uU507kORk3IvvzkJz8BdhXiv/vuu/ziF7/INFywbQKdyXgEQYAyFIZpRB3nlFK8+tqrmce3fJ9dL7Kn7JbRso7Sf/7nf0YttkNLly7l+9//Ps2JZpLJ5H4FrmGAFgYQzc3NfOMb32Dz5s05jznnnHM49dRTD8Qp+6e5nhutSRSekz01PshukBB+VUphmRZaaxYtWsTy5cuBXdMmw6A1fKzne3i+F51XrTWe5+F53h5rpoQQ4l8lQY4QYpfAQAUGKrBapnsZaO3i+kmsQGEpi3TapznpEaQtqnY00FTrYgQGVlxjttPEi9vhd2jPNstkc36cN5MNrPDSNBYU0uAaNNSnIZFm+3vLoaIctEIFmWxKfkGchsY6XN8jnp9Hx5IStm4vR2Pga43vZwKgT7t5vo9tmzQ2Jnj7zbc58/RRFLTL4+2WQTwYfO3rVwEclOlAB1p2u+OwiL1Xr17Rz5VSJJNJVq1atd9XzrXWTJw4MaqhCK/UZw/kD9Z0tdbOOussJk6cmJNheuyxx7jpppsoKyuLsh3hIqdhYJZKpbj//vu54oorcrp+7asmJ8wCnXDCCdx55505xwjw7LPPcs455/DJJ59EWZ5PC3TC98A0TSoqKrjkkktYunRpToG+1prf/OY3xOPxvb7O5yXQmX0P6258f1dXwdra2t2yOK2P1bZt0m6ayspKrr322uhcZy/Wa1kWjuNgGmYUXGZ3AGx9nxBCHAiH3194IcTnK2gZaLSMawzDxNAQMxzynBhpU4NySDSm6derH4GXIFBpgqCZvHYxtIaidh0piXVh/fsfEYs5uMkkCc/jKFORF4O46dHoVTBvyhOc/f3bSeMTNwsp7lDEzp07SCaTFBQU0bX70dTWrmTduk/o3//YzGArXDy0JXNjtDQj0C1TpTzXI9mc5Pm/Ps+os86ksLCQDWVlzJnzBg0NDZx/7lhOOP4kDPPgTAdqrays7DM9P1wTx3EcTNOkW7dunHTSSTlT5QzD4C9/+QsPPPDAPrMxjY2NXHLJJaxfvz66L5xqdChkcizL4v7772fu3LmsXbsWyAQMTzzxBFOnTmX06NGcd9559OzZk3Q6TXl5OYsWLWLatGnU1NRkFvs0DC655BJeeuml6NjCRSpbfwbS6TS2bdPc3Mztt9/Oxx9/zN/+9rdoX3zf591332Xs2LHcfPPNfO1rX+Poo4/e6/StsLbp2WefZdKkSezYsQPI7Tx2xx13MGDAgH12D/w8hI0nTj755Gj/w2N55JFHuPvuu6P79sTzPBobG7nmmmvYvn17Tle+IAior6/PLNprWaTT6SiIzF7HSWsd3aQuRwhxoEiQI4TIYQRG1KEMNG4qBYaiV7femNqiXcc8XD9NHnGGDz2V4uL2vDbnZez8OIl0As+FDu2Kefz+J9nw8UZefuUF5s77O6v9Wujagd4FFpu3lJFMNvFx83u0W/caAwafi+cbdC3tTCqVYmdVJd27d2XgwAFs3bqdKdNe59Z/Pw5TKTw8VCbSAR1gxZxMnYQJKdfFUBYzZ87m9NNOo3ePnlTtLOfFF/6PHTt2UFpayoUTxqMso+U1stZ6OQiNnSoqKhgwYMABe73HHnuM66+/ntNOO42BAwfy8ccfA5mB44MPPoht29x+++3Ytk08Ho8G8OEUoldffZVbb701aj3dt29fysrKMM1MW+lnnnmGa6+9lt69ewOZq/bh6vThVK5wxfpw8Pp5DNQLCgqYNWsWF1xwAevWrcPzPJRSVFRU8MILL/DCCy/sdRBuGAaTJk3i1FNP5cUXX4zuz14MtDXXdbHtTIvqJ554glQqxdSpU6NjM02Tbdu28dOf/pQHH3yQkSNHcv755zN06FBs28ZxHBoaGtixYwdz585l4cKFrFmzBti1dlG4sOk3v/lNfvazn2XqqzxvvzrGHUiGMvC0x+jRo+nRowdbt27NqX8yzUwjhlgsFq2pY9t21Knuqaee4p577mH79u1orRk0aBBr166NztWzzz7L9773PQYOHBitu9M6GJTuakKIz4MEOUKIVjRGABqDQLXUKJg2ptWRY3oNZF3FCmzbARdGDDuDYwccy4zXZxOYAZYRYAF5diExXcjQY4dz3G0nctU13+KNJTN5ZeqfKe5SzDEn9qFdfkCno7qyqXklDes0o/p/hQCHYScO46OVH9L9qM4c1aMXgwcP5cMPVjB16mtcfPFFmKYDKjNIV6Yi5XoYlk1gKNykx9y5s+nXrx8DjzuORCLBzJmzWbt2PY5jc8cdd3DUUUehVECYCTrcha1877nnHi677LKc1sP3338/zz77LKeccgq9e/emoKCA6upqKisrWbBgARUVFdGA9vrrr+eqq65i7Nix0RSlyspKTjnlFNq3b893vvMdbr/99qiGonVNRThd7EALs0ndunXjrbfe4sEHH+T++++P9mFvA2OlFPF4nIcffphrr72WRYsWAexzulpr+Xn5PP/880yaNIlf//rXOdOsgiCgrq6O2bNnM3PmzJyakuzi/Oyv2bVO3/72t3nooYcygaJhYpjGQc/muF5me0EQcO+993LNNddE080A7rvvPp5++mlOP/10evToQWFhITt27KCqqoqFCxdGHeccx2HixIlceOGFXHDBBdF5qq2t5YQTTqBDhw7ceOON3HHHHXttXPF5fH6EEEcuCXKEEECm1gWIpqmFlFL4WoFrc/MNP+T6//ctHMfilGOHc8YJ56IwueKCq/nTy79HxW0Mz6Bf74EEgYNj5mFjMLDrcfT6Sg/ylOLl6U+TLAw4urA9Wyo20Cm/lPKtVRxz9FA6xo/l+JMH8/jvn6R7j+4MHTSUoccPI5X2eP/9VTz/t5cYe/45tG9fiKEUsZiBn0nosHrVGt5dupRTTjmRY/r1p6mxlvnzFrB4wZukm9Pc8N0b6N27F2H3ONrIRWOtNZb5/9k773g9qjrhf885M/PcEm4KNUBC6EWRBXQVEHTZRUHDKitNpcS2rqgrYEPZF3exrL7iUgVdlN6r+CoC0qWE0CGhhzQSCOnt3ud5Zs457x9n5mn33tzc5IZy8/vyGZ6bp5yZOTNzzu93fi1i4sSJ/OxnP+PUU09t+nzuEkpTgQAAIABJREFU3Lk1S01hxWkV7k877TROOeUUtNbsueeePP744zVLTU9PD1mW1QLn+xJGW7PLrY9zLCxG3/ve9zjqqKM499xzueeee3jhhRdq8S2FkjF69GiOPvpo/vVf/5XddtutlsBibY4vsxlaa3784x+z9957893vfpfXXnutSVlqtPAANeWrMTYFqKVobm9v50c/+hFf/epXa78xkXlb3APb2tqwmSWzGUceeSQvvfQSv/jFL0jTNGTms5Z58+Zxww03kCQJaZo2KW1F33//+9/n1FNPxVrLjjvuWHMtLOKk3nzzTXFFEwThLUWUHEEQeuFUXQeIoghlFZnP0GmJTdu2ZJ99PsiXPvsVSq4D0HzqoKMg8vzust8ysnM0Rx76eVwKVZthvKdqUzAljvrUF3lm+lRemvUk8xevoKeyiEM235xNRm3Mw4/ey4f/bhRjxmzLHnvswYMPPMgWm2/B2M3G8v4PvJ+urjFMmzaN3190CTvsuB2bbbYZIzpHsGLlCl5+6WVGjR7Fgf90ECM3amf58uXcd/dd3Hnn3ZQr3Rz2L4fx0Y9+9G3s0fWH1hrnQ/zMSSedxAc+8AF+9KMfMXnyZJxzlEqlmptQ4eZVCKkf+chHOPXUU2vFL7XWXHLJJRx22GG88sorQBDcsyx72wTUQrCuVqt0dHTgnWf77bfnrLPOAuCNN95g1qxZLF68mCRJ2Hnnndlkk03o7OgMtV20QemQ1WxtlJyi34wxfOYzn+Hggw/myiuv5MILL2Tq1KlYa5ssONbaWmrrxoxu3nu6urqYNGkSJ5xwAmPHjiVJEqy1tfinOI7fUktOEQ/TGJf0wx/+kAMPPJAf/OAHTJ48GahbpYpsfo1xNwcccACnnXYa++23X83d7uqrr+aoo45ixowZNQV1sIhVRxCEdUX9/Kc/9Sd95ztv93EIgvA2YrQhsxnlcplHH32UqVOn8urMmYzfZjzjttyKUaNGsWrVKv5yx628Nv81jj3uWDbeaDQbb7wZu7/3vaAc9z50L+ecexb77bsv3/rGyUS0oVFgHU45lFaklHFxxv9efh6Tp9zNTjuMZ5vtt2LrLccS+xiVdfHBPSeifSfnX3Ae1jo++clPMH78BJx1vP76m8yaPZfFi5fRXSkTGcPmW2zBVlttyciRI+lsb+ONebN58G/3M+XhySxauJCJn5zIMccdCyYUHfQ2BeVqxUJ7CVNu6CwRzzzzDKtWrRqy9qB+vNZa3vOe9zBq1Kimz5Mkobu7m+eee44777yTp556ikWLFlGtVimVSmy66aa85z3v4ZBDDuE973lPU7B50a73njvuuIOnnnoKrTVdXV0cc8wxjBw5kizLeOWVV1i4cCFtbW1479l8880ZO3YsHR0da2yN8N5z//33hzTQudC8zz771LJsee9rCkMRIxSZqCmOpsgG11f/tAbR//KXv6xlS0uShJ122onHHntsrYXpLMuYOnUqt956K08//TQLFizglVdeYf78+RhjGD16NKNHj2aPPfZg++2355BDDuF973tfU1zTmtDT01O7DkVwfmPtoIEUiCiKqFQqzJs3jzlz5tT6Y/To0ey0005NGeIKZSYyEdZZnnzySe666y6mTZvGnDlzatdmwoQJ7LTTTkycOLHPGDPvPd3d3dx33308+uijdHZ2Mnr0aI444ghGjx5NtVrlqaeeqinfAFtttRXbTti2SeHKsozHHnusqe3ddtuNrq6uQSmsc+bM4c033wwKnbV0dnbyvve9T2KABGEYc+YZZ4iSIwhCQCnF5ZdfzuzZs7n//vvp7NqIzo4OvHUsW7YsrI53dpKmKTNnzmTMmDGMGjWKww47jGeffZbbb7+dJEno6enh2GOPZbfddqNUKqGUYtddd6Wjo4PUVSnbKlGs6e5ZjNKWJImIFSwvLyRSJdqiLXHVEtZWOf/881m4cCEf3Hcf9txzDzbZZDPK3Q5lgtuPdRmlUoksTVm0eDEvv/wiD/7tPqa//BIuq3LMZz/HJydOJGkrkWUO6z1G+bdMyemz/XWkEP4LRaCvWibOOZI4IbNZLUi8+KwQZo02NYWh8f0oimp1S4wxNTexxviXxtdaCmClB52trhCoIWT5KixP5XKZOIpZumwpTz/9NGmaYoyhvb2d97///U21XPpTcgqK4/7CF75Qy5IGcMQRR3DFFVcM6niLgqeN/VYkWyiuR2E5KywYja58RZzLYO6JmuKRZ3bz3teywhXXaiCKRYzIRLXaUIX7XmNfNh5ncW8V1r9GpbFQOhvTYBcU/dN6XRrb10qTZmm/CmnjubfSqIytCYUlsHgGSqUSWZaFhAs2E4uRIAxTzjzjDHFXE4QNnZpvvdIcffTRKKVob29nwaKFPPfc80Ra873vfY8Pf/jDLF68mCuvvJJKpUKpVGLZsmW8+uqrLFiwgBEjRrBkyRLGjBnDo48+yt13383KlSsxxvDFL36RQw45BK0MxkXExHSWNgYcNvX4SDEi3ohIa1wWoTVoIr578ne48qrL+cuf/8STjz3KNhO2Y5sJOzCicxRRHGNtleXLl/Paa68xe9ZsZs6awYpli5kwYVuOPvJI9tprL7y3eUxJcF0iUiFN9lsk2wz1anFjQcbClaygUaAuhMhKpVJPl+xtbZW+CDhvjbMpXgurjFa6FuQfRVEvYbUo7Gixgw4eD/FeFqPrlo0ijbB1lsWLF3PQQQfV3L7GjRvHiy++CATlpVQqDejeZYxh5syZ3HHHHU3vf+xjHxu0+5r3HpfHrhVWAaUUpaSEdbbJulJYXor+7i/F9JpgtKkpUo19tqbJHoq4Iussyofr1mpJak1BXigrjZY2oBanU7y2ZoPrT9Et7o3ifi1+Z4zBO19TvrzztTb66rPBXrM0TdFKgwn3jLMhBfv6SpQhCMI7B7HkCMIGTiHUFIKDUop58+YxdqstmTlrFpuO2Zj29nYA5s2bx0YbbUS1WuWBBx7gH//xH5k2bRqnn346WmsmTZrEYYcdVhOGn332Wbbeems23WTT2upuHCV4H7I6RSYiy4LQGMd50LZLa3VKglDnefPNN7nhpht55tlprFpRxsQlTGTQWmFtxrIlS4mMYedddmH//fflwx/en406OnHeYUxYaXc2BHcXWdXy8jrr3ZKzPlxi4jiuKTB9WXK01jUhsjWts3Ou9vu+FIQiTXAhpBdteedr1pbi98WKuPOuFlsy2BTIhVITRRHOutp9UliV9txzT55++una988991wmTZpEe1t7nxaDVpIk4ROf+AR33nlnLelCkiQ89dRT7LDDDmsVo1MoXXEUU6lWanWLKpVKUx9kWVZTxPqyuq0JRWpupUKRV6VULXZnTdo02lBNqzXBvmiv8Xxaz6+49uVymVKpRBzFwd0032dhDWmMt+mrneK1OP7CemhMXWnTSmMig80slWqllrq71WpYMFjFpDjv4rwKq1ZrUghBEIYXYskRBKHXyqj3nrFjx4LzTBg3vum7W2+9de3vww47DIBHH32UQw89lIMOOogdd9yx9rnWmj322CO4VzWs7qZZhvYag8FbT6Q14PDW5vV5dK1oYMiCZth887F8/WvfAOD5F19m9qw5LFiwAJQjimLGbbkVO++yM6NHjc4VmfqKskstBoWKoDFtdFEXp1XEGWqVZKiFqMYsYv3FdTRm/OrlTpSvwPd3bNbV4zxas5a1/r74fvH+2gjxxTkUClPjcWVZxmc+85kmJeeb3/wm3d3d/Pu//zvOOdra2mrWgcK61FPuIY5j3njjDb72ta9x++231wRy7z0nnngiO++8c7Aa+MEXhK1lUXN1S0aRfa5I6V18r9Xda7A0WuqK/h1Mm9bZ2jEVxzqQYlcoJsXihnU2JCUsrIR93FutsV2tlsGindZYIucdLi0WOuJe7a0rrX1VHMNQ7kMQhHcmYskRBGGdKARLbXQt+1JBvwUavQaK7zUEkjcUIUXl7/t6e0opvNL5arrHGE2kguXB5xYYbZoFbZ3HT7h+5JlWQeedHow8kGC2rivfg/39uvbXQO075/joRz/KlClTmgTkbbbZhokTJ7Lffvux9dZbs/HGGwMwf/58pk2bxn333ccdd9zB0qVLa8qNUoqdd96Z++67j66uLtI0raV1FtaOwT4/63o/CoIgrAliyREEYUgoYjyKlLiNPvxNQo1ygMMpDT4fflSWKzINSo/qu1BnCNzOXahMHuCMJo5irLPYzNaUGmF44Jzj2muv5cADD2TGjBk1hWXmzJmcd955nHvuuXWrgGu+9o2FO51z7L333lxzzTWMHDmyl9uWIAiCMLwYvG+BIAhCA40BxGma9pnWtxGvwCtX3yj+XY+T6Y/C7cTaULwwuCatIrMh1sL5gTNNCe8uvPeMGzeOadOmccopp5AkSc3FstFFqq97rlB6urq6OO2007jtttsYO3ZsLZ5JrASCIAjDF7HkCIKwThQ+78DAwbxe12NgavJli9taqxWnD6uONqEB61Pi2OB9PUalvyxWumV/dfe11u8OPkbjncS6WicG+/v1bQ1pLJD5n//5n3z961/nlltu4dZbb+Wxxx7jjTfeaEplXQSYb7HFFuywww58+tOf5uijj2bUqFHEUUxmmwPmhaFlfcSgvZWI4isIwwdRcgRBGFIGFEr8+hAuGxIKqDUrsii8eygseN57Nt9scyZNmsSkSZPQWrNy5UpWrlxZS5XtnKOrq4uOjg6SJCEyUS2d9mDr+AiCIAjvXkTJEQRBEN4VKKWoptVajRyAESNGMHr06FCrx1riKK4V64zjmHK5XCtmWlgZJRZHEARh+CNKjiAIgvCuwRjTlDq7sWZMo4JTKDVxFJNmaVO9GkEQBGH4I0qOIAhDyjqvkg/2963eb2uYXE33UydHHJre2bTeX601VwolpvG9xno1giAIwoaBRF4KgiAIgiAIgjCsECVHEARBEARBEIRhhSg5giAIgiAIgiAMKyQmRxCEdWLIA7kHqgjai+bvuwF/voZBO+9QJHB+cEh/rV+kfwVBeKcilhxBEARBEARBEIYVouQIgiAIgiAIgjCsECVHEARBEARBEIRhhSg5giAIgiAIgiAMK0TJEQRBEARBEARhWCFKjiAIgiAIgiAIwwpRcgRBEARBEARBGFaIkiMIgiAIgiAIwrBClBxBEARBEARBEIYVouQIgiAIgiAIgjCsECVHEARBEARBEIRhhSg5giAIgiAIgiAMK0TJEQRBEARBEARhWCFKjiAIgiAIgiAIwwpRcgRBEARBEARBGFaIkiMIgiAIgiAIwrBClBxBEARBEARBEIYVouQIgiAIgiAIgjCsECVHEARBEARBEIRhhSg5giAIgiAIgiAMK0TJEQRBEARBEARhWCFKjiAIgiAIgiAIwwpRcgRBEARBEARBGFaIkiMIgiAIgiAIwrBClBxBEARBEARBEIYVouQIgiAIgiAIgjCsECVHEARBEARBEIRhhSg5giAIgiAIgiAMK0TJEQRBEARBEARhWCFKjiAIgiAIgiAIwwpRcgRBEARBEARBGFaIkiMIgiAIgiAIwrBClBxBEARBEARBEIYVouQIgiAIgiAIgjCsECVHEARBEARBEIRhhSg5giAIgiAIgiAMK0TJEQRBEARBEARhWCFKjiAIgiAIgiAIwwpRcgRBEARBEARBGFZEb/cBCG8HA+m27i05CkEQNiBUP+OKL8aj8Or7+17RzEDjk5e1O0EQBEGUHKEXouAIgvAWolyumKzh2NOoxAygEAmCIAgbLqLkbJAMIBgMJDjISqkgCIOlGDdq40vDOKPWtBFNkyXaN3wkCo8gCILQgCg5giAIwtvAEC+WyOKLIAiC0IDMChsASZKglAE0kUnwXq1m83inmja8RmHAa5x9u89GEIR3Ml41b5l3JEmCxYNWWO9RRqOMxnqFJ7xar8gcGJOgtMI6R5qltXaVVmgDSnmsTQGHtRbnHEqZfGzSvfbfugmCIAgbBmLJ2QCoVjMAlAozvML0/2XVtxTgffilxOwIgjBYUmsxWqO1wZgYm3m8V2gP+LDaphSgwKbgfAmjwOiwAXgXvNN8BjgNWlFKErLM4aynVEoAqNoMGacEQRAEUXI2ILz3VCopxsSr+VLvAGBjNM57tFJEJiKz1fV7oIIgDBuSOCHNUrRSVKuO2GhwiiWLM+a/sYipz77AsmXLWbhgCcuXr+T1N17HZpZqtYq1GZ2dI+jq6mKTTTaha+QIdttlR8aM2Yhdd9uBEV3gMo2OoFJx6JaQHUEQBGHDRZScDYDIhMtcqVQo92RMnfo8+NVd+mYlJ4oMaVZh9OhOdtltB4IUISulgiAEC7H3vuVdnS+YBBfX9qTEwoUVJj88hYcfepzJDz/Byy9Nx5gSWdUDGqWi4BqrTHCbzdss2nfeAQ5ne4hjQGXssstOvHf3XfjYxw9kt912YZMtRmDQeSIDlycjqI9V1jkiJVqQIAjChoAoOcORIstQHoib2QylFFpHPP/ci3zu6BPAdfTz436UF13liKM+zk/++1RM4WNS7K4fFzdBEIYTjcpBGCeU9ngUHjAmwtoMYxLwUK3CimWWyY88xeWXXcfTT71A96qeejt+BNYChfusC+/rmmtsGFcKV1mdKyc6ivDegofnn5/HU0/N4Npr/4pWir32fi+fO+YIPn7IPrS3a1IL3liSJBybdx6vfb6P0J5S+ViWj5tOTEGCIAjDAlFyNjgicG3gOvv/SmsqVq+BHvBJ/d+SrlUQNni893g8SinS1JPECVkKSxZnXHrJ1Vx6ydUsW1ZF0YZWbSgf5xaa1YwfrUahXmhqU5cHEyVoHWNtxuNPvMJjj53Gduduzd9/cHdO+PqXGbddF2nV4QCjGxdkimOQRRpBEIThiCg5giAIwhrQh2LiNQ5LbNrBwZtvWC696EauvupGFi9aAj7CuZDd0XlLqVSimqYMpctrFAUFR2uDsxaXxcx6dRHTX76Dq6/8E5O+cjSTvnAEW48fDb4KLZabWrKVWh2fITksQRAE4W1G7PIbDHKpBUFYR5QDleWbAzRGtWFTmPzQCxx5+CTOPef3zH99Bfh2tGpHUSJNg0JRLpeH/JCyLCVJErz3WAtJ3IF3MS5LiHQXl118E8cdcwI33XAnuARciXrMkCAIgjBckVF+g0IutyAI64bSFmsreG+pVjOUV5xz5rV8/ugTmP7SfFAGkxgcoUYOQBwFp4H1Eb+ntSFNM0ATRRHWKxwaE5ew3uCsYe7cFXz3Oz/nO98+gyWLMuI4xphSH+n0ZYwUBEEYLsiIPuxpWbH0kmNVEIS1x+iYJCnhbUwpbuPbJ53Bmb+6EFwnbaUuaFIc3Nsev+eIwCd4286N19/Opw79LHNmduMtQCQWHUEQhGGKjO7CgDhV3wRB2IDxmnLVkWVtaJ3wg1PO4cbr/wKqROYUldQG64hvycSmGjaa0zoPHUWMTfO+nHWsXNmNd4pId/DGGys56qgvM2v2cjwapzQOnY9xklBFEARhuCBKjiAIgrDGtJU6cFbzXz+6gBuv/wtKd5JWg9uYc7aPmjnw1tXVci0baKNpbw8p85UyOBsxd85ijvjM8bwxrwdcRG0qFCVHEARh2CBKjtBkqXGqLzFBEIThj27YcpTDexs25VAmxln4zflXcMml15LZBJcZ4qgtfF35plY0oJTOt/B3r33URpmG95usMc3H51SxFdbl1hGreTOAchajPN5boiihUoVFi1L+5V++yOtv9JDZCK8cJjYoHVJir+0mCIIgvDMQJUcYFF7c1gRhw0AVBT8VcRyjlAGvmDNzFWf88gIUHdgMimnE+8EuieiW14ZlFd+saDV/3s/yS59WmLpSpVSw2GSpw5gSNo1ZMH8VRx4+iWVLKhjThnN2kOcgCIIgvFMRJUcYkJp1R5QbQRjG9K1AeOdZtaqHLFNkKXz+mK8RR2NCDZwmS0rvVgZWexqtN3lq6uL9VkWnV0xPyx58o9LU3waWDDRYD909jnlzlvHzn51H0NE0Ho1X1DZBEATh3YkoOYIgCEK/KK1Ikja8i7j+2juZ+errdK/yKJ3k7meNDJS9MSgm2jdsVNGqB61WodUq0KtArwivqnXrAZX24cq2JvvOv6VNfl6ajvZO8CX+cNNt3HLzPVTLZo3aEARBEN75RG/3AQjvfLQHVP4qCMLwRjW4jClHEidUK6CAX5/7e7wtEUft4EB7jW91MVMQFIXc3U0pnLMopUmSGJdZvM1I05SkpLGum93ftyMf2mcvdth5WzbddGO0NkSRQeuYZUuX88KLL/LwQ4/wwguvsHJZmTRVRCbGOo3CEJkEE8XYzJL5jNXbkDTgUcqT2ZQsTSmZhNP+4xfst9++bLJZCY/De1+LsWlMpiBxN4IgCO8ORMkRBoXy+TqnzPOCMPzxmu7uVSjamDL5Rea9tgClOlFK4b3Du4Ed0goFx3tHz6qVJLHDY9l2+7F85vBPcfwXjqDUBp0joFKxeBOUC60UwW0N/unjH+Lr3zwePDz+6HRuuP6P/Pn/3UalXMW5GOc1rgrWWjCeuh7S1/GZJkUlSRK8cyxbUuXSi2/gW9/+PEZmRkEQhHc9YpcXhGHH0BZ81V6seBsyxkSUkpi/3nEvoFHaoXTIuNaLpiQBRcB/UHC0NrR3xGw00nDaf/07d9x9BSd95wjGbAJJm6dcqYJyGBN+b11GZlOsz9DaEUWeKIa9PrAdZ5x5EnfcdSNHHPVJ4sSijSOz1TxBQuv93zsuJyhPIRGBd4osc8RmI6664mZWriijlMY6RxTF/aTEFvrnXVZwuk/Xx2G0v2GMWFWFgXgXjUSCMNT0lc52bX679o/Ru1GAap5Y3mUCzbuUt3cy11Qq8OQT01AkuRXHhmxqjcJak4JTJ0lKZNYSxZ5NN9+IW/7f1Rw76VMkbZD5jNSmaJMRJ4Yo1hgTEUURxmiU8qAyHCnWV7G+Qlu7wgNbjx/BT39xEj/971PZauvRRHFKNe0GWjO99S9Qeqdw3mF0jLOapUu6+d/fXk5Pd0ZkYtK0ylA968K7hWF+nddZyXpn9Y8oOsLqeOfcqcJ6x7Wkf279d8FAU/q7vy5Efma+YWusz2E8FkslK4Px+Pw9tAKt8EqTObBehUxMaKxXYcPjFagoCHBeOawNBRK9VzgLNvNEJqkdh/bN21ATRRHOOWxWjzFozFaV13sPW261Uc7jspSsWm7+nodIm/w4NUkS4Wxw+SnOqa/7QylFFAXh1XuF94osy1Cq3mcYX+u31KVESYIyBq9cvhUZr3S+vb3Zr5T2KO0xBowuAtZ7PzkhJsVhtCGOYwCcc7gGVy+lVGgn35zL8N4HVypvQTmsTYkind9Lq9ts078HK9QU93TR10onLF2W8tSTz4FPUNagnKrXv9GELf93M5os88SxYfOxI7n1L1cxfsIotKlnRgtKk6odr3Mp3mco5YkiRaQ0BpVvhix1wVVOZWjjOPKzH+Hyq85j7NZdxIklNgrlwSiFqY1PjZnY6pnblPYYXbivOfARV1z6R7JqCe/y930/Y0V/90V/NXTy+6W5Do9p2OrfKyxaWVZpGmONNvkYFO59HYXnz3vV6/5TSmG0wajwLId7qm596/08hW1IhVjlcC7DmDAOFX1ebMW9WavF5C0WH7Z8TG3MdNf43BfjQuv9XTxvxfNl0wxvXW0MSpIEm/l62+Rb3r7RUT5WhlivYrzq+zmzxLEJ1sfaeRQLV71rTg2FBcd6BdrglaaatZ5/7+vWZIlXDqXC84jxlKuVhvE178/V0voc9HGftJyn9x5rLdaGe1AZQ+YdqbV0V8qgFZl36CjCJDHKxPV7sde4WrRpa/ePxoVnPf9vXWpcvTvlGWF1iOexIDTiNdZ6krgd7wy4GOfAoFCAUlCuQCkBE4HNwHswjQNwbUE7AcDosAFYwiRfqaRoA1prcENpzWlIvZun982yDGPi2kE4m9I0YUAe/1BfFdM6H/BNTK+VcJ8HlXtNmnpAh4r3CmITkeV9Usz1ixYtD0KHdVhnc8HBM3rMSDSKuNTYNiRxkv/pSbO01ndvOy0B+YW1ILN5EHzqMJHBZuE+0Tp/VWBMTKUMbW3g0gTvw2dGg3XhGthaN4c3PI40TYkig7WhjSxzoV7N6g+U2n2gHJAH4iua0zKvIVorZs2cTRy1k6UeXVNkCsVh9dnUqtUqJqpy8aXnM3JM/nysq7BXnJfSeGLGbdPF9TdezJGHf5HXX1uBMUl+35v69/usvdPrbFm2pJsbrruNY79wMOQCFNDQn0PwvLYeT8MzpolwOKrVjDgeEaxNNtxPWkN3j6FUCsqwzSCJEqwDmxLGqih8z+Tfxxu8ifFa5UrOW+EqVRd0tdFYG95zFnyeJTyMNXWhUumin0Mv1JNXFMfcj0BdfD/vU5t5TFRfTIijBOtc6ButKfdkRHFCatOGhsL+nFNk3hJFMc56tILIxA3f633ts8wBJr+etn9BeYgWsIwJCx0KQ3t7hE2zlvZ1//e31zhnqWQpXhviJMHl45heTwK+Ugatolzp1vl8ajAxxKYdm4Y+7l7paWtTWAvORWgNcRzGT+/zcdKHBZXIBCXZunTgAxA2aETJETZA8gkznwiarQEan0VUMjA6Ydlix9TnX2L6K7N58olnmT59BksXLWfZ0hWsWrWqZo1onFS23HILtttuAh2dbWy33QT23Gt3xo/fmu2234wkAZcpkjgmc/nKlmoQSpuOcSgILj/ee/C5oqaT2qfFqfuGV+8tCoVSCSiP9mGF0oUfo/DBwmIzyuWM9rZ2nIVly2HKlGd44P4pzJv7Ji+//DLzXp9HpVLB6OCGpI0mrWQ4LFp5ttxqLBMmjGfnXXZkn30/yK677siYzdqIYvCkaNPaL0PZN737qjf5vmr1WRrul8IoZiJ6KhZ8RM9KePbp6Ux/ZRZPPvkk06dPZ9GiJbw+bz7WBatBloXV7dFjRrNJXfFqAAAgAElEQVTVVmPZdttt2GXXHdh33w+y8y7jiWJNlCREkSW1KT5TuaC1ZkKS8g0CoYfBJwlpVGKCID1nzhzK5TJtSUeTBWr1vw9txInnXw6fyLbbjagp3muPa2gj7Me6DO8VY7fq5KprfssnPv55Vi6vYExCtZIRlaKGe8jRu0MajtdDHLVz51/v4fPHHQzeYaLc+lFT7gZSMtfgHGpCef5WgwJdtaBVTFKKsSnMmb2SJx6bypNPTmXhwsU888xUli9fzsoVK7HOYrRBa51nozOM23pLJkwYx3t334Vttx3H+/bYjS236kIpiOKIjNbsc0P9PPXdniIijoLK4l1Ddxaf55el9rYHj8kXFBq/WSg/Ov9O007QOiGrhne1NliCQcB7qJQ9JolIM4eJNM6nTcK90RqjFM5BHCmyjGaUatqf8+C9wXuP1gqUwdSUsv6tK+vS595blDJ4bymXPVrFTZ/rmpIY6BU5ZyK0Dm6gQeltsO6vThEr7tcWBSpYYn19Pq15RYTjcM6QxIpqBRYvgrvvnMy0ac8z/403mDptGlpp5r0+D2cd2mgqlQrOOkaPGc2WW27JmI1Hsf1227Pnnnuy/Q7b8Hd/tznVikJpizYGp3zD/gShGVFyhA2UVtcVXfNbWLUcLrnkSh595AkefewJqqmqBSnjY7CgVQR04m2GMVGTsPLG3G7mvfYMcWy4yz0M6nJQGdtMGMeee+7Ofvt/gI8esC+jRpdwzmKiBiVJNU6Oa3leLSv23ntsBi+9OJOnnngWEydNv1CNs7ZyGK3QRmNMjDGeiZ88sP4lH1Y7tQLrYtKq5opLr+e+eydz/32TUZQwqjPvL4AOItWJt540K84tTMo60syZtYR5ry3hgb89we8vvBpPyiETD+Kzn/s0++2/O0aDzxr75i2gZgnrf7UfNLjwunx5hWlTX+bcc/6Xac9OZ/mycrAC5t+N45jIjALnsKlFoUkixarl8OKyubz43Gxuu/U+zvrVhThSPvbxAzj4EwdyyCcOoL2jDR1DNbeU/eEPt5Olq7ckNF/PKocf+QlQ1bXuDm1gxoyZRHG0BgpO68E4tIFPTjwYDzjtUYNtoxfNv9da4ZwHZRm/zShO/vYJ/OS/ziRLIUnacAM+T81WgixzPPjgFCoVR3tnBKSsXmAdLC0WJa/D8+INeIgUPPzQS9x77/1cd80fWLZ0JYo2QGOtIjIJSkVoRuGdBa+wmSethOfrpRdf5+UXXuOO2x7A+5RSm2KHHbfjc587kn0/8veMHz8yjBEKQvHV9ftcVSoVOttHMmf2Ah579JngYpX3gc+t2E2xicqGvgBQlfz+bRXVG6wWjRYMD9bCi8/P5eWXX2blylUsWLCARYsWYq2la3QXSWJ47+67ctDHPhzc/BqEY+89Cxct5b57H8TbdqKonSytNByba3LxLo5fG43RGm08hx76DxRFbcMCU/HlxnGlUNQGT5pmtLcnlMspCxcs56EHnsrH2/o42V+iGKfCMXuqTNh+c973vp1JkoTCMr9a1vjzYq4M/3p8ygs8/NDj3HH7vUyb+jKGDpSKyGxY4ItMhIm6cC7DWo/yCUlk6F6hePH5uXg/m4f+9gyXX3ozqIzttt+C9++9G4d95lA+tM/uKEPDoCcJHYRmRMkRBkTnwv+wybDVILwaFZPZYOF45OEZnHXm+Twy5Wnq7hLtqJoSlE/MWuHySVZHSfNSYv63VhE2gyDQa1ARM6fPZ+b0+fzxD/dibZkjjjyUb538b2y2RTvOWbRJ0crTKkipten3Fh91Y2Juv+NuzjvnIrxNgrLST+0j6xxGh2MYN34Mn5x4ICaKqJarqMigHSxYmHHlFdfzu99fzqqVGRBhzMbgQzxH4zKtK3yzVD6x5wJA5h3KxGFaUjFgUZS47da/cddfH2DrcZvxu4vOYbvtRmO9JTIGt17dE5otfAXBUqfwKrikVMsWrROWL8+4+KIr+c0Fl+KyCGdD3BW+s8FlxZFZTWZzIS3vV1uTfKKwFT6OqsRddz3OPfdM4ayz/pdvnfhvfPqw/YOgpOHEb/0IZ0sYndRdCxuuofOeJuuT7ubwI/651ucDrtY2oXOlNqSBdtblvvCFW1GutOr+2stXdnVG1+hOMjzYKhGm+ZhbVmB73e8tbjT1f9WtM+EQMkBz3KRPcsft9/LYlBdQGFzqMCbEgEVRRJqmxFGM0j7EqjmH1vVYslhpvDLcfP0tHPeFw/KdFv229sIpvjmeykQh3qeagfKGpYszrr3mD5xz1u/xzmCz/NiiEfmwolEGnIX6oKNzIVrlboSFq2OUx18kVKuW56bN5T/+41dAxkEHf5Tjjz+S9//9TrR1BGETMpRWudDeej2bLXsD0ujWSXA/tc4zc9ZcTjzxVHBt4KM+40GBhrjE4v6d2DCehLipNHdF1BiyDJYuqXDLzbdy990P8+LzM1i5sptyuUwcxWijg2DvfYj1MhmHfeYQDjroABSmoS8zUBGbbjKan5x+NssWe6oVagkwlDFNY4ODkDWw8X7VZfbZ505Gb1IijkN9KLylOaZkHReylKVaTYlNzN/ufYwffO+/wRcxnkX7/aO1IXMrOfyof+ID7987+Diu8eJa7314BSaO8c6Tph5nNd7CE4+/xDln/4aHJz+RK2ERSnUE90mvMDosdnmvyNIw9gYX3nye9WEedb5BTPUxM15dwIxX7+EPf7iXLbfalH8/8at86rADiGJAGbyHarVCkoTMiFpMPBs0ouQIGxyRSbDWk6UOh2LuvKX84Hs/Zsoj07CpBtWxml9rVm8Xb3ATqv27YZUNSFONc5prrrmNa667iaOPnsjXv/Elxm61CakvE8esH3wSBAyX4IjB9+Pp7ixheczhfBKE3NQSxQlawYN/m87JJ53CmwuXY1RbHnuk+2qpn+PQ/QjbxequIfUwc8YiDvrHwzn22In86L9OwjvIMkUU5UHi64U+FJz8mNAKhaEUx1z0+z9yzrm/Y8WyFG9HAMGNL/y+sOwVSlN/+9K9//aOtJKC8sya8SanfO90fvnLLq6+6iq22rKEZgRat4OPUORuIp6aX33vc8ldTGrxJGvRIx7efPNNkiQhSwcjMNQVgs4RncSRwlm//txK8lgxrwxf+NJneejB76IBYwzWhgBx7zOUzkJou3dkLg2B6ngiExSdTTYezf77H8AWW27a0va6W3EKRSoyMZn1ZNVgifrtBdfx299czrIlFZK4KyQ9wGIKV9NB3O915aE45nyaz+/J++9+nL/efjcHf+If+MEPT2Kb7UaAiiiXe9Bm3Z3x+sSrMP74BFwH5ONPbxotM67ZpS9/nozRpNUEY+ChB5/lzP+5gCcen4pW7VQrDqXbUCpB6xCr5GpJA4IVOVIWfJLfhjrvmHr/Zhkcd+zxnPWry4jNRsEag6X1Eevz8J3mz3/+K1/44qFBGW2q1zQ0Y5Z3Cm1itIKbb7oNfBv4Us167gZyCbUOSDj++ONaPhhIgW/1L6wr/jYF7zRpGZ59ZjonnfgDXp+7EGs1SncED4iijV4d1zIgDJBx1Ps2othQraZMf3Uh3z3pdM49e3O+eeKX+NSnD8REuqbghMQhq21OGOaIkiNsYGgUGu+C8HPJxX/iV7+8gHI39FTA6JC6FsD1kR5XB7PDGmRBa4mvyS0ntU91CWVK2NRw3bX3cMWVt3DiSV/lpG8fnzustzqDD4bWiSoM9NpF+QqqqVuifOu3HWjVdO7WAxhWLPacffbFXHHZDTgbEcedVFKHbpn8XIsw7VtnGR+1+Ha72t9KKZTVOGsxJGSZ49KL/8h9907h4kt/zTYT8sj1PgX2Qa4490XLiqZHY50hiiJ6uissWrCSb5/8Ex6Z/Cwu05i4g8w5wIfFZlWfxIu5WvWlzDQJFK6pL7z2JKUSaVqhXPHMm7eC/fc/lBNPPBETd5KlCk+IU9A+97mvBVfVhXGVr3rXz2toqF1N1fTSQIPq7DVYw2sz57HzziMJls11lTpar7NuflUZ++y7JyNHdbJquSdNK0SRwmOJEh2kWBzjxo9l5123Z5tttmSbCeN53+7vYZsJ49moM6irSufB/Y4WYXtwx9crA6ByrCqXSaI2Hn/8Vb590v9h7rwluMyQZqU8+1phMVMoHL5hvAkxCP1dz9b3e9973eUME3Vy660P8pfb7uOkk77CN755FJEpoY3H215RHEOC8lG+IFIff3rT4D7ceP82fO4slLvh1NN/xXXX/BETd6LVGKrVKspEJHGC8x6bWTKb1SwDBY5gbXaaXPFR9X0TCtX+08cO4De/voa0onC4fBEhZHisZebLrUtNPa40t916N8cdeygWiBODx7aMK+v2LBoTFp5mz1rFlMlP41TuTVA7tj6Xrmr7zlzKe/fYkV133xbrK3lijb7Gpd6/rZ9nfj4KvItwVjF75jJ+eMpPmPLoVJxVGNMVMvvZot3w2mrBM71GkNb7r/k50trgnUFHBmUjnHfMeW0F3zn55zzyyLN845tHMWH7zbFZRrWaUlpvq4bCuwFRcoRhTy0wMp9A0zz71X+edgFXX3UzlR6D84Y46iRN01zJafGbzlfCnVpL97EGiqBbazUm7iStlCmVNubcsy6mXK5y6g+/AjrJFZ2MoYkDILTj8yDsfMLo7bKWT/TehSKOREQa5ry2lK/+6/eZ/vLr2DRGqZiVq8qYyKDXdmW+H+tCcK9L8gxCMbFuY+arb/L5z36FK676HRO2HQ1E66gIrvkxVioWTcytf/obP/vJWcyfn9KejGKV68Gg80DgIv2oCwrIGssxzQpOQZqGVWelgisTPuPssy5AaxNcYIBCYBh6N9Jm5UEr2GyzzaimZZTL0x2tURthevFOMfnhx/jogbsSRSa4x/QpSBVudg0ntBYZqZSztHdGfHLiR7nh+j8zbuvNee/uu7H5Zpvwnvfuym677cTYLbdg401UUBRNbuzy4LxFaY23DpRHm6gh691gKdwzG923NNWyQhHxk9N/w2UX30Rm2ygloylnVZIYnE3Rpp4K1/XKvjiYA+ot8GptAIW3EEclzv6f3/PIw1P46c//IzxbXvX5XK4zPqQDdooBFMa+rnl97Jr88Et8/WvfZdHCVSg6qZY1bW1JnhHSU6nUY2h0beyH5qxnfVmRwzlHEey883j23Gt3Hn7g2bpQ3vKT4v2m589rpkx+kqVLoWOEI4p9n8/3upAkCdUyPP3k89RiRQv6GU+LPvA+A59y/HGfBRcswCEDYX6f1OaG1vu2heJ7PsJmmksvuoULzr+UhW+uROl2nFU4G4rpDi6ebeA+snlsp9chJXi1HJKMeKu48oqbeWTy3Vx+5W8ZN34LSqU49+9cX5Z/4Z2OKDnCMKRlpVc5FKH+QSWPv/7B93/NddfehFIxngivIqwHXatwrnJZq547v1h9VHmthjoDDaCq4f/BE8z7PDWtgziOg2VJd3HRhTeydNEKfv5/TyZKDDpy+aBenyAGrWT1mvh008TlWr5bZMdJ4gR8GzNeheOOO5k5s1/HWp2ngLYkUesKWW7tGsgdoTkynpB+tTF9bGgrhMIYrPVEpoPXZi3ni8efyOVX/prx244gtR5rqySmxLoogsWuXZ6BruZaoRyRSYg1nP0/V3HW2b9F0U5kEtKsShKFDHNG5W4RzuYChaM5dZTr5+/iAFrfi1q+5omKtNHOY1qHbdX6d12o0jqvQYQOlp01oPa93M3N6FAbqT0p0VO2qNVOG4WLUf38DYarr7iGY475FBO260Jp1eReV6/d1IeFoimJRt+WOt14vECSRKRplf9z2gl8/5R/Y6ORHU19VAspUoSFi8KqqIrPQrIE8KRpHgO2GmWrz1pNDQp8pdJDW1sbmXVEKmbenG7+60c/5YH7J2NMB8p5qj3dNYuoiuouVL4pU1Zh7TRN/+6bvo63ttyPdz7EZmQO7RMefGAqx3/+21xy2fmMm9AW4oWAKFZk1dbFhNVbTFstfY6wqOSLe3MA179mC3oI19M6PBP/9xeXc8HZl4JPMKodlMYojc/S0KJXA6RYDzE0Ko+l8TjqDnqFUmpR2nDQIf/A5MlPg82P14faUDWrc5/jsCEyG/GnP97JZ4/7J7TJsC1aslrHVNLhnoy56qprAJ2Pt642jjRaSsKz5QnDkwcskck44MP7kGiwvkRYSGuhyfLUfL28CskdIpPgHfziZxdz2SU3YFOF0e1YT6hhg8LarKF2Vt/KTrPl37VMF3XLXn3+bLC024woUmRZeE4j3cmcGav49MSv8PP/ezoHf2JPKtYTx7q2WKBaxlupjTO8GaolYkF4B1K/vW0WgkgjHRScG2+8HetjrDO4XgUMW9to3YaKYiIpJtEQM3PLTX/lpz/+LVoruldVhm6fazK5NgiU3ilWrKxw3DHfYO6cpSjaiKPSan++9vTfv9aG9MyR6eDVV+bxb189mbQCWpl8VXqIjkAptKoXn8uqivIqOO+cKzn37N+RVhJwpQaXkLCpBsWiniXKDWIbagpXEtewaq7X7Pq3kgsg48aNw9bSnQ8GTZpaKmXL1756EvPmdpNWFEYneGfyzE597LMPV8YB+yv/nfNBSWnvVHSN0mAqoBu3athUNVgDaxnGhvC6NAhubW1tVKshDuS12as47vMncO9dj4FvI6365hiURlfJopjroBnEdfYaiIh0B/NeW8qk405g1ozFWBsKYPb0vA11SJoKfIYg9iyF/znjas475yLw7fUYlPVQPDnNwn3xz5/6GCauK5ZKrcGasNdkKfz5z3cAYBtzUA+JdSzUcZs183WefPLp5vPvo/3G+ycU7PV8aJ+92GrLBJdBUmr4fdN92PhKw78d1joUEUsWeY793He56MJrqfSoPM5pTcbj/hZ9hqB/fIS1CSuWeb7ypZO47uq/EengTgfh/IUNC1FyhOFJSwplrSOMhvPOvYHrrvkj1arDpiqvFF5Mqq0CTzP1ytEDCUMDC0v9C4sa7wyXX3otF/7mRuJoI+quFIMUvtahwrZSGuscS5YuZc6cOc2TZcuxF/3SVFl7iCj261xwq0jiDl58bg7nnHU1lR7foHQNldLgMPlKoVYJvzn/as4++yLKFUMcJ6ydTtWXojyYbZBnoOg3c9UaUVQ0z1dzHZadd9k+d2FUTfvovR/dS2hXyoBPeOmFORx95JeZO29F8FhThmpKvYo9ocq5z2MmfOPqf/FsrsH9XAQcRybqW4la7zQeoyZzGqXbWPBmmWOP/TfmvbEQHUdY77HeYXGr6U+a2uodY7Pu94vNY3C898yZPY/jj/06b8ztwVqIo74E+4Ges9Ufh6b3mNHv+OFjXAa33fo4v7ngMjSdq2177Wg+H63DOW+8Cez1/t3A5JVYcb3iDfvCGMODDzzMsiUVQhKS/HiHSCFL4oQnHp9KtZrlilfroNR8Ps5ZnLMo5THGc/gR/4zL3TSzSuEO3XrNGrwHVPPz19aWsGqF5ZjPnsBjU17G2ZBBVCnV5CrYm4EWElZ3L69mfC/Gq7x/nQ1FZ5Vv5/vf/TFTn5mLQoeaSeucvl54tyFKjrB61sNK2fqldcVa4zKNs5prrrqLs8/8XShy6TVaR5RKjULyUNSMqK/or+1KbJpalIo5+6wLWbSgp4/g2/VPIcxmaRpW7lTdbW+gcxpK83/RlrWWarWKc+BdiV+f+3vmz1+Os6bJPWXtVr5b9xlRSgyXXnQz551zEYoOknhELU7oXcdA2ZZ60bg6HAoGbj1uC5zLgqy3Foqz1gnOlpg3ezkf+fChfOfkM5k9cxU+A5wJLoI+Bpc0xBmsneBexCBkNqNaXfv6QOuGywstBmX59bnL+dzRX2b6K3PJUltLaWyiaEitkWuDMYYsy8JikCrxxrzlfOVL32LVckeWqQGtBQMz2DmkQZj1mnlz4Rf/fQ7lbkhTv57npDB/aAOZgy99+djc9WrNFBwA56CtrYM/3HwrWVpYhocIHyxbl192TUMtLvrdh/eunp1PZego4x8P2j8s1gwq9q1+PdIKnPK905n27HQqZY9WEZEJqcijOGlWOppcExuf5yG0ZDeVSwh1yazzwZ3RtfHZo74cLMhV9e4cv4V14t0mwQpvBS0rI023ybttjPAaRcK815Zz3jm/I62q4PqkY2ITYasZBo1RYJTHNKVfzf9qWml0KG9xWZVIg8bhbUpWLeNtShJFKO+bhnPlLcpbfL71pnnA1zoirSqWLytzxi9/TWQgitpQypBmQ+M+siZ2A+89URwTRdGglDbtQTmPyzJiY9bZ0lMoWMYYisKJNov5jx/8nMiAxuQVwBV+LUwYaZqFgH7vMSakSZ7+8jJ+/rNzcVkbihKKGO9a218zAVzjmjZvLQaFQeGtRXuIlCY2htgYjPLNv/E6z+bX3/76+ay/gOE1ohBEAOUYObKNvd+/B8Eyowe4ns2CjFYam1m0SvCuRBJvylVX3sY/fOQoJh1/Ojfd+AgrlkMlhcwpKpWULPO1McijqaaQWkXmqFl4arFULVtjoLnWutbXxaY8q92GApXXrLEWsgp884QfMmvmQrRqQ+f1QZQq6tLU7/G+FgiKflbOo5wnUhFpOcVgiFSE9pqskpFVMrTXRDpcH5dlZJVq7XfF1hch+By8V2jVxvPPzeKsM3+LyS1syoQU6pV0MErj2lmWWtv45S9+zfRX5mKtzt1JV0+ontPPpnRN8Pc+3Cuu2JxvSvKgtWOvvXeja2QbadaDUR7swONvtVqlWnHcc9cDJJHC9RozBkctFTLBbW/mjGU88+wrKBM1jBL5/d+rxpemLYlJYkVkHIf+88cZMUKD8vlcFGKTata1puMMm8oVvmpmSbOYX/3yMv56+2SSpA0I7qG2qK/k+5hRWt5TKsSCpaklyxzOWdI0xdoqStfHPuV8bXz01tbGzTp1d2GlizDIYIHSqpizFN0rFF+a9C1iA/VyB8KGglxtYc0YojoR659WFy0NHs49+0Lmz1+K9tEapH9ePVmWobSnXO4ms1WMUXmGJkuaVuouPc4NvkI8QeAwOsaoNq6/9hZenb6ESjlYGNZ11VcxsKKhlF7nFS+tNaVSCbf2qama2tINaWCtCwLzo49M46G/zaDoYoWpF6ocTPum3na14sDBpGNPIK3GIU6qKAK7Dn3inMNaW6/XgsUT/rYuJbNVqtUy1qbr2PdD9ZzWr1thQdt//33wroJmHa6p16RVSKIuFO387b4nOPlbp/GBvT/OF4/7LpddfAszXlmMoQ1cjLcxiphS0k6kSyRxc5KJPoP+32bSNCj3YewxnHXmZTz95Mu4zGBMMghFM6BUKGQa3MoczldJShqlLdZV8KSYyJOUNCYKqZNtngQjHmz63DymBJdw+aU38sjkV7COXCjNKCXtg2tvnQj32U03/ZnYdFJK2onj9e9+2Gj5GLNxic8cfihxEgL+tRl4/E3iNpK4g4cfepw5s7tpFvQHj9a6pui0t2vuuftBtGpHq1Lubt3SdouiU6n25ApNxpFHHEYcUVNw6hTzZt9xPUncRmw24pab/8pvz7+SrJrgbF05bt53y9ZaUsB7jI6I45jwc4fWFm2CN4X3VZS2KG1xroo2IaNcHMV54dq+KPbXskDrNdZqnn9uBmf+6ioi3erpIQx35GoLw5OGgXXyQy9z/bV/BpfkMRx9DOZeE7J8FY9E/4JcFIW0wUkS4nxCLQaD0SZf1UpRyq+1a4+1lu6e7rCK7Q2XXXIdkQYYKHPQOwPvPeVyGe/9kFmeaiiH0cGFxqYlzj7rQpwl+GArnfvTD25YKybPEMOhOefMa5kxfRH4UDQ2ZJwrzmNwLlTe1xVdk6cFzmw11EFRFucqRJHGGIUxRZHTIXTlWCvqQd+gSZIQi3TscUdjirI7enXn3yBwoOsJAVSG0/Vgf+eyXHhLKHdHTH7wBX724wv5xMFf5IAPH8OpPzyf6667j3mv9VCtAF6RrU/vs3WIYWuk1BZTSavYLOKhB57mvHN+Rxy1473CrUUJmkqlEhY+TFCIPd0o00Nql6GjMiO6NCO6NDoqU64uDW5JStfGo74LxfaPtZYkaUOrDk79wY9ZsbxCe8mgddSQKeutQxHi4cqVbpxbH2nj+xLscyVAwccP/gfiOBQhXpOutM4Gl2PauOaaG1hrMSu/HwsFJ4yrcNNNf6y5dIY6P6tvP4kTqmmZceO3Yr99d2iotdnqOlbEpNKkCGSZx3vNvNeWcc5ZF4Frw+gSxvQVD+maE0f0ofR450Kadh9ifKLEgy6jTJWOEZ62Dg+6G8sKojgoO2laoZpWMbpRae/PD6HhbxXic4xq58orbmbmjJUD9pcwvJAU0sLwxsM5Z59PEnfgHFSyFHQ/iky/Ck5RN6KYBKp0dXXwoQ99iI022ogkTsisY8WKFSxfvpypU6eyYsUKjIlD8dDVuhr1xuiYtlJHcNEi4bpr/8DXv/FVRox06MjDOsS8eAYXlL56q0/uKKE8TauAyrHxZiPo6hrBzJkzoWn1WlMPxl27yaawdGQZPP7oszhLzY3FaEU2SEHSOR/SQlc9819fxtln/ZZSsjHVakZarRLXaj00CgWN6FwIadixcqDSkI7ZWXbZZSf22Wcfdt11V7pGdjBy5EgAli1bxpw5s3nssSeZPHkyy5atQBPnQszaKLRDoBy1rrw6hVKw6eZw+BGf5JprbwXaGvbTl6DV6OKqW9oMMV5RFNwMK5U0uHWliiQpkaaK+fNWcdUVf+TKy28kiT277Lo97//AnnzsYwfyoX12gULZL7LHNaWfXj/FLNeUarWKUW0YpTn9P89Aq4Rq1ZHEbbnCMtC029iXDhNbMtfDJpuMYZttx3HoP3+cv//7PRk3bgvaOwgumwbSFMo9MPXZefz1jnv405/+xJIly3IPq1w4HGgVOxdMq9UqUWSYNfN1rrj8Bk74xufhLVdwCvfdUCsojmKszYhNVHMbdT64Q9aOvTtUPEgAACAASURBVOF3fWMbEsy07qv5/JwPrlN/t9d2tHcYnNMYlVCtrm7hRmO0olypYIzmsSnPhAF3tYsCqyfLMtrbOiiXUxYuWMELz72CUhu1KMz9L85VqxlRZNhr7/eS5tNHn0fTquAXRU8xZFU481cX/n/2zjturqrO/+9T7p15njRKKEIKCtIRSAIJoXdEmnREioiirMiysrDq+nPVdXXtZRFZBUVWihQBQXqTQBJ6C72FNBIgIe15nrn3lN8f506fZ2aekM58Xq/zSp6Zufeee+6553zr58tbb76L8INQUmKNoZAU0Fo3vG7j81tkBFoLdtp5B/bffy922nl7Rm66CRtupCnyXAgBc9+2vPnmLJ595gXuvvteJj/8KEJZ8GpAeapKB+PSgnd7+cbXv8uVV/2oZi6vaTH4HQwEHSXnQ4RKgbWZoFv7Xa2gG+pLlP9e3VgZvQjWp3wuYvob83nsiadwLodzgWXN1SzI1eE3YedwWTyvkgqpBc73scv4HTjk0H3YZ9+JbLzx+lQRN2Vj4DxIAU899Qq33noHd94+iRnTFxCpIYjMvW+zuO5mzyBYrByCmN6lhldens64CaPbWo7rK6yHz8rXa74h1T7vyr+FECXrovMJlpRIOcZP2Im999mNHT6xDdtuvxVd3RG5HBQKkIvhuedm8tyz07jxxtt4dMoL4PIIIbONuqwchb+qt+Da+xHZB1IEL8mfrriVUz/3KXQEhbSAFpJmEV++ahyC98c7UELw859egtQxhbQP60DnioXyqo+p/H8kI5xzpCYll4uwNiVNl7LOenlOOe0EDj/iQDbfYgRCQD4fhNEyRqCj7TjTfBKAm2+6jx/98GLenv0+JiWwAmUbcvk5ZOPU7HnW1KoJaO2lDANUfVwcRxhj6St4vv3dc7n1tntYtChBaU2SGGIVV53TVVlU+1lPfLHgKWgp0KIohDuiKMIYhyCPEDE2MUx7ZgbTnpnB5ZfeiI4UO4/ZgYMP2Z8xY7dn5zGbYp1ASBU8chKEDJXWpZRoFSEkK4yEoHb9UzLGGcn//uYmXn5xNlLECCAtGCQqCzGq+H316FBUmgFS28P6G+Q48TPHcsbnP8OGG+do5Bx1gIpgUAS77bkJ4yeezNf/38ncfOP9/OrnlzFn9gKSxCGFRrjy+etvxhGM5R7rPQjN7357FZ/5zIkMW8+TmqSUB1S6dt372Xx+uX7CovqDFgpvLBKZeTvDOmSdDQYP73DOoHQI4UtsL1GkskKq5fVcSRUIBZI+tDLY1NE1KCI1RZr+jFhFhNpdMgwDOQ1nfO5kfvzjS/HW1jH21e2P+IzQxvHo1Kd4+fnZ7LDjJnjA2HTAG2YURTgX9oRLfvtbBFGW5+MbetZK/cn+FSoGmXD6GccF24A3VXtg+fdFZREgqwWX5XhNnvwqf73udmwaoSIwLhhwtK5+94H6OkDeoZQItcXyhiOP3pfTTz+JbbbdHOeDkl6cQpVd32BjxQYbj2Li7qM460sHM+mhJ/jXf/0OM95agmAwaeorwjHLCm7duijJ5rLgkSlP8I8Hn2K33XdECE8Uy/o82YZ5sx2sqegoOR8yLP/q6KsfAn2sxFq49NI/kKYpgjiEOeER1OacVFvng4ITNlCpLWPG7cBXvnom4ydsTZwLm5iQHmNMZsWqYLFxHqk1O4/dgk/s9HFOOeVk/u9PN3P5ZdeC0CSpzfrRDMV4YkBIvJPc9ve7GDv+TJSSq9TwFMbNY2wfOkoZv9sYzv3qFxk7bkty+fAbJz3ep1gvEMphvWbb7Uew5dYjOPEzB/PMk3M595xv8Pprs9Gyu6lC0k5/7rrrPk457VM4FyyEAzXkRwqW9sG8twtcd+0twCCscyglWzrNhAghSNaF/JrULkUKy85jt+JXF/2QESOH4YVB6zCfvNAgq4XtQurQWWz7EUfty6c+tS8/+dEVXHzR5cFD1UZIyoqEs4EpTKiQBHzev5zFf37/Vwh8GO9i/2qEpPLfxf4X37FqZSvMKVvOfSqfBLxCeFU1503ieHTKC0yd8jSeAptvMZKx43ZkwoRxjN1lB0aPXB+TenK54NVLrM08RzFJkiwjDXi7CGFis+cs5Jqr/4qW3SFcrBGJSz+w1oaQWAqMGbc1F138Az6yaQ6pwdikHIkjGrNFGSdABAv2sSfsw9hxYzn7rPN55aVZFFMaKpPZm8Jr+noNf7j0Ks792skouWqDfYJXsWjk0DgMYIjyjihyxDk4+NDD2GnnHdlxxx0ZNmwY668Xk+8KBpd3302YPfNN5r//NlJV5kxWhlgWkXkyJOyy6050d+cwSa51zpyonOeaO26/j622PhmhPFI1EKpb3bP3GOvxRnD3nQ/inWrShwa5OUKw5VYfY+ttRmFcH7qlR67aC+sdXPCv/w9BnnwuR+oyKvd+h6H6PfdYEPDRj23Ef/331xm768fJ5T2FwhJ0FCEqLKaCeqNWaj1SSnadsC0PPHAT//X933PJJdeQzw8LbJs+Iz2gdp2pgZdYL7n6yuvZfY+dSgVvO1i70QlO7GCtRBAAoKurC60lUlikzmKCS4ti1qrCyaLA0uU9cd7x5X/6DFdc9RN223MropwntYYkLWRhJ7JkKSxCypBzYWxKnIMRo9bl3755Gl8+5wSSdAlRNHAJy1jLzJkzUZLVgudfCIGQllNOO4bLr/gJ4yduiYosPb29ODxJkpCmpoZ62pPLQZLC9jtuxNXX/YYDDppAYhYNOA+iUjjzDh5+6BGWLoE0cW0SHVQve6kNu/Uvf3ExWnZjLSgpG1hJ68/trMW6FKU81veidIGjjz+Qm265mNEfDQpOHIeNVymNMfU5BZGOsM5lzeIF/Mv5p/DVcz+P9UtBFGhWv2lFw1hTEoqVFJx+xqc47Ii9cb6POM7sZBnrXZn+uTWWlW3PudAkebQYyqy3FnPtVffwb+f/hD0nHMMpn/kmN904mTff7MF7kEohlKQvcai4gl2pNnegilFyWSGxBv5yzY3MnDk75HQN6JzB6o3s44ij9+APf/oRG2+SwxPYqJSKS3l5/Qm6SoXvpBKkxrLJiG7+7+r/YeNN1sG6tPS+tUtwYY3j/vsnkYsFUq5MdqrGIa3WeazL5qPySJ0ydtzW/OnPv+Dxp27j+//9NU446QC23X4DNh0Zo/NBcI5yMHwjzc5jP87Bn9yTKBK4yjHox8PkHEycuA1jx+2I870Nf9MQ2Xz66w23BOVQCkzaTk5RTdicM2gleOH5OcyZPb/BmDRbFxw6dpxxxqlB8W03bK5izk6a9DKz3ppHmtp+cixrwrFrcnGiSDFy9Ab84YpfsktmKLTOoXR7dayiKAqGSiGIY7jw62dy6GF7IlVaw0jYTli45I7bH+D9BRYdQZL0Vt/zGkOw1EG76DzNDlpgzZ4i/3ze2Tz3/D/4zSU/5chPH8jGmw4F2RuaKFQIkGUoqYhjzVlfPo2vnHsaOk5A9pCYJcSxJJ/PZ4urxGZCtRCyasFVKkvgzYFUjnPOPYXNtxiJtYUBC/VxHDNt2jSAksV/ZcJVFIFEGDw9/OsFZ/PNb/0TMvJ4CkSxJ5eP8M4TRRqto3KNm0yAT9IQD29cwvANclx2+beZuOcnCJXnl1V4V3inePbZF4kiiW6bTaq8mRnjmPv2+9xw3S1Yq1ADSLAWksCQ5gtImbLn3rvwvf+8sOiEQylXEgz6C5cqkh5474kiEeaMhq+cexJnnHkijpRGLEVNsZwYhIqCcFHJkdphPXzr/32NrbcZTSFdTMhzWD5J+61QTKL3XmCtxxjoWeKQdJMmETm9PvfcPZULz/8+++59OJ858TxuuP4BvAVnM+awoiJWO0bLo/9eoDXc8rc7a/IGWj+PUigoBT6y6TC+8e9fZdBQMK63gqihtXIipQrhei4ligSIhCFDI378k+8R56oF4nao4ZOC5cXnX+Xhh57He10XTroy4bzLaLcdiASpE357yU+59vqfM278ViATdOSxPiExBVKboLRFKB88kTpBRSlKWRym/r4bzQEB1sM++04kzkk85f2iX29YaW4pZs54m8mTXyYtwEByM4vnUFqhFNx0420Yp7BtUgqGvlmM6WGX8TsSRVQrdQ1R8V74EDXwm4t+j1J5hBSlcMHmKNeIQhhGjBzOlVf/no9tsS5CpiglkdleWSgUms494UNOUj6fxzlHkibku+EH//0turoVCIMQmVeynTXPRwjfzeV/uJJCH2ityvdKx7OzNmLNlmA7WEGosYisYZSL3vvMRW6IYkeUhwMO3pEf/vg8HnjoSv585S854fiD2WyzddG6gNQJ1vUihCdNC0RKMWLTjTj/a6eihEXgUAhiHeGMKdV/wTmUECXTcrHOhhYSiUJ4iUtBCoEScNrnTkLpgZquJcYYevt6s9CpD/4sJFTVOWmnjo0QIig70nL8SQfxxbOPRiiHUi6E7lVSe1qBcBKFCjVeKFdzUMKTz8dI7elLLH+4/KdsMnIdrAsJrGLAyfaSSHfxysvTEQL6egeadyGJtGLyw4/jnUaJXFZFXPbTqo8FcD5BKc/oj27MT376X0RxUHCCVynUacF5tJQN67IU6+UoBM4YJAYlDVIYzjvvi4weuREyi+MfWIjFB/dMFIW4SmFOa89GG+W46qpL2HqrkTgK6Cgo88b1faDrNYIT5YbMcgWkKDUZCSwGLxypS8jlB2Gsxphupkx5ga+d9312n/gZvvXvv2Te3ATvQWXPONJRpjzYzDNAOZF9ACjlTQm44vI7mTH9HfCSSOeQQiOFzFrj44vvT2p60bk+rrz6f1l/eB4hbWBWdOFfZwoI75rW+XE2QQmPwOGMQUuNcJaJEz/K0UfvF6h5M9a1Sua1hsqOl6A0xgnuvPPBjK591e0HUkjinEZHju0+MZq77r2eAw7ZIUSoCovSAm9TtIRIidLYeZuWxlBIj8088MEwpbIm6pv0COFRCo4//jDSZAlBiHcN3w2gOjTRa6To4tGpT6MUaB214UGrULS8xjtFoQ9uveVuinVempLHeJl5jB2p6WO33XZks9GDEA7ybVBwB4OGxDnJW28tZPLkJ0iNQsgIR9GgJyvmdEWTIc/SO4HWgUjgnPNOYZOREakxaC1ITVpSthrVhqqtWSU9uNQQZTlVfYUCg4YIPv+Fk/EUSqHl9WiwfnuJIMdjj07DGrL6akVFv33vZgdrDtYs6bWDDgaEYF2WKlR6ltoglWP8xG344Y/P4+77/swVf76Y0884nlEfHY4Xi5BRH8geLrr4J0QRCFkMR6t/VfqPa6+Mi/ZoFay7p5x6EF3dRaau9qGkomdpD9aumkVYSYVzjlwuh/cJX/nqF5DaonSFxQ6o9jYU49l9+busOefw3iBUitSOH//kezjfQyHpbVIHoX8IIp55Kmxa7RYsrQzxSBP4yzV/DVY+ETHQZVEIj5CWy/7wW4atE6E0NXlGbXqFSp6voKBLbcjlHd/81vlobXHerHIKcSGCAcEYx+Chmtvu+BNnffkUkH0g+pCqGFa3qiCxhLQs6yXW5VB6MDNnzee6629j4oQD+M/vXcxrr8xDCU2aepQqex3xasCUy1D2MBUK8Pdb7sJZTZK4xnVMalDtyVOc/ZXT+dgW3aEwYtX60ma4Yk0xZyEEOg7JNIcetj9CWqSQmDRQ3zc8tgJSKJTMc889k5aJAnu5Qjic72HLrUdw2R9/xejNBgUDvKit+7J8r5mkjsGDYffdx1Wsac1QDn0S5PjDZX/OijoP5MLhHCaRPPLIi7w95x2iKNfyKGNNqYBzFMORRx2CsR5HKLrZHCG8zLlQ0PqO2+8jpG63732KohxSSZQWTNxjHEccuR/Om5Cz2Fa4XnNI5UBYPnvq0QwaLINBE9r0xEqclUx++FGWLDYkBV/B/rjqQ8E7WP7oKDkdNICjakNdCWEoyxe1SaQV9yMMUjqECnHaE/fckm986/M88OCV/O22P/GfPziXo47dg+0+MZwkJRSXrHTfV7wylZXXGzeHF4bUF0icRWvYdrstaL2Y1oaUBErXJUv62ksWbufsov9Wf32B89DX18dxxx3HiBHDwkbobWALKqJqo6hlJAtNSI+1Bu8FAoWUMHaXzdl9rx2RMm0zZ6niOl7iveDpp5/DOdpUAirmtZfMnLGYJx57HuvBtJXzVD0+QggOO+xgRo4eio7C8wo0ta6igrqsO65fZIKmEIooFhzyyZ3YeJN1SJOUQp9lVS7bRcU+EDOEHLULv3E6P/jRhYwYvQ7O97HihAXXsFXN3zrvlSM1Bu8UJpWkSczll/2V008/l79cew99fQLvY6TK45GYRlbhNkLxnHMopejtLTBp0lSMIZubjXJyyuuIECKjKC9ey3DEkQfRWwj9cE7ghMzuT+KEbGPdkdUNiRcOJyy77TmWUaNGANDV3RVCKBvdX0WfpYwwqWX6mzN5Z16yCohPKvM9CmwycjC//d33WW+4CGxhwtb8rkkr5o15Xf9cigpeFRW1wzqD0kFhOPrYI5FSIaXKnk8jL4KsOmdqYeGiHiY9/DxpHe1zg3e5KqdForTkmmtuBhGRps21zOr5FIwlnzx0P4RMkYKGdYZq13/vLXEkcA7+fsvdNaQZ7a89adrDWWedGQp+ZueIorhGca9H5VxuBCkUubxi0BDBCScdSTXTTC25SYPjpUSrPPfc9SCiw7211qOj5HTQAmuaglOL6g1LSJ+FayQobYLrnBShPNtsN4ITTz6cH/z3N0F6dBSSwsvxvv1sil6Vm6ttEbgcSxZapk2bh1YDr9htjEcIxaJFi+orTK8EGGOQAgYPiTn3vLNCyEBfH1KIxjlCDQvBBXjncd5ndN4hPCiKYa+9J4AwbVgaG/XPMX/++yhZEWPdNiSvvPwGJlVIGbVl0asiPvAG5/s4/4JziSKyxO7gzSje40DhS6Ecgb3MCfj00Z+kqzvKrMir/p3szmsQhjgX8kgOO2Ifrrzmf/nCl05CysUgejPvTkK9crcsBpSK31XNrwr0E5qnVYQQGmclsR6MSTVvvvEOX7/we3zrmz/itVfexlkJPsLaJnkWzXpnw/Ufe/QpIt0VwpRU6+3Ve0+S9pXu54gjDmPzLTbAk2b9qBQwlw3OW4yxGVWyZ7/99ynNo1y+VQ5byDWM4jxJAf52821V3y4Po0v/qJkzIuThXHXNpYzabL3Mq7OCCDkq5lYQyh3We/beZzeUKl/PtkF0EkIZJbfecndgJx5AjRcAPDz91DR0G14c73059y+bT1EciGIQtq056byjUIA3X1/Mc8++zEDrdaVpihSej24+gnG7jkaIMAedsxQKhTbygirup84AVzxXIPYZM3ZbBkrKYqzDGMfTT71EpKFkgKraszpYW9BRcjqoQ6scjdoY8NUN5b5Vxq7LwN9vQ35EKR9CiJBX41MEBq1MUIJcAoRcE+fAWYn1AuMyKxMyoxiWCKDQCzaFWTMK3Pn357jisvv53rf/wFe+9EP2nHASu4w5lKOOPI1JDz+O9QpL/wm/tZZpKTVSqGDVzQrxNLN2le6ZrGV/Lyt9eEiILrDt9iPYZGQowhlFFXkrNeExtZ5AIUW5CYVChJwB7xA4jE056aRjMwupbCtHKCBcX0nF0iW9LHzftceO4wSSoLimqeEfD05BqFDQTrSY0JVx+N45PCnb7jCSTUequnBCWVJIqjfOZvlQ0lMlwFtnsNaw/4G74/xSPL0r3bNal6fgXWA7yt4xKTy52LPJR4bwrW99kXseuI7jTtiHjTfOo3WoSRIpT6Q83qYoHULCGgvY1V6Ysge23Io5AQKNEBqFDE1QbsXP0Fk9HomUIR9CyQglurBJnhuuvYvTT/0qM6cvwZpgafbeNx7jukruAX1JihcRxsKtf78PZ6tzNZx0dYJa5T0KDX1pD15aDjhkX1ILQmosFqRHClXVnPctmq1qUvostyTknew8bidkZDE+wQmHFyI0GVqjHDSTWiI1iJdeeIM4H8JQvbc1hozlJSBWPHMcMsujkSrhuOMPZ4MNh2Q5l7Xva2bIEr5pq/UEN0N4n8sK1jrrRpx66nFIkaAQ5HS94lF61tLhpMG6AgC3/O3ebF0WIVex9M5Xr3kmdaHGk44xDh566EXefGMG1pTLD7RaF6WUOJ9ywonHonICocFi8dR7/mphvME4ePTRJ/Eu6xuu33W51hMklMSQsM8B41E5cNIjNKhIo+MYqXWpaaWr8uuQ9XlRVd+rYPjxLqHQu5C99hyPEiGPUWKggaeqFkoKlIy4/76HM6WzdCd0FJy1Dx1fXQftYa22cFRblUOdnZg0DcVDRfYLrcCaoMzMmf0ujz72BHNmzePNN2fxwvOvMG/ufOa/twh8XNo8vXdIpUgKEflBXeAH7qlYHgnkHwRxHCMjxyGH7kVqySyZFX0rocX8aHgPQYhZf3jM+PHjmPzQc9AuU07lqb1n8ZIlDF5nCK0IgKSUWd0XQVeX5rlnpw3oOiVFRwJ4jj7m8IxNzYfChcu1mJwjjmO232Fzhq0zmAXz250/lSE62d9VdWyW57tc8f4IyYhR6/CTn19A0gd33/k4d935D2644UaUjPDC09tbII7zFApLCFbiRuFcLTw9y0z1KnHBdAA+Bz5izqyFHH/s6fzluj+y6cjBgVmv0vhQORcb9EfrCHygjn7lpem4rJZLsOC7lv2UUqGUJUn7mLjbDuF5uSZb80A9AYKyIOdgm623w3mP1irzRLRrqZe89tp0XDYFV6wXJ4MI7IQhj6jAOed+KdQqy4giVh6y5y49Bxy4F3+87OqQm5aGmkb9H5MRsxjL+wuW8PBDbzBxj482+G15zkuhUUqRpilaRdz411swRhBrQWoMooU3v3tQN8b0sNlHN2Hcrh9DyTJDIm0yiAkJb7w2A/zAcxStc0gp2W+/AzMPp8B5HQIdnMZZSvXHQi3o5vdTq4jlojBjvQKhYcMNN2bO7IUhz8wYdNz8/VBakSQp8+bOZ/FiGLJO8ZvWoW4drHnoKDkd1KNyI/cVAge0u0au3ihVg69Z1DJh0HkdvBU6FHqcPcswefKjvPD8S0yePJUZs2bS09uLkpqengJSKAQKHUU4nw/ny8ZJSIWKNJGIMMbjrCeUKqgUlmoX+caLbatY5oGgGTtPXQVv7zFpwjbbbtki6bbSk1N5gtabRm8fbLPdlkx++EkGGh5RrH7+/oIFfGTEkJa/D4qKwjlLXwrPPDsNyJXGpJV3slgbKVD1CsaM3YnUOLoHSfr6LMs7otBYgxKacbuM44F7H29Y8X71gSPOKZIkQeiI/Q4cy8GHjuU/vvfPTJnyCHfecT9TpzzNrLfmEZKyZchh6oe5bnnkfzSashV+NTQ55sxewPHHns41117GiFFDQZYHWRSVxCb9yWrk8txz0/C+u2aZbB3+KKVkUHc3//Ht/8lCAPu3SJe8C22ismiodwpnc5jUI4TDO7L1qP93tMi2BY5XX32VQgG0dkglQ6FYsQIVHi9RUmK9YbeJu7DpiC68z3Ill+M1GkK4amU3w267bcHgIXmWLqJawSntKzWnUQpQqEhx7333ZUpOI0NRMW9FY4xFKY23MPWRpxAyJrUOqVXL4smFQgFkgXG7bp+58h3eFf36DW6/5mOJAgFPPvVkxY/aF/y1inFOcMO1d/DX61OsS/BYtFKlOm9Ve5mrvqFWzHGxinCuGAWh6esJ4aJRLiKXU9hW67cN+XPW9rFokWHIOh0xeG1G5+l20Bz9LNxrNKruR5Yto5mgMv2t97n/vkk8/tjT3H/fJHqWFpAiFypNy2B5FmIwScETyXw4i5I4EwqNpiZFSYlSwSLX15sghCzRjnpf9Bi1P64DiWNefgjCp5Aej2PbbbcOny3nGEXnPULAVlttTjlkYFk8OYvb+q1JDV1deXoKhnffWYhJLd6JsvW0lnGq6jqu5M3x3qKUY8cdR+FFKEaqVI1RYDlAK401sM02W3Hf3VMZENvRKoDHkM/rkF8Ve5TO0T3EcdAh4zn4kPHYFKZOeZ3b/n47jz32NC++8EqW8F18F4vW4xXhOa4XLp0FrbqZO+d9LrzgP/jzVT8L/SgpGjXrRU2/lJJ44IUX5iEIxTpl0+dTfbx3AiE0hb6Um278e8twRO8G9v4JKUrHeO9RKo8UEc5ZpGzkSau5nndIGRi3jDEkaSBRKebXiXYLTLaNbIyzdVpHGmFT9tl3j0zBWZUx0o6+guKsL32On/349yidw5rm/QljrvEObrjuZv79W2fQ2CAUPktTg1Ia52DSpGd5/bUZ5KJ1EUpg0jTkDja9niXScNppJ+JIWipFjSAlvPbqGyxrFIEQihuuvxWpwKShNlwohpwiZc37VDOf++tuUbGVLsr6KLN/NVEUkSQJzoKKm4+Pcy4r1q14/vnn2XTUJwZ8fx2sOegoOR2s9VBxhMkS2nNRTGozQcF5QGIsLFrouPyya7nzjvt5+aVXcKIcDiPoxhbDY1wWhoakyhiV1UQRAiJdDFWjlA/gK6zBA1FuQCKFLwYylBSklQdHkqQM33AoXd0aRIGBelrq0EBx1hq22WZLECY8m6pK5M2ttlJJdKaoOutQLVa1ru4chb6ESMfMeOs1vAt1MoLAJvCOfgW38OwMcaxJTcL+++8Tuip8Vssm5DdUHVN3jub9K1vFw7/GGpzVjBo1qvR9c8Fl1SpA3gmMswjpUYDzhYxW24X3Rism7PExJuxxNniYOf1dHn/saW77+z088ugzzF/Qg6BCUHGi9H5JKZGi+QPu3xLc6N0J4XwhhKabR6Y8w6W/v54vfvkYrBMYkxKpqOr4wOBX4QuSiiSBWTPnkqahHlJrD1S9t9PjshpN1H1X80Grk1dBuvIVhQDviuuQDkpDnVJVfb1goAnXtNYye9bbbLHFhvX9KJ5nuRjFyudw1mF9gR132pbUQCR91bXFCgwvKCqIJc+D8OS6YOwu2xGIUkJ4C12roQAAIABJREFUGV6GJ9qoK9mzBVi0aAmPTn2BMeO2RMcS53w2/mVlQmkBInggb77pdrTqQogIZ6sp5BvqesJhfMqIkRuz9XajUbpYN6x/o0GtzUrqmHnv9LBw4UKUGprRhvcfllxez8Ln3meEKz68t0IEsh1ni2NVPTa1s6W/2VgkviwSARW3QpPl4SgZoWTIY22GQOiiMbaP+fPnN7hSB2sTOkpOB2s9Ki2fibF4q0oxzpP+8TQXXXwpjz3yHLhu8BrnB1Ul0btiaESx4F/DTXx5W56rcw5KCe2+GAq38gpWCOkZMnRQdvuO0IHlKciEuivrrj80JEpjGcjSlKYpOhLMmfM2cbw9vkXyqbMuCC9esGDB+wgUQmisMyGhvYVlWggZPGsiZYMN1y2FhKwoat1ikcpRo0aRmhTdwpK72qCUA1SZX+MqPCQhjGbE6KFsOnI/jjhqf3AwecpL3PS3O5ky5RFee/UNpNdEURzCEm2RUUsuU9HOMmq9uQRB1Gn+59eXcuJJx5DrDnkrJWmqpAyI8t9eYq0hijRvz3kHraI2hPxmeUbN+ln6YYvz9/Nz0eh8rdesYriblArvHIsWL8L5DVAihB0t/2lf7eVw3qCUYIuPb5bVSFmVuaEO6yzjJ2zJbhN34aF/PFH3fTWqvVLeSe655wF2nbAN1jjiOMLYSgZCSWotSgTv7cOTnigRZhSNaK36pyPL2f90JlEExlnkgGprSaxxTH/zrWDsCfzPFffS3332A1+T31ZxnfJvar6qvUdf83ltfN0AlepiTo7Sijlz5gzo2A7WPHRU1w7WehQ3aOc9fb0GPEyd/DInnXg+p536NR76xzS8HYT1EYXUUQwHcsgKj05RiXE4YXBVtJWVIVb1TQhd1ZYVA/MAfRBUKFgisGett/46IXZ/BQkYQnrWW7e7aS5Cf5BC0tvbk9WtaP37yoKjc+bMC6xTqCxuvXV+gRAC5wxSCkaO3HQFJPJXI8xf2HjjjTKPxorGsib1Z6gsCOs1uLgiWb6ahUtkzF9SGXQEOgfj99iSH/70HO578Aruvu8avvv98xk/cXsS834Vu5zzboCFOyvfyyIqmbwAL1nw3lJ+979XoGVUyiEI35usVd+rEIJCAd6ZNx/XIom6/f5V9rPxurJMrY4JsRH6J5lx3vPuu++V/l6xyf9ZOKFzdHXlWH+4yoozr1olR8oUIWG//ffCNTQ2NVJ0yu3qK2/ApCHMsapOkTAgDEqBsXDPXU8yd84CpAyFPb2rDeNtNFcsKnLsvscuCAFxnB/wHUolS0x9hUJhIEcS9rv+QiCX4zxuivZIklYucUUHqwodJaeDtRei6D7PQsZsjrQQ8/3v/Z7Pf+4cHp3yAkmfJlbr4ExgfbG1e1Zt/k4V2ltM649ZfVEbAlH0Wg0eNBgpWCH5Wd57cjlFlKO+AnubyOVyaKXasHQGoSmEPMCC+QuzzyxSiVLOTetzhImy4fANKj9dlq63vpZ1Wf2W5TD2A2VJ7K8mTTNUFc/NEp5LgnW1kCKEQgqBlB7nU6zvA9mDdb04n7LlNpvyuc8fxpVX/4wnnprEJb/7KYcdsQ9bbr0JyB5CLZ5C1swAlfAaBQcAhRTd/PGyq1m61KFlLUVw/TMwJuRAzHl7TqDEbYkPqEQuDwzQWFEUCKUQLF60qPz58iQA6AfeewYP7qa3l4yWfdUiimIKBcsxxx5EUHpdg/ekf29dT4/licdewaTVBpfiu2mtQyu4/bZ7kCJfYXxpNbckCMeYsdsyYlQea125Zs4AYIzlrekzQ8HmugW1nfWjHWWk1kC4IlB7jWx8jQ0U286yePHSFXTtDlYXdMLVOqhD8wjtzFtcsfatjrVyEA5fYZ0VCObN6eOE4z7H7JkLwMeAJNJxZv0P9QByWhaDJEr3LXxR8G4vIV6gqoRJX3KvF+s6ND+HL1I1ZX56KQSCrG6AbJWPMXDUKzal/wVLtVeYgkFLsF5l3Vp+G1OwhHuUFGyy6SbMmr6o6vt6paN647XOEmmFqdNQG0PKUFvHWJCKshUVmdEHN783ISTeekSWiC2qpoVrmUjbupc+OybMFYvBuhCWl8vlMM73R5RU7kOF57Hc8QE+s1qFqHTNWkW0n/mchXOVDispOq4i9MTjKhRngcrOJsPC4g0u8wKtv4HkoE/uzL4H7Eyk4bHHXuHOO+5l0j8e4eWXXiMXD2Lp0oRIDSFNU5xPyOfzGNeoj67B/8LvpIjpWZJw790Pc/iRexBcmGUPL6L6HpTKupoVKXRELZ5P3YrasCe1YVulMaplw2q1HhT7CRWLtc9ylyr5pWtRf10hQ3FglYV0BmOBHfjcGgBCMdKIOC6HzlWiHaPEgGBrc+qq/zaJIVIx+XVh9z3GMGXqC6QFSxRr0iSpSayvRYRJDNdcczPjxn+NfL6LvjTJ8vkAEZQo4eCBBx+ht2DRujEzmhPhfVGiXG9N6Yhjjz8sC6d1mCQlF8WlcwNtRTs6Z4njGG90xX7jStcdCMqKUuMLC0FVSFudmUvUfu6r+yGKRR76Ob4GUiqstTgnWLK4p/gpy3NP62D1QceT08HaiQrLsSBm3tu9nHLyWcydsxRcV1ByfH8sVbWLXSNrUxMXer/WvDVwEa2sR+KXt4s/jMfypMYeCESFYiJEA6Wg3wMrPYTLH5lqS3Hc4zgmjmDEiC7Stvmja5WT5djXOoG2ybmrflvxjjT1CNaEkwkDstzifIrQljG7bMG/feMsbr/rUv7296v55GF7EcUp1i8NVd5Fs3CbJpZmLwHN/fc9HOjAS+/A6s1q1x7atZz3Pz75fDkEaqXzoKwGcM5hTILzcOSnD8GToiNFX19fObyxCaTIcd+9D7JwYQ9JUsngF1pS8Nxx++MsmL8IrePiVRsqkt77UJg3Y3u0rsB++++BkA7nLToaeP6ekpJFixbjrMO1E/9bh8o5trzel1Zha+2HZFpjS8qyMQMPj+5gzcKavmJ30EETSPAxs2cu4cTjz+T112ZT6BtIwn5jd3fdQtpPkctSjDIqq4WhV0p4x2oPXyPEIuuTSTsowViDsfDee5Qs6CsWtUJKtUDhBXjpqpsotyohuu5ZV+a4LBtCsUEBGHQMxlu23GZDfvLzC7l/0g0ceMh4PD1IJYmjokDe/vWcd3jneeLxJ7EpNPMCDfTc5d/XKn+rciseWD7EkCHlWlTLJgSv2VAqCgWFgU8dvj+DBuXx3pPP5wNRRQsIIVj4/iJeevHNYGirNLZ5SaQFd955L0nBoqqKbjUI7xIOrTWpKaBjOOrTh7Leet0lA0yVAallLlZ/+KChZZpqA0HNnPIDm38DOq52n/YyIzAJ9cxGbzZyGe6ngzUJHSWng7UUQcHBwQnHfY4Z09/DGY2Uy2iNbZSXUBWHXWwGRBKaDPkFqCXhX9kTPl+NPDqrQYj7SocQIhNkV3VP2of34LErkXyChgJClZDkZTWxgI9CcxF4FRpQei8qcxc+SLe8xzmbJWgXUNoQ5QwyShi12TpcdPF/8KV/Oo04lgPPQYJSXs3MGXOZP99TLBK8/NCoTzV5HaJWsGzSao9rt7V1/nrk8/lSrSi7UogwVi9opYhjjcfQ1QUHH7IvngRjClndof7hkCTGgtf87pI/YtPAVOlKIa6ShQscN/31NuI4T9o0pyaMfWBfFDjXx157T8DYzBCwjB5y6xxDhw5BKtki9K4ZGs1T0+R9bDUPTX0rkf/093njeZ+aXpS2WN9HanrD5SsjFjpYq9DJyelgrYP3AoFGCPjFL/7ErNkLwHWjorCQ+SzItz8Bv1wHI7i0hbdZVXAXEtOdwPkU7zOvULZwhyJ1IWl08y1Gs/OYbdl8i5GMGj2SrbbaipGj1uXUU77Bww8+k+UErTpU3vuHTtERjmLk9kYbbTTgw73zSKUAw4wZb5U+L26RH5TcWzSwtmoNixcvxroUxIqnkFZSYZ1HSYWUAo8jtQbnPT4VKKkxLuQ3pQnkctCzFObNXcKrL73BjJlvcNrnjkCqQLUdBBCZhTw2FwRlXf5BTY6EkKW8J4UAW472996R75b8y/kn09dr+ONlV4XxGoAFWyqJMYGYYs7st1lv+Eeyk8vsHa9+YYQUeBOETWMbUPa2EBStNTgfcojiWJUTzLPbrn0/63IiWry/xXSPOmdpPzJwuMX++myI41DRPooVafrhC/cp5v4J4UHC0Ucdyg3X34qxCuN8mJNNoFUMQvDoY9Po6YVBkcDLoAA5B3+//X6SVOCtD8qKqjQWQG04p7EGpSwjRg3niKMm4MUHM6PltMIbhykkeKuQukZMbKE8aRVhnaGQLCbOaYRVhFWxqHzoqvlVNX2F6zfHt445up9u+CqjRP1I5HIehCFWlg2HD625nmx4TAdrLjpKTgdrHaQMhcLefGM+1193a5Z/U7votRJ6wvdCGqQAYxOUFKQ2JdIGbw1RrOgelGfHHT/B5pt/lJ3H7Mjmm2/GtttuSGUpGYdFoiikYG0fK7KmSisUu9VZxoOcPHz48GU6tsjONmvW7OXcq/4xZ/bKqengvUdphenzpKbI7CQRKkYLmD13Ic9Pe5l33pvP89NeZt68d3l+2svMnDkHvEaLmEJhKdttvxW7jt+qRRL+coYIBUe7uuGfzjmN6667gUWLUgay1ZVrUmmWLMlyeioZ4xrkODkPG2ywwQBz1mR2bKAR3mefPRg/fgzOFYXB7JZq+1fzd6srFpWkWuWo38ryTXucsMXmo9Fa4WyoI+Q+dKtJRcil90yYuCWDB2nmFwxK5aklHqk72oNC09uTcOst93H8Z/cNtM3WEUVwx233gY/J5XKEGtb9jW912NqYcdtiLCi97F4cAOs866+/PsAyeXJ6+/r4xI5bsd8B4xHSoopUAKLolWr+Lsp+XOx187efW2xkJKo4C8JZhLRYnzBxjzErd33qYKWjo+R0sNbBOYOWiicef57ZM98Bkaeq/krmRWmXJcbYBO8t3sMGGw7j41uN5KCD92HXXcey5ZajiHNZOFEoeB+s1aV11oNzIBSRhhkzZi1jXHQHyxvew8iRA4/JDqE64f+vvvoqPhQoXwGiXjmu3jt45ZWXkUKscJFSCEFfr2HG9Pd4/LFneeXVGcyePY9XXnmFWbPnsXRpgjUOKRXGW6SXIUzHd2ONI3UepWMmT36KXXfdCly+LOBUhqot83tQfZyvPCeG1KQ4kWfoOoIddtiChx6eVuHqkdV9aADvLc47pJDMn/9+xbhIGqkGxWLDI0eOLCm/1ag1rNSHxkSRYvMtRnL2V45EaqoEr1aenFae2FpPjvDh//2tf83OJzxEObCJxTmPUhrnBk5TvEZDVCsXKlKcdtqJ/PrXV5EkhlykmzK+SSHxzpEUHDdcfxNHHb8vcS4wKb73bh8PPPAQ3nXjXEat3uKF98JhSTjjC6dnrO0fMBzUeUaMGIGXokphKM6XVttmnJMImfDPXzsG4yAeYFWAOk9OdsHaj9udv7XnEwLSFKKYrBRANl5trA0drHnoKDkdrHWwxpNa+MXPf4MUXYH2GIKiU6SwbenJceXcGlFgwm5jOe+8c9lm29EMWzcsuEliyHeDtRmFaha+JqTCe4+1RauwQ+kIIWDRwiWsStNR6E0H4PA4NthgfZZ5RLxm1sy54MFLmW2mK0DVCQk5zJ49l5URNy6EwDvBlVf+hUt/dxVCDMK7COM83imiaHAwR0uB8IGmNooUQgoEBq003vdxyW//yDnnnIBUIDL/YVNPRwXl+7IhHK+1wqQGpSIOPmR/Hnr42fprNEGlgLqkqo5Gf4Jr6O/wDdZBSotzrclISt8LF6h6KfDiiy8CYB0VVu+WjoFw1kbemuxepZNV30mCJ9nVzqVikVVo+gxsL2gps9y2dtn+1jYUn6XDWsFuu+/Mr399BcOGrkNfb1/zI30Ib87Fg3jppdfpWZIglSKOFXfcfjveKZwTpGlCFLUIaxYO7ywjRmzEDp/4SJavVuEFXIaIAe896w9fj2IIdvl9aOe9dFib8sKLz/L+wj4GDYWgtVfm4tQq+TXvZJ2S0887258hoDZvsSanzhhPvisK4ebChRIPHQVnrUXHpNxBHWo5SmohfHVbvSCJcnleePENZs+ch0kl0mmkK7LYFFFOapS+ujmTkBaWIljC7rtvx8OP3MIVV/2MiXuNJj8oVFn3GKI41IwIXp5i/RtZ+r9SoLVAa4V3kI9h6aLeYPlegePmRdbImmhuuXWi/1Y8X/Fv36CtbDTqYyVa9i8T4LT2rLueZqONN8S5FCEU1rS30XkncES8N7+HqVNfwhpFaj3GtTMujZmAquZFxYZb9CK+9PJ0vMivFE+gEIqttt4RyONdlIV8xkiZC45JIfAWpJdoHeO9wFlCPolzYBVJj+eGax/COjDekLoUpM9Y2GrGqTIRvkbYkCFboaJvWZFCKUD60t9CKIRQJAVbqk2VyxWLefafSF8L7wRShKrv6663DsKDFB6BCa1m/VMqCKJbbj0KqdOK69Rcs3iPNUnOaV8B6SSPT3mGnkWEHCPryMdxdn6ZtVCTR8t2m0NLh1Qhz6j4uXMp+XxMVy5qeJySlK4VmqxqUsns3XPYUmhfRY7FB14faogPRO0Yrh4oPn9Hyq4TPsEeu49l6dL5rfsoASkppIbFS/q4/vq/oaVCePjbzXeA82gJkZLgDNI39q65TJhXEZzy2ROzIIKkbm+uPz7bp0Rotbu995b11uti9MiPEJ5BimtC4FE8f2iSWOUQTvHKi68SySgjVaiVKJqTW1ShyIpG0Gt0FGGdQ0tJTsdhHSIUFfbWIXAVY1BhVMia0gJjE6zz5Rp2xVpp4sOXY7a2o6PkdLB2wUuMgccfexpBFJI8qxbXFlNeOHJ5wbB1I377u5/zxyt+zvANutFRgnUpUVzD3tIyXtphncFYz6NT55QEojUFAy38tqag0lq/yy5jkErgXNpmXYnifAqK8+OPTguzykuiZahLUX/uaggi4ggmPfhQVv18ZSg5MHbczqEuT0lA0E0UrLIQ0901mEAfEPPb3/4+CGw6Ty6XW86FGxu/e1EWLiSA9xcurvn9QIRkx9Chg8vHVrGSVfzKBQ/uxzYfRveguLGQKxzQuGhmoAmWCPI8//xs8vnwWaC5rc4lFJnCJ3FVwmURjZTkyuO99ygVk6YeUzA1Amrt713VsbVY7kU4G6KBorNaoOyJU8qhNey593gi3f4cC4WHNffePQlvYfobPUx5+CmEUCXq6NIYV91/7fkNBx60N8Y4jEk/8FgJ6UHANttuhcCU526bSNPAHnfnHfcTGBb7D9NcFhQLlaapobe3QCRzgMY71T+piaicR/WGlKr9fLWbax18EHSUnA7WPnh48smn6xe8GgGtKMBXewYMcd5w6+3XcNAhO4OAfJcqFQ+Tsl0htrxgKgVRJHj55Vdxdvks9B18EFQ/g803H42xfVmYVbuCWzERPeLKP1+HMaC1LFOSsrw8XRLvIm67dQrOi+VcjLUxrLXEORg9eghDh+Vx0mXvisssus2xdOnSknFh1sy5/PIXf8YkIbyzxEhYhWL4Vk0oVx1cTWsA4UAHid0C055/kfrQmNb34Hyw7G6w4bqtyKSA4PEwBvbYY0L9NUpjpirCYir7IEkSg5SSn/3sZ/T2hvNZZ+rPVWGRrvO8SoeTlUJazVojsnBBl8OmCi8iLAKLD82LzENpy81bnPfhX+czq/xAlcW1G9Y5hIRjjzsK6woZA18zVI6fYuqUp1m6BB6Z8gImjVAieB8bKzhlhMtYdp2wA5ttMZTUBAZDj6xad/rzeBdRu04V15gJE8bhKYZNqpbnKSLSOdLEc+P1d+NKdaYG4Lnpt6OZR0dIrDFoFSFlTGoEaSpCWLpUNetHxXVlQpnGmhpjZbGfzdafDtZEdJ5mB2sZJFrBe+8uREqNqa3jUBMqUrdoC8d/fPcCRm02COdBR57e3h68D1WSi1bb5qi2PlobBKBHpj6BFGuWJ2ftRpgH43bdCaUc3hmiWrrUJscV59Ksme/w1JPT6etNMWn1/PjASonXKAEP/uMR4qh7pVjPg8cFrIdjjj2MyvnsMS374L0ohZA5K7ns91fz7NNv4YxGye5+PEKtPEXtw3uH1jEmhWefeanunW8PDiktQ4d2Z7H/FSEvNYUGC4UC3jusg53HbE9bglxNvSApNUlieOLxp3hn3kK8U0ihMKYiMZrmYacNUVfXKObuu6bw9Qt+wOOPvIRwEcLnSg2RQxKF8J8sBKjUpEd+6PjmG6BmjmqlSNOUocMk4yeMrf5pHVNY/X6kZDc33/go1197C0p0Uw55bobyO3nUpw+lkDiUEkTRB0+zFkKAcGy97eb4ipyrdh99alLy+cH0LIUnHpuVTdjlJ2pa47BWIoiY9uxrfP2CH3D/vU/Rt1SA1fgstDa0FnXxOl6btR4dJaeDerSojNwoL2NFtoFCSpj+5izSxBK3StykLIh67+nqjjjm2L0RyiJkiichjrLKHc4jvKuLya/LUXIeKTz4UEMEr3l79vvccN3fKBRSvAteoWJb2ZDUxlH3F7Ly4cDuu32c4esPQWmPTQfAFJVtkN5F/PynF6N1RBx1k4viLCl72QYzJP6HY7WCuXMTrr7yxixfaMUv2c6lWJdiTB/HHncE3hXwNuSaiIyNqNn8LYbseReUnIULCnz1nH9j1owFeCcxqSJNQ/6OELrqXN6Lune/0tbaaD3QOsToe+9JE4cSObyDm278B6+9Op1iTaS2IRxaSz6+5ccYOkxnzIn9328uCrkz+QiOOvIIEA4pA2Oa1tX5ANV3lOUEComSCiUjvJNc9D+/y4TfrHixE1l+RVlZa6jo9LNmx3GMEBGCmBnT3+M73/kZ1117D8ceczZbfOwgTvnMN/nL1Q/yxutLsSmkiQan8EZmCo/I1j5oyoLQYt9Yq1Bxn8aEMYkiOObYw8Gm4ByRUjXjVe29K/7rXcSf/ng1UyY/gVL5EJLaZBzjnMryrBzO9fHpo/ZHK4uUArzKPG/Lvr8458h3SXYdvyXD1u0K57UhTy9qUOy01qMotaaQGJb2WL7xze+hJeA0URQ3XBNr989W8kCSJMRRMGL86798l2uvuYMvnflv7LjdQZx80gX88dJbeX7a23gHQkqk0lgfkRqFscGYIojwTmQe5wwfpvn7IULniXaw1sGk8O677zf4pvF0t9bgXPDUjBsbQtQCq1p1vYp2IVWwxAkp6OrqJlIx1/7lbwhRzA/qYLVAtqE5YJ99J2Jt0qbnpXpOCBRTJz8Wwk2MpMhdsMwVx60NcfkyIk3hxz/8NdZWFIlcwXDe47HoWPDxLT/KeusNxZNiffvjU8nIJETEjOnvcMbpX+X1VxcQaUk+F2EMQYDKjmmESqWmP4NHISmgpMQ6RxznMang1Zfn8utf/i9aDaLMqNgenHM4l7LZR0eg2h1y4TDWsfHGOSZM2BWAJE1QeoAKltf85eqbmTr5RawB74o5DW2uG7WeGyRJwWGSIHtffNHlzJn5Ptbk0WIdJIOZ9NAzXHjhD9hnnyM54vCz+MF/XsSTj72GJEYLhSRCkMOktCzk+uFAdViT1gpEIKTZ/4C9WWfdYSilMg+frz+u5lkKFK+//iZCaPr6mjOzASRJSm9vL84X+PQxhyE1CJmFFrYVadAcWmmsCSRlRx99BH19fchs7WlXaRIy3OdLL77Jj390JQLCfP7ARj1JV9dg0gT+9IdbeeO1eeDy4PN4m+PRKS/wwx9exKc+dSL7738KX/uXH3PL36ay8H2HUhFSxRirMYkk0jlMm0QzHay56EhcHfSPNdWy4SEpmMCWZWsX/f7vRwjB+sOH06jY30DGIdRRUXgn6OuFac/O4xc//T34mFzc1fZ5Olg5UAqOOfYIZEb93R7K/oUwxzQXnP8d5s1ZSqHPZnMg89gN0DMppczyvwTTnnuVG264BZuqAQvrywRR6WEQ5HJwyqknoSOX0URX/rg2xr4mZybzdGkVI4l48/V3Oe2z5/D0k7NxBrpyAmt8+bfLyG4khcBYi1aKpOCYM7OHL3z+fGZMfyfLgav6Na22PZ/louy//96EWoi1OS7V9+1clmskDMbCoYceDFi00qRJWnNsbb5AZb8AFLhu/u2C7zHzrUVo1f8a3K/nu2bd9l4QR4Kf/ez/uOqq23AuItI5EpvSmxRQKsIYgVZDePmlOfzx0ps55ugvM3bMkXzhzO9wzVX3MPOt94l0jEk6OYWNYG2CkJahwzQHH3wgUkrizKPbP8I8Ukpm4Z2efL7imH72X4HKfuc4+JB90RqECF6bokfzg8BYE/LQBBxw4D50dRf3LNmyZk/xvoTwaC3RKuKS3/yZqZNnkCQsF3kiKcBzz77B97/3c5yJkTqmL+0jsY6evoSepR5vu3jj9Xe4/tq7OPvsbzFmzMGceMKFXH7pnbzy4lwEgqQAQSdcvsQIHaxe6DzRDxmWlS2ryASDIyxULl55zdc2XaZ+bACpYMjQQQjhSZLWljGRSW7ee+bODXVP2mZjawCTpmgVY9KId+f18oXPn0ukhpXC1DpY1ajImRKgNIzbZWtyeYFxfeXvmx5fZp5SKigg78xbyFlfPI+koHA2hAi5uheujfnkNfiYN16fx1fOvgB8jFJdBK/ICiYe8DJ7t8K1pIJTTz8eHRucW7aaKEFhyyHpZsZb73D0kZ/lV7+8hp6lZJJ5FjvfrgBUmVjvNSZVRCpPmmjuuethDjzgaN56851AfV1H1d0cElBSoSPYY68J2Dqprn5ulMKCsvn0qcP3Y9BQjfWFrCZKf9dv1B+JtYqZb73HaaeczdtzEvBqYONTPLfPaPOd4Kc/uYJLfvNnnIlRIoeQAmsduVwOa2ywaqeW3qWWSA1Bi6G8906Bu++ayoXnf5f99jmcIw//HPfdOyXzLnVQhLMOpTSFpBcPHHb4gaR2KUnag6oK72pi4iAXAAAgAElEQVQ8B9LUBLKPOMa1oaRY6/Descmm63PAgWND6Fq2LlhjPuAaESjHjU0Q0rPnXtsyZswnUNoHKvs2tJxi/4UQ6CjCu4izvnAuj019ESVqc2WKNNbZscX8t6pxKnrOYnCaxx99gVM/+yW803gXhXp1+W600kQ6RopAeS98HikGkfQJcHkenvQE3/n2f3PEYSey/37H8Ktf/QYpOyLw2o7OE/4QoVLeapx7ERaT+nopDi8ijO1G6yx3g/5bq5yVgTZqmvcS5yOkjrHYinh5W6opMmzYIBKzhDhXaf2uXjyLOSjBiiYRzvPCcy+weLElTSTeSHQxPEO4prkr1lq8AItHx3mMFcyb08MJx32eBe8m4GO8VFhsOXa5kxOzapB5DQI9ahIKpEo448yTsLYHT9Gb0MjSXonwfdgoFSYRvDjtLY479gvMeGsx1kFqBcZYdBSRppnnx1gKhV6sTdFaoqQAHDqnwxxJJbPeWswpJ53LzOlLkL4bBhgusuyoNGB4vLOsu57kMycfRawFCpHRFxffh/p8EyeyRsknFJi7hEKILjxD+MF//ZYD9j+Dv1z1AGkKxoS4eWOD0Fc0PEipSIwhdRYhJN4H1i/jTUboIVBa8dBDL3PC8Wdz9pe/TV+PRPg8SsVZ7ZzqOjrlv8NnSojQCN9JYTnm04ezycZDwCWBe6y0vvi6VjxXMGJYhg2FL5x5AlKmSFEMiZR1rTSLsjXWifA7JUN42GuvzOXkE77MtX+5jyQpzjMHUiAzggwpFWlqSnkY1rmwLnpBkkoWvu/4/vd/z0X/838kBY1U3VgEqbVEUURqPd5TCteNov/f3pnHy1GVCfs5S1Xfe0MSsiGELOxERMWw7zqKMAoqO8oqKqusgsqMM864oCjIMAM6Mo6CgICKMG74ofMJiqDo+DmCgywKEcKAgiCEe7ur6pzz/XGqu6v79t2Sm5DcvI+/8obu6qpTp872nnezOOfw3mN0EjWITMMVNe677xFevt0OayTC39pMe54JBK9QQWMw1GwfiYE9996cWbMTlHYYq0YZ39sbaUoZsixaHwStOo7Y60zrf8prgvPss/euWBOFLNAYFLWkrzy73caHE3tl9C9tH9XxLkaIi5rJs889CecH0RVfvFZEPgIjbyR4vIsR/f7y3BDHveMcLvvMV2MuJqNxhUURhfegNEXwNBoNvFdobTHGorUhSeJ5WR0uu/Ra3n7UGbzwgiHQR9CKmqkR8oAOGoNFa4VSlLm7PKlJwQWsikJ/cDWefOLPLFq4CGNU+dzVcUyWxVOJNWPkLayzhHLwC95w8ze+xzdu+hYq1EeNSrKyDtfjQmXssuv23Pi1z+MKj1am3P6pDtAwe84Mlj3yFE45zDh8GVQcFfnLcyu4/rr/4NTTD4nrCU00Jh6FEBS1tJ9GkQMxKtLvf/c0JxxzBsv/8CwqDBBt4FbdlECYXBQe5wqMsbzr3Udz3bVf5ek/ZhhlWwvt8U165a6k9/z2f5ZzzDtO4cyzT+bwI/ehyOIE3Vfrw/tmcsXonJ9nilpNk+fRfMLlimuu/ib/fNmV/OXZHM0GhGBgja4r2xsDIThyl3Pae0/kGzfdxovPB4JTHecAPfPH9MbiC0WiZ/Lo75/iggs+yT9f9jneuP9rOeKot/GK7Tem0YgmKX19hnodlOqnL4F6PeaP0QYI8PhjT/ODH/yY73//Tu6557/xhcYVKUb3MaGFSnfIWZVx2OEHojUY213xnu5ABh0LyVKbc8xxh3HlF75M/UVfLkKbjG1yGDVfBq0GeOiB5Vzw/o/z5S9fxwknHsahhx2AK9eVUWjRpHYAbaLpTe7ApvDc84YvffE6vvTF63nxeUeeJSidYqzBleUZXavfWX/G9LHjzi9nk/kDo5Zd8Aw1Am875ACuuepb5Fne8meZLPr6U3woOObYo+J7LyO4Tbq/VNmW99l3C3be9VX8188fgFyDmZjfYpZlJEnUFF5+2VXccvPNnHHWSey22y7MmTMNU9NorWMgEt2HL+KvlYo57/703CC3fOM7XH3VV1n2yFPYZEM6E3uPRtnfggbVDgy06fyFHHzIgQwOvVBJGCxMRUTIESoMn3y1NkDpq+ADAUXwow8Kq3UhrxR9fRsQrUB0tCVvZm1uxb+HHXZ4Bb/+1aMYarQn7M7na07yzd21oBWBhM9fcSN77LY32796Ho16QfQd9ngN7TwXtHZ9XIBsKMPaFAJ87rPf4LOXX8XQigKtk6jiDwzLEdLKWD2pFSSMSXe+pBg6iFlzDO84+lA++y83EApNa3gcJtD3bk+t77xh2SPP8aEPXsK//NNVnH3Wqey2+1I2XWBwgbaJRAClYHAQ/vhUwf/53ve5+qqv8Piyp/BOkyYDUb4uFxud916ddD5XrVZj3rw+3ve+9/IPf3cxhOmtRUMUCrp/M1L96NZOcOwXika9wVNPDPHFf/sG1375m2y66cvYepstWbJkG+bNm8vAwDS892gdo7AtX/4Y//u/T/DD22/n6T8+g9Y18oIyqIdBq2b43VARPkYuz7BnVgWHHbE/O+6yFS4UeF+g9UTCvntMopg9p8YZZ57Mpy+6AnytXJTZjvN6/RbaQlNia1hjqTcGufdXyzjvnAv5xMeuYJttt2LXXXdl1pzZJElCkqYYrfnzs8/y+GNP8ouf/oqHHnwkOozrFO+ib4QLHldGyRuVZv8oBVelAsrkXHLpR6OAKTlyRkZ5kprhr9+0H9dc9S2siSZovVmJvqw8zjXYZMFstl2ycfSRmewNkOr4qAJZoTj9jHdy3NFnok0Mcd1xXmt87P2cSZJQFEWZ4Nbz+4f/xAfP/ySFy9hzj91Y8oolzJ+/MRvOmkGeF2iiT+2jy/7AQw/+jjt/fBdFAUZbUrshfkyzze7+Xi1vgdI5Z5x1MtpAn+2Tjccpjgg5wqi0Hag9hStiONIxvKcDq3HQ0B5X+FId3VwQtBeNAHkBOyx9Jddf9z2UT3oEHxgZRcKfnxnkuGNO57Qzjuad734rwVtUU6VduQ8h/jM10CjgF/c8wCc+fgn33rcMl2tqSR+gCE0NTinUNPPtaC0+Oi8NnZOgNZascOS54aRTTuDWb/+Yhx58EgOViGbjXNgFjdKWxKQMvpjx6O//xHnn/gNaO6bPTHn1Di+n1meYPn0aK1YMsuzR5Tyx/I8MDeYQbGlfPh2f5wy+mGNSC3pNDtPdAlVc6HpvePvRB/D9237ET350L50aifFqcZo5OJrt3zLQ10dwBYmxBOd59JE/8sTy57jte3e2AjdYY3HeUeQFxhrSNMUVBYWr4R2k/QMQNMboMq/MRBePbQEHlXHq6cfHJIjBkaYxCtyEruYL8iznPScdwn/+4Ifcc88D8R6hMoaMUj9xfPCE0oQsTQZwvkFi+vjzM3V+etd9/PIXD9LIY7Q7rQ3eR/MprWr4vNwVD9NITDTp1Vrjg6e/v5+hoRcn8DSO3A1xyNsOYsGiPpQBl4uQMzIxfPguu27Lbrvtwl13/prRN0VWAlXwzhOP7gqKsbrwZIVj731ewfEnHMlVX/oqSkX/QJpBLlrl6h2sR2uNtZaiKEiSNJqnOQPecvdP/pu77r63DFtfRC03Aecpc0WlWDMTnzeiDtUqlFnJjZ5yY2bTRfM45NA9yZ0ff/REYZ1FXrHQg84dkOZC3JoUHze9u87rZLKFnGH77uXOmNJgMRW7izLfjXe89nV7kecfIzEDDNvRafpSjFDMoDR/fnaICy/8HDfc+E2W7vgq3vBX+zJnzmxmz55DmqY0Gjl/WPY4Dzz0ML/97e+4/fYf8dyzfyF4FZ2slSYvmo5EGrRGdeTJiAuPiQhgwmRRbQ9ReI+RjB0bDBg+/sm/57CDTyBNU4osR/c0zxhhcaE83sfM40liAFUmitQ895zjjtt/hdIuLgg6EksmgEGblCwHbWokBlzwlY3a7sl9zSw2XZ7jncOalI9+5AIOPPAY6kNZO0jBiIJ678WIUgpTri6KwqErDnem9MFRpTmfAoqY8AKTRo1KnjugzHHR8kmgFTBhZHqZinmcz9HaoXXgjHPezcJFG4EeKssX6NwqH379br8H7z1pzWJTuOjiD/PX+x/L4AuNGDXP+64IdZ2EUI6eQaOaDonKYYyi8I5mRvcsDyj6IFBGiLJxzRloO7sbhXN59PMoN6vq9XqrvM1iq64CeR8DEuRZDgoWbTaXM88+EefBrJGF9bqNsdAYgp13eQ0//tHPMbpi+dCaA1ZWIxvNKQ/467+K7UgHQjmHNOfdVXeZ6tzASC0UmefMM0/k//7wdh555ClQNUJQGJPiWtYN8f6Gzjw/MUqzRpkEFxRoG00ulY138TFinDWlz2KI8auVtoRgyR1oWwM8Qflh483wx+2c71OrSm2wopHX+dLV/0ow4FzAFWU+IxhTIyWsm4iQI4yL7olw7aISLQtABWbMSNhn3z2444f/FRdD44hM1I4KYwGPL+DhB5/k4Qef4Gs33or3Rbnw0GhtWmGirUnwQaHVNOpZRq3W3a16LYx0a+GxOhVfQg9a5obdX3hQhlfvsJj3nHw0V3/p62hTq5w4Ea1OxUdMdZkphaLz3sMWProlt780/a6tcVDKYEzMdk+AxZtP59/+/VKOPfpkvDdROKuuMiYaIlY1NRxN9HChqfs9Nf97Qj5TlevTuZgpijo29Sx5+RacdvpRoKpCaPdvexWo6ywdBRTvA1tuNZePfOxv+MB5H8W7OjCOXFkj1qGJkdZGPWfVCcFFszblcaHORz76MRZttmEUQ4NsyoyFKwqSxHLs8Ydw6WeuAJpR/pqsyrvzLN1xezZ6Wex3WdZoL9Injc751DuHNprZcy033PhF3vTmI3j2uTpWD5A14mZda8OmZ78pLzdM+uo6r/m7ZnTTVgS2SplWgjzPMSbm/nrf+aey5VbT8QGsVShtGTXBrbDOszavXIU1TrfZSbedfTXyyEu529E0qWmGbfUdjs+JTTAa3nPS8SjdtEEfT/SUpkNuM9KRjRFcGMCHfmwyA9R00P0xEpTXeKXxZRSXIs/p66/a73fdSxUEckIozUd82wG4ekw662Kuo9VFJQ9Mz+AZKmDSwNnnvpvFm80HlZfHyrT37rZWmn51R9pSzaP5/n3X0fn7iZiHrTxN7UjAGIO1GqVzCp+x+15b8KnPfIi8GCyF/gqjBiDo+rw8t9X2W1HHxnkMyyOyEvVS5uaZv2A2/3rlp9vmK70WWOOMvtQ0ofUukGVw6OF7c8ppR2Ms2GTsBemw8SDodjjo5lFpN93trBXdrhzHJlovia3F96qGOOvsk3nt65bSVDiLde140IQAG24Ie+61FHCTNwYrzzuOPjyuy5Uro6A1mcRxoTLe1Wr9gMeHjPkL+rjo0/+IMY5G9mK5MdjVJ4cx3nLFa3jVHBdjWx51vO5VblU9NwY1CGTst/8enHHmYTRyhwsNlHa4Zo6rNTauCmsaWf2sd0y0I4/mNNnrGC8rsZgZ10ThaTTqaAu777kVu+2+Ax2D5JgDZef3odxVCl5THyqwpoZ3CqNSrK6VJjsB5wqSNO15jfZnvjRVamBMzKreO8Sn7vjNyjOVu/fqerYCo3JmbAhXX3M502ca2gkqx/EuxjRHGb3PxDXLSMLNGqKrj2RZ1vpcG0/uCt7y1n05/4Ong66jydHBVcw/e5nVjbRYWZn3ONqYM/IuclyQVe5d+uBsvWQTvnLDlbxs4w0rY8Sqti+PD44QPMHDuecdz6mnH4MLz4PKGP19jjXmTqwcnf/urHs9bEz11BsraOQvcOzxh3H2uUeiDGgTKIp8gj6Elfu1co9NrPyt8nX/XYsxxmJKV7rXvX6Psp35uKk1ZhTCkc1gm6Hvl+64PdoG8tIna9LHhq7+n+c5SgfSmiZ3Dd6w32u44IKzsaYgsQ5NEbcnmiHle77j8c3dQEc4+pUb+1x5QAyDPcjCxfP46IV/gzKAytAqhlvPs2yEOViYKqz9I4Yw+XRoPsY7kFTPmYCAslqO1oN0CT/xb19/VOVrA+e9/2QCGc7neDcYB+Tge0zutPJotP5bR/tmjccoSG2CywusSsArgouDevDRNtk7T/ChMyqRUljtsZrW53//4Q+yyYLZeNW0Vx6DcQlnVar1pId93rnTO/wYsyyryrDdNg9VjUD1+2HttPuZqqYVYwxnqqv9lm2gmVfCqIBRgUCOK4ZYtHiAL19zKbNnTcMqTXCuIz9Mq5Y7hPAegnlH+4wLy9FyJMXvdae+5yXMo6S1pijDqGutGeiz1FI455wj+eRFHyCxBb7I8UWBJe18psozdC/wOjU37U+DDh1HGaugPHSripvttZk/pFVvHfXrqQ+uQPn47pQP9CUpLm/gihfYZJN+rr3+s8xfMIOBDSAvslY5OhmuMR6R8jyjQlwIpmAMnHrG4Zx17tHk7oUyQ30vTeLwNt/Kl6JCa0xRSg3Lh9LOA9R5tPt1Zz/SPo5dOmis0iQm5kBKa44j334QH/rwSbGuQ0bwDYxSdCvuRqerrlqaqOGCfe9Dl9/Hd6o8qKCH51Fb21Ae5zICgbe89QD6+hN8KEaYc0ebg+Pz50WDPG/gwhCHHHogCxbNQOscaxVGa5RWKN1uF6vlkZSiKP1XajU46aSD+PCHz8XoOkY3wGckRhFcM5eUah3N99fsuK28Uq3+3XVoeh9Kd5nvDhfaaebKCZCYANRZtPlsrv3K59lwtgEVsFqjiG2slkwkcqKwLiJCznrLeDUbPX43KuNpUqvQ7EbaKSonxBACha/j/CDojKU7bcWZ57yLgQ3AGE8I2fgWKk16LrLHU0ZaCQTB4/wgWfE87z3rRI49fh9CiGZ0queqtfqME1TXj5duQWLEtlC9/+TdvqMcw+43XlZ2p49OgaRSjmZCRGsV2tZ55Q5b8qWrr2BgOvhQryxWRnuG8TBegeylpLNuQ2lLmeV18qJBlhccfuR+fO2mL7Fw8TyUdniXtX8+kX42aVTvGfvXwEBfDC5g4sbHUOMF0ppn732WcuPXvsS8l03DJg7nHEliRynzBJ9HeUJwZHkdVEat33HK6cdz7nmnYNMGqDpJ0rzu8N+uPN1j5AibRKo5/ngKl+FcncKv4N0nv4MLP3k2NgF09+J8vHRrkNYfvC/Nn1TBxvP7efNB+5EkUeNSFFWt8FhCTvzvWq0Wtag6Z7/992Z4yPY1iScbyggeTjj+ID77uYuYNhDIGs/h8iESo8uNmJWd41fiubr6itYabRS5e4G993kNN99yHYs23wCtPUqXGwfih7PeIELO+khzgTeiCdho5iBrGZUBrmmOEkK0tUUVmATOOf9IDnrbXijtiYGYeu3I9tiF70mPHdHKzmPMAJ/Gozw/4DDW87ELz+eMsw4BRVxcKE+a2h6alF6TnQcKohp+vBPB8F3yDpOAXkc3ysd7dkSeWQMTbC/tSIfgV7Dygvootw0BgkbrBO8g0OAVr96Eq6+9hC22mgc6a9+3VZbuXf5ewmOvhcwIWkrV4z2tSXrdr/KZUUkrYpcPgVe9ZiE3fv3zHH7km9EmJ5D37l9VP5dK3XT6oIxHi6tLjWvzsx6LxZaJULS5b4aw9b6BsQ0+8DencN0Nl7Dx/A3p7086wrpPJkorrDHYJMEYS60PzjrnKD76iXPZeNPpFP7FTg1jaPtmeb1yPjVtuuquVf9dGyjKk6SKaTM0H//EBzj/gyfGU1TXtcYttPYS2mi9k55l6znfVPqOKtrXWIuJpstReFQ64Bwccuib4qYbusy5NHb7ruIdJIlh4/mz2O+Nr2HEdzBZY+EYc0KSGLzPQDv2239nvn3rDbz8FYsJNPC+u++PNP61yzkpPqmq2UZiGyv8IO866Ui++OVPMmuupZHlKO3Ii0blRyON1cJUYi1fwQpCFyNNtKo0D9OKxJbR0UIgkOGD42MXfoC3vO0NGNO0hx8+2DYH9daUM8w8aITdt14DZHPQ1XWmzzB85rKPcPSxbwYV8/i4osAYy4oXXqic3737OcmDbnMSGJVuoYjKQqPy2WpjPIv6arkmn0ajQQgebeIC2ocVvHKHzbnmus+xeLO5eOpANali5+742Du0I/NSmKNNFFfmb4GoGUEHFiyazkc/fhYXXnQBm281j8AKRvY9iXWiw9j1010fI5rj9Fyo+NKBPgdVR5shdtxlCf95x80cf+Jb451DncHBOiGolqAz2SilUSh8UVAUGWjPIYftx1dv+gK77/VKUEOgGsP7ZtCV528nUl2p3FodPi1NQTOOT8oMsfW2m3D1NVdw1NEHlJswLpr4BtfS4MXfrEqfy4mbExOl2d9X4dZriGr7jJttOTvutA2z507DmIAeM1pit6BTatl8zu577Ejuwmob98ZLlmcYq0hrmkDBgkUzuenma3jPKUeDHqy05cpGTYt2f1fj0KaMPh5WBcO8vO8QG0zXXP7ZT/GhvzsJFAQK0tRibUKainna+oYIOesBRSWbXaPRQGkdrblHsOEeZiOrVNcx1ver82hO9kSn3jB80PcelIp5Nrzz5HlG2gef+NT7ee/Zx4LOcN6RGINRpR2xc6XvTSht3UPbV6N1lLb/NIfX6FXgfE6W1dEasnwQrTKsLtCqzvbbL+Rbt17NG/96F2p9UDjPtAEAjVaKtNYfn8er1gKm+5lducPsfTWL+2h01kc7NHYozR40WtsRDt0+TPyrsBhtadQLVseQ0cx7pDV4H4VTH2gdwVeO8p0HivLfvlV3ChMdnFdR85GmKSFE23KjY7Z4rR0LFs3ghz+6jnPe9x60zdHGo7VFYco2F8jzRulr0T6G+xr4jsNlOT4vCIWLz1sEEl3DGIMPRRQklAcLKlGsrAA1mYTgMFa1zD58gNoAHH7Uvlx93SWcdd5xLFw8B2VynM8BUMHRX0sILo9HcCgfhh3d/kfVPqgDJLrpfwP4Aueb94j10SybsQZtIKl5dt59W77ytcu4/uufYfHm00lqDmUapLVAknS2l7HGoAnjPS7PMbrp91JgTcGmC2fw5Wsv4cKL3s/CzWZR64sa3pCDpQ+XBVwBhmRYvYxUX70O5QOuGCL4BirEtubynOAbzJihOf3Mt/PN736eHZYujlpnnVN1Jo9h7le+TyVJQl7k0VSoKciNpUmujOlKWbyLGo11IfBAVTOjtUJbOPCgN8S5wQw/Z5gmp+sZjTGA58ijDq1EAltzdLd/a6M2qig8xhqUhhkbKs7/wLu49bbr2GLrl0EYJAYk0TgfMCZBBRf1rkXRmkWyofq4+j/elz40CZoyt42PY6UxhqRmqfUFTnjX4fz0F7ew/5t2JiiwNrTOdXlOKELpw9Q+evlFClMHyZOzHtDXF5NX2jQhSZK4IAiNMtvDxAdM1bGlNjwkanuR14uJT1IdG5e+0XVtT8tkpTIx6la5NNaCcxlpn+a09x7PJpss5LOXX8UTy58EbJk5OgHU+EKkNiehUrMRgkObOIGnNUCtYObs6Rxx1NGce97xMZNzklN4S5IY8gJQBZ48xvC3ZX2Wjsiho049aZqQFQGtDXkRF0tj06wXsEkCHnI3hNKOIq8zctfvfm+e4OOuXK1miWGwJxejy51uD2lq0dpRzZ3SUSJVRqirfG+sJs8boDyNrHwHq0T5Hjp2Gn00VQspZ51zBAcffCCX/dOV/Mctt6J1ggqKoog7hnkZb3e8OW6MLYU0BUli8UVBlq8gGMfizRZz0acu4vzzLuAPjy/HmLVhJ7Ji7lTJBaqUQhnYdOEMzjz7OA499GBuvP4WvvXNH/CHR5ejtGWwXgel0coSdGj9OCbyHN+947mdOaa0iqaqLuQkicL5IZx37LnnTpx+xrvYfY8lOByN7DkGkmYDqYwdrLnwyEopUA6FA2156yGv54gj38hNX7+Ty//5Czz5xDMUeUatz5RaRd2KDufLdj+2RqCJxyZxMZflQ2AMysDsWdM57p3HctwJhzFnnobmZpWB4FZhEV3VpIU4xtTrQ6R2g5jVPmSEMNRR2R31HkpBKJTvJmisiuOCMXETZG2PhqWV6kj9FCjY7437cOP136YxNBTH9w5Bppd5KGVd5ig8CxZsxNIdt43zzEu0sTGcWO7o1xWwNc/W287ne7ddzU1f+yFXfv4alj3yv7g8kBUZrnDlBlLczNNGR3+jMXDeoZXGB8/gi4P4UNDXFze6lAkE5dlp5x244G/OYZuXb4wyTbM1TWzQq7kahLUaEXLWA/K8mZclmpcYm4NvVOy9J8ZYSb3GThg3MUGnY3dFxR3guP50RJGgS+jpirZmE4P3Du9gYAN4x7F/xRsP2IPrrv0aN15/M08+8RzO5QSfYFRtjEm04gdQTkRpasnyQbIiY+aGNY4/4e0c/86jmD17Wgy9aS1F4XHOo40hzwBVB1UnqaXRjhkqQlrouF/AYxMIZBMWcACKPEeRkqY2mhDpjNGFnE4zrDSxZPlQaW+eo0nGUYbxo7WhKAKJVhQuQ1sHod4+oeN1RHv3ENq5J5RSpAmgMtK0vWidfDyojMIbFm0xwD9dfjaHH7UfN15/Czd/43sY2x+T49mkFJB8FHTGMi8JHmujj0u98TyJbbDTbq/knPPey047LYlCuB6kKHK0qvHSKuDLHffmM6miEmijKfzH97hws+mc98FjOed9x/L92+7h1u/+gDtu/ykvPN8g+FJrFRQKS2zz43suXy7CtVFYYxmqv4BNNMYUaJ2xdKdXccCbXsuBBx3AnDkDoKDwGcZo+vv6CKEoi9n062mGlq76+KwOKs/XXMTiqfVFjdhbDt6Lgw/Zi2/cdAffvOU27r77Z6VGyuKdJjhdCjejla9qwhP9EwKeQJ0kLZi/6RwOP/KtvOMdhzFnriV3nsLlaB39q0IImFD276ppsPKsrBYlsUnpI+lj6HyddQxxneN7xaS2mR8IKHwdFNTSlCzLV6oca45OjYy1jl12ew2vfs0S7v7Jf74N+eUAABP6SURBVMdJuENrNdJ8GgU+ZQre+a5TSGugtCZfax6/om3TAAFMgcby1kP25dAjXsfP7r6Xm2/+Hrd+54cMvRi18P39/TjncBXLhNFMMJsCjtGGdMAyVM8o/ArmzJvOwYe+mRPeeRSbzJ+Bc1Dra1sG+BAIPifRZpXar7Buoz758Y+Hc84776UuhzCZtHbSYqd2RUApg0ktecYqh90cyzd3dQcusVHpAir63CivO8zW4u3bA1qW1xkYmEaRu7iYTkpTAmXwBdxww23c+aN7+NEdP2XwxWzkCG4dNHcsCxYsfBl/9frX8YY37MtOu2xLUAW1PoU2MUxsfSiLjsfaxqR6wcSMywaKjIoJQ0Tprom/XP8V3mNs1nL6bp3fVd9BVRdssazeG4KLu1oT3Qh1BSQpYAqM9biiU4iacHvqWvS7oGL+oQKyBtjmmncEtK60sfKvtcSE8LhhQnarfNX7dk94lUkwqE4hr8NJtrkQ1GVCRm9wueLxP/yZ//fL+/nqjbdw//0P8PwLL7ZMD80YzgQuFMycOZNXv/qVLN3xVRx5xJuZv2AauY9txBXwun2PYPnyFykyg+5uMF00w4DroEG/wO+X/QB0hgrDn2fiVIScqg9Jpc9kRcbAwACNbAjvounoQJ8la0CRw0/ufIDf3Hc/P7rzJ/zmN/ezYsVg5RrRPKnavqp9IYQCHwJaKbRRaANLl+7AdtstYY89d+NVr1rC7HmKJCVqUI3Gh5zgA86DNab0FQKI4Yzb7SU+g+oV2nkidLVvVWpmw7Dwt5QbNgGtTPQJIkGVJprLlw/x07t/wZ133MXDDz3Kgw/8Hu+Gd4xOjWFVCI3vaJfdlrLnnruw445L2XnXLTAGTAJFEXP5OJdTq9UoXAZotLeV5yg1J+NdJCof+0/ZHnwzN1GwBJ+0++JoY0a1uwSgXLxmLo6reT75flOTSes9N0Ngm4B3Co2mUY/hxKuMOp8qSh+p+NeVjv26MugO+/kqLubH1pT1un5bGA7oaHWQO6xJKHJwOfzg+7/kJ3f+nF/+16945NFHGKrXiSZ93Vqtzn5SS1IGXxykf6DGvHlz2O+Nr2O/N+7DLrttjdJxbnIuttPC5SRp3AhxPv6tpWWFN8d3OttPt4maFy+OKcOlF18sQs76Qw/H03UWT8cu40pTmkOkmjyLC+X773+cPyx7kl//6jcMDg3x7LPPRt8IH31Z+vstczeaxaabbsI222zJJpvMZ86safFyzbmh6nTZ655AGM3BXo0gOIx63fE96yq9e5Wtxh2xySjfqtRP9Tq9HGZ70VXmaLVBUHDvfb/nyf99kt8+8FueefppnPN4D94FvDfMnDmTeRvNYcOZ09l6q81YuuO28RIBlGlqFsAHE4Wc1x3GIw8/R2Kmj1n81SvklM89oWvEegpK91zcPv308zz66DIee+wxlj26nBUr6gwN5mRZVmqgPbVajf7+fmp9hi22WMSGs2awZMk2LFgwJ66hW4Js+XyjjQ/jfr9rnlhHZZsqnynP48L4mWf+wqOPLOd3v1vGn595lqeffoahoSggFoXDWkVfXx+zZs1l0003YetttmT+/PnMnVuaBJXjU1wwNxd6vseu1Cq2k5HGiNApvE78upPUv9cY1Xpsa6VWjsma89Y0ZSTEoDq6vnPw8MOP8Ydlj/PEE0/yzDNP8/SfnqVeb1BLpzE4NER/X8qcubPZcqvN2WKLzdh6my1I07jJpXVsxyEQNyWGBe0RBBFyBAGIjuZZkZc7ohqjVdR4lf4GvnQdUCoKQj50TrZrZUI6YeWZiJDT/VNl4uaz9y1NTpKYMmhC3KEvrSlobmAqPGlN4wqHL0NjR02dJrgEbQx773Ukjy37C5ppMXP6KKx+IWflGMntpq0d09HkJE3JsqjBAkiSdh8MIZDWYoLE4KNd/1iasnWN7nrS2lC4ghAC1iQQDM1YMkpFTYDzYDQYS9ucSUWNV5v43pu5cdofywAmrH6a7dp5T5r04b1DqWiq7J2PiUOVxpSael1pz81/KwWuTDjqy3ZrhmmeRMgRIpdefLH45AhCVuQYa8myrDXYpkktLlJ1jOxitMKHQCPLSVNDh5HAmvJYFtYM497hHz6ZhgAuhFZellrNkudFdOrWMRKR8uB8wBPNlWpWMTT0IsaqloN5jLjn48ogQJ57tEpa/ihThaaAEzOqO7TROO+wicEmUUPhmmZ/OpqoZVmdJLHoxOBcMeUdi/MixxqDUhrvY9JSY2wZedGDUiSpIgRPljuMGav9TvEKE9ZS4tiVJJpGY6gM0V8QgiJJy/btys3EcoMxyzzWRnPJEGLgiabPTXsKnlqbHMLksvbp6wVhDaOUpshz0jQlSSy1WkJe1MtIYjlaO4wlOs36fFiuirU92o+wJommE3nRwFpNIJDnGYXLYwI9YpJAY3xsV8rRyAZJ02gS2TxibpJoulQUkGce7x35OL2Om3bma3tIVK1issxm/gqjNXmeEYOKOAI51sb6UtoRQoE2uhVKfn2gLfj68t8ObQLahOiYrl3p1+cpigbOF/jg8K1ww92HILx0eOfRBvrTFPAEcpQCpTw+5CgdorWEcvT1awpftmkfgw41IykKwngQTY6w3hOcQwGujNoTCCQm6djw9IUHFH1pP6FMGBiaJ4iQs97TaDRa4VC1CsTUDnkMi520zcSCawspCkAHEiy+cNHsMQSstmijKTw4FzBa8fSfnsOHPmwtHdO8KEZm9hg0yujyuqvjqSfGiGadIeCyvMxnEfteKB3srbKoLvstq2jZ/GnUsI3cdV346a4nQxkqu3yuZv0EAgYT8/CUY1dfWivNLUf28FehGVWu+UHn92NHxxSEidMyl1Ueo2JIc6PAGEXwOYFochlciE0yQJE5bI8IlUapke1fBaGCCDmCMIzO6GHd34nmRqiilKJWq7UX16NGSxo5IIVWba2gdzEJYNKn+NlPn0DrBKMT3DjWn95HcybvfI8sVusCo/c/oVo/Uh/COkYr+l+1DVfasaqcJwiriAg5gtATWTwIkbE2DE0SBYrgHXlekOiuYXUsxUJXYsRQZuL2PpDncMP1X0eR4LyPiQbHuJz3KmZaV4o5c+aMcfbaSrX/yabCcCr5a7oZa3E47kSigjCZVISa0EuTOMqc26tNj7RhJMKRUEFagyB008zaPdIhrFf4nuZPGkIKPsVliuf+nPOLn99PYgfozCHUDDE98lDrg6qco3FFjKLlC8sfnx7k7p/9IkYhyt0IZenEGE1RxGAHixYtnNjDrg1I/xsdqQthStCZT2jkcXIqpL0QXipEkyMI3chO0HrFcE1NOxloM5mh0rrMRRINwIo8+ob87uG/8MUrr+O737kVk8At/3EdCzefHp1kfQwnbTCta/TarSyUx6QpSqmYONbWYuLMAs4/9x95/LE/gq+RaBsTRY7xPFrHhKEhOGbN2rD9eXfSu7VVQTKs/62tBX2JWOXxSYQj4aWgu92Nkpx51N+N5zeCEBEhRxAEoSe+9JOxMWdLMFhjyRvw2KN/4op/uZqv3fgdLH2Axlg47ZT3c9U1n2H23AGSJOZ4UIry/0ZwqAmaRj1HKYMxNYKHFc/DP37kM/z07l9BaHvWRL+f8Sz6o537kiXbrGolCIIgCMI6iQg5giAI3bSyi2u8SkAZsjr87K5HuOKKf+W/fn4v9SFPYmZC0DG0LwW/+c2jvOWgE7nhq1exyaZ94AMqcWW29goVEw2tNQGND5AX8D/3LeeCD/wjDz24DEXSIeSMq+gq+vNo7dh9j50nozYEQRAEYZ1DhBxBEIQOdFsICZYQNHf/5H6+cOUN3HXnLykKRZ4ZjEnwaNLEkmc5hfOkaT9PLl/BvnseyPvefxpvedsb2HTBDFToMdRWTM+shTt//Fuuu/brfOfb3yex08gakCamXaZxmhmFECAUoDK2e/lisfYSBEEQ1ktEyBEEQWih8d7E/CsB7vnZQ1z8qSu499cP08gUwcdElNYCeEJwZIUHrWOI5wCQgtJcfPEXuPiSz7L/Aa9nh1dtxyu235YZM2aw0UYbk2cFjz76GA889Dvu/fX/cMftd/LCC0MEr1BqJoUDY1NciMlqI6rrb298kZGksHTp9mw4u5l3ZfxCkiAIgiBMBUTIEQRBaBI0BMWdd/43n7vian5xz334IqUoAB01PAFfETyatIMVtCKvBUsICd/95o/53nfvQJuAK6LZmtYJShmCV1iTkGUFWsdcO5ORh6lwdd5+9NuiPLRu58YUBEEQhJVChBxBEIQWmvvvW8axR5+M1RvQqAeMBmtSipCXKUaqIU+r+UpKHx4sBEv0t0kwJsX5giJrYGwNgMI5Qghoo8mznDRNcc6jtQI/csLQsYnapc0WL+TAA1+L8x5b/ZnyEpVIEARBWC+Q2U4QBKHC9q9czMknvxulFFpblFLkRY5NErSBzgzdTc1N76HUh4BzYLRF6xpZ3eFdwJqUNO1DEcM914fqaKUwdmJBBsq7UBW20j7Pyacdi0mgVtPt7yWviiAIgrAeIUKOIAjrNSpUDgrAc+qpx7DZ4o0xyoHy0VKtyLFaY1TAqIBSVdMyHbU3QaND1OdUj+AKdIBakmJVAl4RCtBBYzDUkj5U0LgsaoN6H91E4cXlDTS+LFfOgkUzOOyI1+N1oNEo8Iqex7pCCGFChzA6Un+CIKwviJAjCILQwoMqmDO3j2u/ciUbz5+F1jlaQ1EUFHkzFHRV8OgljPiuY2yGLzBHy/TdvqY2mrxokOUr8LzItddfibaBEBw6qUgzYqYmCIIgrEfIrCcIgtCBBgUbz+/nyi98mtlzp4FqkCQJ1aACw4WQsTQvq1Cejut1CU1BR/8em/F3H34/CxfNwmgwWpNleeUaiKAjCIIgrDfIjCcIglAhsZaicAQ8222/GVd9+V+YPXcagXrlrJd46FRtHxybgLYZp5/xTo49/kC8h7zIQHmSRGLLCIIgCOsnIuQIgiBUyIsMpUP0xTGe7bZbwE03/Xs0XTMFWb4CYwPgcS6r/LK3iZpBdRw6sEqHCgHlFVZrfFFn2gzHpy/5W848+wSSGgQffYeafkZtVpemSRAEQRDWPmSmEwRBGEZbU6JtYMutZ/OVG7/AjrtsS9+AJyueB1VgzJrXlMRob0Mo02DR5nO57vp/5ZDD9yOtRT8c8CglDuSCIAjC+o0IOYIgCFVaoZbj3+ADjcyz2RbTue6Gz3DBh05n3kbTCJRanFANIb2awzQrj9KOtOY55vgD+fZ3r2arbTbGJoGAIwRfifjWFfQgjOLXIwiCIAhTDBFyBEEQuqnklPHeY6wCFdDGc8zxb+Xm/7iGw444gLSvAboOKgNVVJKCTga+vGYGqh7vowdZutM23P7jb3PB355Krd8xsEGCNvG+Sulh5e95XUEQBEGY4ohXqiAIQpUujYfSihAcwXtQoDQsWDyNT196Nqe99zgu/6d/4/u33cHgiwVZA9JkgODb5mIuFIQQUMpgtCEvcpRSFY0L5ffxN96DtRofMqwBHxpsOGsaJ77rBA58y/4sWjQTFKA8RllcEcNaK6VampzQK4qaJAMVBEEQ1iNEyBEEQRiFKHy0hRalHT5koBMWbzGbyy7/AE89eS4//M+7ueXm73D3XT8HbUutiiY1Buc8zjlQCbWawXuP81krN44yAa0CSmlMmXx02603Y489d+H1r9+HnXfdhgCktahZQhXVEnaUVxI6CoIgCIIIOYIgCBNCK4MPAZ83AHCqxtyNEt522D685eB9GBosuP/+B7n7rp/z298+yPLHn+KJ5X/k2Wf/QlCGzHmM1iQ1jdaw0cvmMn/+Rmy9zZZsuukmvHqHJWy7ZBvmzOlr3bNwYA0UzqF1IFoaj1czIxocQRAEYf1DhBxBEIQJYrRGa41SisbQEElisYlCpZq0T7H7ntuxx17bETwED0rFv85BkkAI7cMH2soYBc5n1GoJITiKIsRcNz5Hm4SAaGkEQRAEYTyIkCMIgjAuokZEaQUh+r+EoEmSFKD877z04fGEACiN0hqCQmmwOgo28Tqla03ovIexmuByAKzW4F38ncu7IsWUklGX3CNikCAIgiCIkCMIgrCSdIdk9qVzv6o4+evhfztdaGiLJb3MysrrCYIgCIIwIUTIEQRBGBdNQaVbV1IKOLrMm0NChwAUqoJOr1w1vkfo6WbuHc1wIUd8bARBEARhLETIEQRBWAl0KJOFwkqEZ/Zdf8e82wTPFwRBEIT1GxFyBEEQxkHLd8YpOkJKA1HzkrZPDpUcOK1zHSOapoUuM7bQFmqiD89oJm2CIAiCIHQjQo4gCMKq0iv5Zk9GEVJGvYYIN4IgCIIwEcY7MwuCIAiCIAiCIKwTiJAjCIIgCIIgCMKUQoQcQRAEQRAEQRCmFCLkCIIgCIIgCIIwpRAhRxAEQRAEQRCEKYUIOYIgCIIgCIIgTClEyBEEQRAEQRAEYUohQo4gCIIgCIIgCFMKEXIEQRAEQRAEQZhSiJAjCIIgCIIgCMKUQoQcQRAEQRAEQRCmFCLkCIIgCIIgCIIwpRAhRxAEQRAEQRCEKYUIOYIgCIIgCIIgTClEyBEEQRAEQRAEYUohQo4gCIIgCIIgCFMKEXIEQRAEQRAEQZhSiJAjCIIgCIIgCMKUQoQcQRAEQRAEQRCmFCLkCIIgCIIgCIIwpRAhRxAEQRAEQRCEKYUIOYIgCIIgCIIgTClEyBEEQRAEQRAEYUohQo4gCIIgCIIgCFMKEXIEQRAEQRAEQZhSiJAjCIIgCIIgCMKUQoQcQRAEQRAEQRCmFCLkCIIgCIIgCIIwpbAAl1588UtdDkEQBEEQBEEQhEnh/wO87U/zMa0CbwAAAABJRU5ErkJggg==;clipPath=inset(8.49% 13% 8.49% 12.67%);" vertex="1" parent="1">
          <mxGeometry x="189.5" y="70" width="180" height="71.03" as="geometry" />
        </mxCell>
        <mxCell id="G56Gs_buEpBoTpwi1JfI-62" value="&amp;lt;&amp;lt;deploy&amp;gt;&amp;gt;" style="html=1;verticalAlign=bottom;labelBackgroundColor=none;endArrow=open;endFill=0;dashed=1;rounded=0;" edge="1" parent="1">
          <mxGeometry width="160" relative="1" as="geometry">
            <mxPoint x="393" y="110" as="sourcePoint" />
            <mxPoint x="553" y="110" as="targetPoint" />
          </mxGeometry>
        </mxCell>
      </root>
    </mxGraphModel>
  </diagram>
</mxfile>
